{
.appVersion = "919";
classes = (
{
automatic = 1;
code = "A Aacute Abreve Acircumflex Adieresis Agrave Amacron Aogonek Aring Atilde AE B C Cacute Ccaron Ccedilla Ccircumflex Cdotaccent D Eth Dcaron Dcroat E Eacute Ebreve Ecaron Ecircumflex Edieresis Edotaccent Egrave Emacron Eogonek F G Gbreve Gcircumflex Gcommaaccent Gdotaccent H Hcircumflex I Iacute Ibreve Icircumflex Idieresis Idotaccent Igrave Imacron Iogonek Itilde J Jcircumflex K Kcommaaccent L Lacute Lcaron Lcommaaccent Ldot Lslash M N Nacute Ncaron Ncommaaccent Ntilde O Oacute Obreve Ocircumflex Odieresis Ograve Ohungarumlaut Omacron Oslash Oslashacute Otilde OE P Thorn Q R Racute Rcaron Rcommaaccent S Sacute Scaron Scedilla Scircumflex Scommaaccent T Tcaron Tcommaaccent U Uacute Ubreve Ucircumflex Udieresis Ugrave Uhungarumlaut Umacron Uogonek Uring Utilde V W Wacute Wcircumflex Wdieresis Wgrave X Y Yacute Ycircumflex Ydieresis Ygrave Z Zacute Zcaron Zdotaccent A-cy Be-cy Ve-cy Ge-cy Gje-cy Gheupturn-cy De-cy Ie-cy Iegrave-cy Io-cy Zhe-cy Ze-cy Ii-cy Iishort-cy Iigrave-cy Ka-cy Kje-cy El-cy Em-cy En-cy O-cy Pe-cy Er-cy Es-cy Te-cy U-cy Ushort-cy Ef-cy Ha-cy Che-cy Tse-cy Sha-cy Shcha-cy Dzhe-cy Softsign-cy Hardsign-cy Yeru-cy Lje-cy Nje-cy Dze-cy E-cy Ereversed-cy I-cy Yi-cy Je-cy Tshe-cy Iu-cy Ia-cy Dje-cy Yat-cy Yusbig-cy Fita-cy Izhitsa-cy Ghestroke-cy Ghemiddlehook-cy Zhedescender-cy Zedescender-cy Kadescender-cy Kaverticalstroke-cy Kabashkir-cy Endescender-cy Pedescender-cy Esdescender-cy Ustrait-cy Ustraitstroke-cy Chedescender-cy Cheverticalstroke-cy Shha-cy Palochka-cy Zhebreve-cy Chekhakassian-cy Abreve-cy Adieresis-cy Iebreve-cy Schwa-cy Zhedieresis-cy Zedieresis-cy Imacron-cy Idieresis-cy Odieresis-cy Obarred-cy Umacron-cy Udieresis-cy Uhungarumlaut-cy Chedieresis-cy Gedescender-cy Yerudieresis-cy Qa-cy We-cy";
name = Uppercase;
}
);
copyright = "Copyright (c) 2011-2012, Jovanny Lemonad (lemonad@jovanny.ru), with Reserved Font Name 'Yeseva'";
customParameters = (
{
name = licenseURL;

glyphs = (
{
color = 4;
glyphname = A;
lastChange = "2016-09-23 19:13:22 +0000";
layers = (
{
anchors = (
{
name = bottom;
position = "{340, 0}";
},
{
name = ogonek;
position = "{612, 10}";
},
{
name = top;
position = "{350, 700}";
}
);
layerId = UUID0;
paths = (
{
closed = 1;
nodes = (
"165 0 LINE",
"165 15 LINE",
"90 45 LINE",
"156 205 LINE",
"395 205 LINE",
"446 85 LINE SMOOTH",
"465 40 OFFCURVE",
"505 0 OFFCURVE",
"580 0 CURVE SMOOTH",
"700 0 LINE",
"700 15 LINE",
"650 30 LINE",
"365 710 LINE",
"335 710 LINE",
"60 45 LINE",
"-20 15 LINE",
"-20 0 LINE"
);
},
{
closed = 1;
nodes = (
"275 493 LINE",
"385 230 LINE",
"166 230 LINE"
);
}
);
width = 680;
}
);
leftKerningGroup = A;
rightKerningGroup = A;
unicode = 0041;
},
{
color = 4;
glyphname = Aogonek;
lastChange = "2016-09-23 19:13:22 +0000";
layers = (
{
layerId = UUID0;
paths = (
{
closed = 1;
nodes = (
"644 -190 OFFCURVE",
"659 -188 OFFCURVE",
"672 -183 CURVE SMOOTH",
"679 -180 OFFCURVE",
"685 -178 OFFCURVE",
"690 -175 CURVE",
"690 -145 LINE",
"686 -149 OFFCURVE",
"682 -152 OFFCURVE",
"677 -155 CURVE SMOOTH",
"669 -160 OFFCURVE",
"657 -165 OFFCURVE",
"645 -165 CURVE SMOOTH",
"618 -165 OFFCURVE",
"605 -152 OFFCURVE",
"605 -125 CURVE SMOOTH",
"605 -82 OFFCURVE",
"628 -52 OFFCURVE",
"652 -31 CURVE SMOOTH",
"666 -19 OFFCURVE",
"682 -9 OFFCURVE",
"700 0 CURVE",
"700 15 LINE",
"650 30 LINE",
"365 710 LINE",
"335 710 LINE",
"60 45 LINE",
"-20 15 LINE",
"-20 0 LINE",
"165 0 LINE",
"165 15 LINE",
"90 45 LINE",
"156 205 LINE",
"395 205 LINE",
"446 85 LINE SMOOTH",
"465 40 OFFCURVE",
"505 0 OFFCURVE",
"580 0 CURVE SMOOTH",
"654 0 LINE",
"642 -4 OFFCURVE",
"520 -33 OFFCURVE",
"520 -115 CURVE SMOOTH",
"520 -155 OFFCURVE",
"554 -190 OFFCURVE",
"625 -190 CURVE SMOOTH"
);
},
{
closed = 1;
nodes = (
"275 493 LINE",
"385 230 LINE",
"166 230 LINE"
);
}
);
width = 680;
}
);
leftKerningGroup = A;
rightKerningGroup = A;
unicode = 0104;
},
{
color = 4;
glyphname = AE;
lastChange = "2016-09-23 19:13:22 +0000";
layers = (
{
layerId = UUID0;
paths = (
{
closed = 1;
nodes = (
"161 0 LINE",
"161 15 LINE",
"86 45 LINE",
"208 265 LINE",
"465 265 LINE",
"465 30 LINE",
"405 15 LINE",
"405 0 LINE",
"950 0 LINE",
"950 180 LINE",
"920 180 LINE",
"907 170 OFFCURVE",
"896 157 OFFCURVE",
"887 142 CURVE SMOOTH",
"871 115 OFFCURVE",
"855 77 OFFCURVE",
"855 25 CURVE",
"630 25 LINE",
"630 335 LINE",
"735 335 LINE",
"740 307 OFFCURVE",
"750 283 OFFCURVE",
"761 264 CURVE SMOOTH",
"767 253 OFFCURVE",
"773 244 OFFCURVE",
"780 235 CURVE",
"810 235 LINE",
"810 460 LINE",
"780 460 LINE",
"773 451 OFFCURVE",
"767 442 OFFCURVE",
"761 431 CURVE SMOOTH",
"750 412 OFFCURVE",
"740 387 OFFCURVE",
"735 360 CURVE",
"630 360 LINE",
"630 675 LINE",
"835 675 LINE",
"835 622 OFFCURVE",
"851 585 OFFCURVE",
"867 558 CURVE SMOOTH",
"876 543 OFFCURVE",
"887 530 OFFCURVE",
"900 520 CURVE",
"930 520 LINE",
"930 700 LINE",
"416 700 LINE",
"50 45 LINE",
"-30 15 LINE",
"-30 0 LINE"
);
},
{
closed = 1;
nodes = (
"438 675 LINE",
"465 675 LINE",
"465 290 LINE",
"223 290 LINE"
);
}
);
width = 991;
}
);
leftKerningGroup = A;
rightKerningGroup = E;
unicode = 00C6;
},
{
color = 4;
glyphname = B;
lastChange = "2016-09-23 19:13:22 +0000";
layers = (
{
anchors = (
{
name = bottom;
position = "{340, 0}";
},
{
name = top;
position = "{340, 700}";
}
);
layerId = UUID0;
paths = (
{
closed = 1;
nodes = (
"340 0 LINE SMOOTH",
"570 0 OFFCURVE",
"650 80 OFFCURVE",
"650 190 CURVE SMOOTH",
"650 276 OFFCURVE",
"586 322 OFFCURVE",
"522 343 CURVE SMOOTH",
"485 356 OFFCURVE",
"442 363 OFFCURVE",
"395 365 CURVE",
"395 370 LINE",
"436 371 OFFCURVE",
"473 378 OFFCURVE",
"505 389 CURVE SMOOTH",
"560 407 OFFCURVE",
"615 447 OFFCURVE",
"615 525 CURVE SMOOTH",
"615 620 OFFCURVE",
"535 700 OFFCURVE",
"320 700 CURVE SMOOTH",
"50 700 LINE",
"50 685 LINE",
"110 670 LINE",
"110 30 LINE",
"50 15 LINE",
"50 0 LINE"
);
},
{
closed = 1;
nodes = (
"275 355 LINE",
"340 355 LINE",
"420 355 OFFCURVE",
"480 295 OFFCURVE",
"480 190 CURVE SMOOTH",
"480 85 OFFCURVE",
"420 25 OFFCURVE",
"340 25 CURVE SMOOTH",
"275 25 LINE"
);
},
{
closed = 1;
nodes = (
"275 675 LINE",
"320 675 LINE SMOOTH",
"385 675 OFFCURVE",
"445 615 OFFCURVE",
"445 525 CURVE SMOOTH",
"445 440 OFFCURVE",
"385 380 OFFCURVE",
"320 380 CURVE SMOOTH",
"275 380 LINE"
);
}
);
width = 680;
}
);
leftKerningGroup = H;
rightKerningGroup = B;
unicode = 0042;
},
{
color = 4;
glyphname = C;
lastChange = "2016-09-23 19:13:22 +0000";
layers = (
{
anchors = (
{
name = bottom;
position = "{365, 0}";
},
{
name = top;
position = "{365, 700}";
}
);
layerId = UUID0;
paths = (
{
closed = 1;
nodes = (
"516 -15 OFFCURVE",
"615 85 OFFCURVE",
"615 200 CURVE",
"590 200 LINE",
"590 100 OFFCURVE",
"500 10 OFFCURVE",
"405 10 CURVE SMOOTH",
"300 10 OFFCURVE",
"220 90 OFFCURVE",
"220 350 CURVE SMOOTH",
"220 610 OFFCURVE",
"299 690 OFFCURVE",
"380 690 CURVE SMOOTH",
"447 690 OFFCURVE",
"493 646 OFFCURVE",
"521 602 CURVE SMOOTH",
"538 576 OFFCURVE",
"551 547 OFFCURVE",
"560 515 CURVE",
"600 515 LINE",
"600 705 LINE",
"575 705 LINE",
"568 701 OFFCURVE",
"562 696 OFFCURVE",
"555 691 CURVE SMOOTH",
"544 682 OFFCURVE",
"531 667 OFFCURVE",
"520 650 CURVE",
"507 662 OFFCURVE",
"493 673 OFFCURVE",
"476 682 CURVE SMOOTH",
"448 698 OFFCURVE",
"408 715 OFFCURVE",
"361 715 CURVE SMOOTH",
"174 715 OFFCURVE",
"45 585 OFFCURVE",
"45 350 CURVE SMOOTH",
"45 115 OFFCURVE",
"174 -15 OFFCURVE",
"385 -15 CURVE SMOOTH"
);
}
);
width = 650;
}
);
leftKerningGroup = O;
rightKerningGroup = C;
unicode = 0043;
},
{
color = 4;
glyphname = Ccedilla;
lastChange = "2016-09-23 19:13:22 +0000";
layers = (
{
layerId = UUID0;
paths = (
{
closed = 1;
nodes = (
"434 -200 OFFCURVE",
"468 -165 OFFCURVE",
"468 -125 CURVE SMOOTH",
"468 -85 OFFCURVE",
"433 -50 OFFCURVE",
"373 -50 CURVE",
"373 -15 LINE",
"385 -15 LINE SMOOTH",
"516 -15 OFFCURVE",
"615 85 OFFCURVE",
"615 200 CURVE",
"590 200 LINE",
"590 100 OFFCURVE",
"500 10 OFFCURVE",
"405 10 CURVE SMOOTH",
"300 10 OFFCURVE",
"220 90 OFFCURVE",
"220 350 CURVE SMOOTH",
"220 610 OFFCURVE",
"299 690 OFFCURVE",
"380 690 CURVE SMOOTH",
"447 690 OFFCURVE",
"493 646 OFFCURVE",
"521 602 CURVE SMOOTH",
"538 576 OFFCURVE",
"551 547 OFFCURVE",
"560 515 CURVE",
"600 515 LINE",
"600 705 LINE",
"575 705 LINE",
"568 701 OFFCURVE",
"562 696 OFFCURVE",
"555 691 CURVE SMOOTH",
"544 682 OFFCURVE",
"531 667 OFFCURVE",
"520 650 CURVE",
"507 662 OFFCURVE",
"493 673 OFFCURVE",
"476 682 CURVE SMOOTH",
"448 698 OFFCURVE",
"408 715 OFFCURVE",
"361 715 CURVE SMOOTH",
"174 715 OFFCURVE",
"45 585 OFFCURVE",
"45 350 CURVE SMOOTH",
"45 131 OFFCURVE",
"154 5 OFFCURVE",
"338 -12 CURVE",
"338 -75 LINE",
"373 -75 OFFCURVE",
"393 -94 OFFCURVE",
"393 -125 CURVE SMOOTH",
"393 -156 OFFCURVE",
"374 -175 OFFCURVE",
"343 -175 CURVE SMOOTH",
"332 -175 OFFCURVE",
"324 -173 OFFCURVE",
"317 -170 CURVE SMOOTH",
"313 -169 OFFCURVE",
"310 -167 OFFCURVE",
"307 -165 CURVE",
"307 -195 LINE",
"324 -198 LINE",
"335 -199 OFFCURVE",
"348 -200 OFFCURVE",
"363 -200 CURVE SMOOTH"
);
}
);
width = 650;
}
);
leftKerningGroup = O;
rightKerningGroup = C;
unicode = 00C7;
},
{
color = 4;
glyphname = D;
lastChange = "2016-09-23 19:13:22 +0000";
layers = (
{
anchors = (
{
name = bottom;
position = "{358, 0}";
},
{
name = center;
position = "{188, 350}";
},
{
name = top;
position = "{358, 700}";
}
);
layerId = UUID0;
paths = (
{
closed = 1;
nodes = (
"305 0 LINE SMOOTH",
"545 0 OFFCURVE",
"675 130 OFFCURVE",
"675 350 CURVE SMOOTH",
"675 570 OFFCURVE",
"545 700 OFFCURVE",
"305 700 CURVE SMOOTH",
"50 700 LINE",
"50 685 LINE",
"110 670 LINE",
"110 30 LINE",
"50 15 LINE",
"50 0 LINE"
);
},
{
closed = 1;
nodes = (
"275 675 LINE",
"305 675 LINE",
"420 675 OFFCURVE",
"500 594 OFFCURVE",
"500 350 CURVE SMOOTH",
"500 106 OFFCURVE",
"420 25 OFFCURVE",
"305 25 CURVE SMOOTH",
"275 25 LINE"
);
}
);
width = 715;
}
);
leftKerningGroup = H;
rightKerningGroup = O;
unicode = 0044;
},
{
color = 4;
glyphname = Eth;
lastChange = "2016-09-23 19:13:22 +0000";
layers = (
{
layerId = UUID0;
paths = (
{
closed = 1;
nodes = (
"310 0 LINE SMOOTH",
"550 0 OFFCURVE",
"680 130 OFFCURVE",
"680 350 CURVE SMOOTH",
"680 570 OFFCURVE",
"550 700 OFFCURVE",
"310 700 CURVE SMOOTH",
"55 700 LINE",
"55 685 LINE",
"115 670 LINE",
"115 370 LINE",
"50 370 LINE",
"50 340 LINE",
"115 340 LINE",
"115 30 LINE",
"55 15 LINE",
"55 0 LINE"
);
},
{
closed = 1;
nodes = (
"280 340 LINE",
"400 340 LINE",
"400 370 LINE",
"280 370 LINE",
"280 675 LINE",
"310 675 LINE",
"425 675 OFFCURVE",
"505 594 OFFCURVE",
"505 350 CURVE SMOOTH",
"505 106 OFFCURVE",
"425 25 OFFCURVE",
"310 25 CURVE SMOOTH",
"280 25 LINE"
);
}
);
width = 715;
}
);
leftKerningGroup = Hbar;
rightKerningGroup = E;
unicode = 00D0;
},
{
color = 4;
glyphname = Dcroat;
lastChange = "2016-09-23 19:13:22 +0000";
layers = (
{
layerId = UUID0;
paths = (
{
closed = 1;
nodes = (
"310 0 LINE SMOOTH",
"550 0 OFFCURVE",
"680 130 OFFCURVE",
"680 350 CURVE SMOOTH",
"680 570 OFFCURVE",
"550 700 OFFCURVE",
"310 700 CURVE SMOOTH",
"55 700 LINE",
"55 685 LINE",
"115 670 LINE",
"115 370 LINE",
"50 370 LINE",
"50 340 LINE",
"115 340 LINE",
"115 30 LINE",
"55 15 LINE",
"55 0 LINE"
);
},
{
closed = 1;
nodes = (
"280 340 LINE",
"400 340 LINE",
"400 370 LINE",
"280 370 LINE",
"280 675 LINE",
"310 675 LINE",
"425 675 OFFCURVE",
"505 594 OFFCURVE",
"505 350 CURVE SMOOTH",
"505 106 OFFCURVE",
"425 25 OFFCURVE",
"310 25 CURVE SMOOTH",
"280 25 LINE"
);
}
);
width = 720;
}
);
leftKerningGroup = Hbar;
rightKerningGroup = O;
unicode = 0110;
},
{
color = 4;
glyphname = E;
lastChange = "2016-09-23 19:13:22 +0000";
layers = (
{
anchors = (
{
name = bottom;
position = "{383, 0}";
},
{
name = ogonek;
position = "{605, 0}";
},
{
name = top;
position = "{363, 700}";
},
{
name = topleft;
position = "{30, 700}";
}
);
layerId = UUID0;
paths = (
{
closed = 1;
nodes = (
"605 0 LINE",
"605 180 LINE",
"575 180 LINE",
"562 170 OFFCURVE",
"551 157 OFFCURVE",
"542 142 CURVE SMOOTH",
"526 115 OFFCURVE",
"510 77 OFFCURVE",
"510 25 CURVE",
"275 25 LINE",
"275 335 LINE",
"390 335 LINE",
"395 307 OFFCURVE",
"405 283 OFFCURVE",
"416 264 CURVE SMOOTH",
"422 253 OFFCURVE",
"428 244 OFFCURVE",
"435 235 CURVE",
"465 235 LINE",
"465 460 LINE",
"435 460 LINE",
"428 451 OFFCURVE",
"422 442 OFFCURVE",
"416 431 CURVE SMOOTH",
"405 412 OFFCURVE",
"395 387 OFFCURVE",
"390 360 CURVE",
"275 360 LINE",
"275 675 LINE",
"490 675 LINE",
"490 622 OFFCURVE",
"506 585 OFFCURVE",
"522 558 CURVE SMOOTH",
"531 543 OFFCURVE",
"542 530 OFFCURVE",
"555 520 CURVE",
"585 520 LINE",
"585 700 LINE",
"50 700 LINE",
"50 685 LINE",
"110 670 LINE",
"110 30 LINE",
"50 15 LINE",
"50 0 LINE"
);
}
);
width = 645;
}
);
leftKerningGroup = H;
rightKerningGroup = E;
unicode = 0045;
},
{
color = 4;
glyphname = Eogonek;
lastChange = "2016-09-23 19:13:22 +0000";
layers = (
{
layerId = UUID0;
paths = (
{
closed = 1;
nodes = (
"389 -190 OFFCURVE",
"404 -188 OFFCURVE",
"417 -183 CURVE SMOOTH",
"424 -180 OFFCURVE",
"430 -178 OFFCURVE",
"435 -175 CURVE",
"435 -145 LINE",
"431 -149 OFFCURVE",
"427 -152 OFFCURVE",
"422 -155 CURVE SMOOTH",
"414 -160 OFFCURVE",
"402 -165 OFFCURVE",
"390 -165 CURVE SMOOTH",
"363 -165 OFFCURVE",
"350 -152 OFFCURVE",
"350 -125 CURVE SMOOTH",
"350 -82 OFFCURVE",
"373 -52 OFFCURVE",
"397 -31 CURVE SMOOTH",
"411 -19 OFFCURVE",
"427 -9 OFFCURVE",
"445 0 CURVE",
"605 0 LINE",
"605 180 LINE",
"575 180 LINE",
"562 170 OFFCURVE",
"551 157 OFFCURVE",
"542 142 CURVE SMOOTH",
"526 115 OFFCURVE",
"510 77 OFFCURVE",
"510 25 CURVE",
"275 25 LINE",
"275 335 LINE",
"390 335 LINE",
"395 307 OFFCURVE",
"405 283 OFFCURVE",
"416 264 CURVE SMOOTH",
"422 253 OFFCURVE",
"428 244 OFFCURVE",
"435 235 CURVE",
"465 235 LINE",
"465 460 LINE",
"435 460 LINE",
"428 451 OFFCURVE",
"422 442 OFFCURVE",
"416 431 CURVE SMOOTH",
"405 412 OFFCURVE",
"395 387 OFFCURVE",
"390 360 CURVE",
"275 360 LINE",
"275 675 LINE",
"490 675 LINE",
"490 622 OFFCURVE",
"506 585 OFFCURVE",
"522 558 CURVE SMOOTH",
"531 543 OFFCURVE",
"542 530 OFFCURVE",
"555 520 CURVE",
"585 520 LINE",
"585 700 LINE",
"50 700 LINE",
"50 685 LINE",
"110 670 LINE",
"110 30 LINE",
"50 15 LINE",
"50 0 LINE",
"399 0 LINE",
"387 -4 OFFCURVE",
"265 -33 OFFCURVE",
"265 -115 CURVE SMOOTH",
"265 -155 OFFCURVE",
"299 -190 OFFCURVE",
"370 -190 CURVE SMOOTH"
);
}
);
width = 645;
}
);
leftKerningGroup = H;
rightKerningGroup = E;
unicode = 0118;
},
{
color = 4;
glyphname = F;
lastChange = "2016-09-23 19:13:22 +0000";
layers = (
{
anchors = (
{
name = bottom;
position = "{305, 0}";
},
{
name = top;
position = "{305, 700}";
}
);
layerId = UUID0;
paths = (
{
closed = 1;
nodes = (
"335 0 LINE",
"335 15 LINE",
"275 30 LINE",
"275 335 LINE",
"390 335 LINE",
"395 307 OFFCURVE",
"405 283 OFFCURVE",
"416 264 CURVE SMOOTH",
"422 253 OFFCURVE",
"428 244 OFFCURVE",
"435 235 CURVE",
"465 235 LINE",
"465 460 LINE",
"435 460 LINE",
"428 451 OFFCURVE",
"422 442 OFFCURVE",
"416 431 CURVE SMOOTH",
"405 412 OFFCURVE",
"395 387 OFFCURVE",
"390 360 CURVE",
"275 360 LINE",
"275 675 LINE",
"490 675 LINE",
"490 622 OFFCURVE",
"506 585 OFFCURVE",
"522 558 CURVE SMOOTH",
"531 543 OFFCURVE",
"542 530 OFFCURVE",
"555 520 CURVE",
"585 520 LINE",
"585 700 LINE",
"50 700 LINE",
"50 685 LINE",
"110 670 LINE",
"110 30 LINE",
"50 15 LINE",
"50 0 LINE"
);
}
);
width = 610;
}
);
leftKerningGroup = H;
rightKerningGroup = F;
unicode = 0046;
},
{
color = 4;
glyphname = G;
lastChange = "2016-09-23 19:13:22 +0000";
layers = (
{
anchors = (
{
name = bottom;
position = "{320, 0}";
},
{
name = top;
position = "{370, 700}";
}
);
layerId = UUID0;
paths = (
{
closed = 1;
nodes = (
"377 -15 OFFCURVE",
"414 7 OFFCURVE",
"437 30 CURVE SMOOTH",
"450 43 OFFCURVE",
"461 58 OFFCURVE",
"470 75 CURVE",
"475 60 OFFCURVE",
"483 47 OFFCURVE",
"494 35 CURVE SMOOTH",
"513 15 OFFCURVE",
"546 -5 OFFCURVE",
"605 -5 CURVE SMOOTH",
"620 -5 LINE",
"620 330 LINE",
"680 345 LINE",
"680 360 LINE",
"395 360 LINE",
"395 345 LINE",
"455 330 LINE",
"455 100 LINE",
"448 85 OFFCURVE",
"441 72 OFFCURVE",
"432 60 CURVE SMOOTH",
"417 40 OFFCURVE",
"396 20 OFFCURVE",
"365 20 CURVE SMOOTH",
"290 20 OFFCURVE",
"220 90 OFFCURVE",
"220 350 CURVE SMOOTH",
"220 610 OFFCURVE",
"299 690 OFFCURVE",
"380 690 CURVE SMOOTH",
"447 690 OFFCURVE",
"493 646 OFFCURVE",
"521 602 CURVE SMOOTH",
"538 576 OFFCURVE",
"551 547 OFFCURVE",
"560 515 CURVE",
"600 515 LINE",
"600 705 LINE",
"575 705 LINE",
"568 701 OFFCURVE",
"562 696 OFFCURVE",
"555 691 CURVE SMOOTH",
"544 682 OFFCURVE",
"531 667 OFFCURVE",
"520 650 CURVE",
"507 662 OFFCURVE",
"493 673 OFFCURVE",
"476 682 CURVE SMOOTH",
"448 698 OFFCURVE",
"408 715 OFFCURVE",
"361 715 CURVE SMOOTH",
"174 715 OFFCURVE",
"45 585 OFFCURVE",
"45 350 CURVE SMOOTH",
"45 115 OFFCURVE",
"175 -15 OFFCURVE",
"325 -15 CURVE SMOOTH"
);
}
);
width = 700;
}
);
leftKerningGroup = O;
rightKerningGroup = C;
unicode = 0047;
},
{
color = 4;
glyphname = H;
lastChange = "2016-09-23 19:13:22 +0000";
layers = (
{
anchors = (
{
name = bottom;
position = "{383, 0}";
},
{
name = center;
position = "{383, 350}";
},
{
name = top;
position = "{383, 700}";
},
{
name = topleft;
position = "{20, 700}";
}
);
layerId = UUID0;
paths = (
{
closed = 1;
nodes = (
"335 0 LINE",
"335 15 LINE",
"275 30 LINE",
"275 335 LINE",
"490 335 LINE",
"490 30 LINE",
"430 15 LINE",
"430 0 LINE",
"715 0 LINE",
"715 15 LINE",
"655 30 LINE",
"655 670 LINE",
"715 685 LINE",
"715 700 LINE",
"430 700 LINE",
"430 685 LINE",
"490 670 LINE",
"490 360 LINE",
"275 360 LINE",
"275 670 LINE",
"335 685 LINE",
"335 700 LINE",
"50 700 LINE",
"50 685 LINE",
"110 670 LINE",
"110 30 LINE",
"50 15 LINE",
"50 0 LINE"
);
}
);
width = 765;
}
);
leftKerningGroup = H;
rightKerningGroup = H;
unicode = 0048;
},
{
color = 4;
glyphname = I;
lastChange = "2016-09-23 19:13:22 +0000";
layers = (
{
anchors = (
{
name = bottom;
position = "{193, 0}";
},
{
name = ogonek;
position = "{346, 10}";
},
{
name = top;
position = "{193, 700}";
},
{
name = topleft;
position = "{20, 700}";
}
);
layerId = UUID0;
paths = (
{
closed = 1;
nodes = (
"335 0 LINE",
"335 15 LINE",
"275 30 LINE",
"275 670 LINE",
"335 685 LINE",
"335 700 LINE",
"50 700 LINE",
"50 685 LINE",
"110 670 LINE",
"110 30 LINE",
"50 15 LINE",
"50 0 LINE"
);
}
);
width = 385;
}
);
leftKerningGroup = H;
rightKerningGroup = H;
unicode = 0049;
},
{
color = 4;
glyphname = Iogonek;
lastChange = "2016-09-23 19:13:22 +0000";
layers = (
{
layerId = UUID0;
paths = (
{
closed = 1;
nodes = (
"219 -190 OFFCURVE",
"234 -188 OFFCURVE",
"247 -183 CURVE SMOOTH",
"254 -180 OFFCURVE",
"260 -178 OFFCURVE",
"265 -175 CURVE",
"265 -145 LINE",
"261 -149 OFFCURVE",
"257 -152 OFFCURVE",
"252 -155 CURVE SMOOTH",
"244 -160 OFFCURVE",
"232 -165 OFFCURVE",
"220 -165 CURVE SMOOTH",
"193 -165 OFFCURVE",
"180 -152 OFFCURVE",
"180 -125 CURVE SMOOTH",
"180 -82 OFFCURVE",
"203 -52 OFFCURVE",
"227 -31 CURVE SMOOTH",
"241 -19 OFFCURVE",
"257 -9 OFFCURVE",
"275 0 CURVE",
"335 0 LINE",
"335 15 LINE",
"275 30 LINE",
"275 670 LINE",
"335 685 LINE",
"335 700 LINE",
"50 700 LINE",
"50 685 LINE",
"110 670 LINE",
"110 30 LINE",
"50 15 LINE",
"50 0 LINE",
"229 0 LINE",
"217 -4 OFFCURVE",
"95 -33 OFFCURVE",
"95 -115 CURVE SMOOTH",
"95 -155 OFFCURVE",
"129 -190 OFFCURVE",
"200 -190 CURVE SMOOTH"
);
}
);
width = 385;
}
);
leftKerningGroup = H;
rightKerningGroup = H;
unicode = 012E;
},
{
color = 4;
glyphname = J;
lastChange = "2016-09-23 19:13:22 +0000";
layers = (
{
anchors = (
{
name = bottom;
position = "{205, 0}";
},
{
name = top;
position = "{365, 700}";
}
);
layerId = UUID0;
paths = (
{
closed = 1;
nodes = (
"370 -15 OFFCURVE",
"450 65 OFFCURVE",
"450 200 CURVE SMOOTH",
"450 670 LINE",
"510 685 LINE",
"510 700 LINE",
"225 700 LINE",
"225 685 LINE",
"285 670 LINE",
"285 200 LINE SMOOTH",
"285 55 OFFCURVE",
"234 5 OFFCURVE",
"165 5 CURVE SMOOTH",
"151 5 OFFCURVE",
"139 7 OFFCURVE",
"129 10 CURVE SMOOTH",
"124 11 OFFCURVE",
"119 13 OFFCURVE",
"115 15 CURVE",
"115 165 LINE",
"102 167 LINE SMOOTH",
"94 168 OFFCURVE",
"86 170 OFFCURVE",
"75 170 CURVE SMOOTH",
"30 170 OFFCURVE",
"0 140 OFFCURVE",
"0 95 CURVE SMOOTH",
"0 40 OFFCURVE",
"54 -15 OFFCURVE",
"185 -15 CURVE SMOOTH"
);
}
);
width = 550;
}
);
leftKerningGroup = J;
rightKerningGroup = U;
unicode = 004A;
},
{
color = 4;
glyphname = K;
lastChange = "2016-09-23 19:13:22 +0000";
layers = (
{
anchors = (
{
name = bottom;
position = "{375, 0}";
},
{
name = top;
position = "{375, 700}";
}
);
layerId = UUID0;
paths = (
{
closed = 1;
nodes = (
"335 0 LINE",
"335 15 LINE",
"275 30 LINE",
"275 315 LINE",
"425 85 LINE",
"456 40 OFFCURVE",
"495 0 OFFCURVE",
"560 0 CURVE SMOOTH",
"700 0 LINE",
"700 15 LINE",
"650 30 LINE",
"380 440 LINE",
"555 655 LINE",
"635 685 LINE",
"635 700 LINE",
"445 700 LINE",
"445 685 LINE",
"520 655 LINE",
"275 356 LINE",
"275 670 LINE",
"335 685 LINE",
"335 700 LINE",
"50 700 LINE",
"50 685 LINE",
"110 670 LINE",
"110 30 LINE",
"50 15 LINE",
"50 0 LINE"
);
}
);
width = 690;
}
);
leftKerningGroup = H;
rightKerningGroup = K;
unicode = 004B;
},
{
color = 4;
glyphname = L;
lastChange = "2016-09-23 19:13:22 +0000";
layers = (
{
anchors = (
{
name = bottom;
position = "{305, 0}";
},
{
name = center;
position = "{305, 350}";
},
{
name = top;
position = "{305, 700}";
},
{
name = topright;
position = "{430, 700}";
}
);
layerId = UUID0;
paths = (
{
closed = 1;
nodes = (
"585 0 LINE",
"585 180 LINE",
"555 180 LINE",
"542 170 OFFCURVE",
"531 157 OFFCURVE",
"522 142 CURVE SMOOTH",
"506 115 OFFCURVE",
"490 77 OFFCURVE",
"490 25 CURVE",
"275 25 LINE",
"275 670 LINE",
"335 685 LINE",
"335 700 LINE",
"50 700 LINE",
"50 685 LINE",
"110 670 LINE",
"110 30 LINE",
"50 15 LINE",
"50 0 LINE"
);
}
);
width = 610;
}
);
leftKerningGroup = H;
rightKerningGroup = L;
unicode = 004C;
},
{
color = 4;
glyphname = Lslash;
lastChange = "2016-09-23 19:13:22 +0000";
layers = (
{
layerId = UUID0;
paths = (
{
closed = 1;
nodes = (
"595 0 LINE",
"595 180 LINE",
"565 180 LINE",
"552 170 OFFCURVE",
"541 157 OFFCURVE",
"532 142 CURVE SMOOTH",
"516 115 OFFCURVE",
"500 77 OFFCURVE",
"500 25 CURVE",
"285 25 LINE",
"285 416 LINE",
"365 465 LINE",
"365 500 LINE",
"285 451 LINE",
"285 670 LINE",
"345 685 LINE",
"345 700 LINE",
"60 700 LINE",
"60 685 LINE",
"120 670 LINE",
"120 351 LINE",
"35 300 LINE",
"35 265 LINE",
"120 316 LINE",
"120 30 LINE",
"60 15 LINE",
"60 0 LINE"
);
}
);
width = 620;
}
);
leftKerningGroup = Hbar;
rightKerningGroup = L;
unicode = 0141;
},
{
color = 4;
glyphname = M;
lastChange = "2016-09-23 19:13:22 +0000";
layers = (
{
anchors = (
{
name = bottom;
position = "{463, 0}";
},
{
name = top;
position = "{493, 700}";
}
);
layerId = UUID0;
paths = (
{
closed = 1;
nodes = (
"475 -10 LINE",
"710 575 LINE",
"710 30 LINE",
"650 15 LINE",
"650 0 LINE",
"935 0 LINE",
"935 15 LINE",
"875 30 LINE",
"875 670 LINE",
"935 685 LINE",
"935 700 LINE",
"830 700 LINE SMOOTH",
"746 700 OFFCURVE",
"716 670 OFFCURVE",
"695 615 CURVE",
"528 198 LINE",
"310 615 LINE SMOOTH",
"284 665 OFFCURVE",
"250 700 OFFCURVE",
"175 700 CURVE SMOOTH",
"50 700 LINE",
"50 685 LINE",
"110 670 LINE",
"110 45 LINE",
"30 15 LINE",
"30 0 LINE",
"220 0 LINE",
"220 15 LINE",
"140 45 LINE",
"140 575 LINE",
"445 -10 LINE"
);
}
);
width = 985;
}
);
leftKerningGroup = H;
rightKerningGroup = H;
unicode = 004D;
},
{
color = 4;
glyphname = N;
lastChange = "2016-09-23 19:13:22 +0000";
layers = (
{
anchors = (
{
name = bottom;
position = "{370, 0}";
},
{
name = top;
position = "{370, 700}";
}
);
layerId = UUID0;
paths = (
{
closed = 1;
nodes = (
"635 -15 LINE",
"635 655 LINE",
"715 685 LINE",
"715 700 LINE",
"525 700 LINE",
"525 685 LINE",
"605 655 LINE",
"605 255 LINE",
"285 630 LINE SMOOTH",
"260 660 OFFCURVE",
"225 700 OFFCURVE",
"145 700 CURVE SMOOTH",
"40 700 LINE",
"40 685 LINE",
"110 665 LINE",
"110 45 LINE",
"30 15 LINE",
"30 0 LINE",
"220 0 LINE",
"220 15 LINE",
"140 45 LINE",
"140 530 LINE",
"605 -15 LINE"
);
}
);
width = 740;
}
);
leftKerningGroup = H;
rightKerningGroup = H;
unicode = 004E;
},
{
color = 4;
glyphname = O;
lastChange = "2016-09-23 19:13:22 +0000";
layers = (
{
anchors = (
{
name = bottom;
position = "{370, 0}";
},
{
name = center;
position = "{370, 350}";
},
{
name = ogonek;
position = "{505, 10}";
},
{
name = top;
position = "{370, 700}";
},
{
name = topleft;
position = "{20, 700}";
},
{
name = topright;
position = "{620, 700}";
}
);
layerId = UUID0;
paths = (
{
closed = 1;
nodes = (
"565 -15 OFFCURVE",
"695 115 OFFCURVE",
"695 350 CURVE SMOOTH",
"695 585 OFFCURVE",
"565 715 OFFCURVE",
"370 715 CURVE SMOOTH",
"175 715 OFFCURVE",
"45 585 OFFCURVE",
"45 350 CURVE SMOOTH",
"45 115 OFFCURVE",
"175 -15 OFFCURVE",
"370 -15 CURVE SMOOTH"
);
},
{
closed = 1;
nodes = (
"300 5 OFFCURVE",
"220 85 OFFCURVE",
"220 350 CURVE SMOOTH",
"220 615 OFFCURVE",
"300 695 OFFCURVE",
"370 695 CURVE SMOOTH",
"440 695 OFFCURVE",
"520 615 OFFCURVE",
"520 350 CURVE SMOOTH",
"520 85 OFFCURVE",
"440 5 OFFCURVE",
"370 5 CURVE SMOOTH"
);
}
);
width = 740;
}
);
leftKerningGroup = O;
rightKerningGroup = O;
unicode = 004F;
},
{
color = 4;
glyphname = Oslash;
lastChange = "2016-09-23 19:13:22 +0000";
layers = (
{
anchors = (
{
name = bottom;
position = "{370, 0}";
},
{
name = top;
position = "{370, 700}";
}
);
layerId = UUID0;
paths = (
{
closed = 1;
nodes = (
"565 -15 OFFCURVE",
"695 115 OFFCURVE",
"695 350 CURVE SMOOTH",
"695 471 OFFCURVE",
"657 561 OFFCURVE",
"597 624 CURVE",
"655 700 LINE",
"620 700 LINE",
"577 644 LINE",
"522 691 OFFCURVE",
"453 715 OFFCURVE",
"370 715 CURVE SMOOTH",
"175 715 OFFCURVE",
"45 585 OFFCURVE",
"45 350 CURVE SMOOTH",
"45 229 OFFCURVE",
"83 138 OFFCURVE",
"142 75 CURVE",
"85 0 LINE",
"120 0 LINE",
"163 56 LINE",
"218 9 OFFCURVE",
"287 -15 OFFCURVE",
"370 -15 CURVE SMOOTH"
);
},
{
closed = 1;
nodes = (
"322 5 OFFCURVE",
"266 43 OFFCURVE",
"239 156 CURVE",
"508 507 LINE",
"515 464 OFFCURVE",
"520 413 OFFCURVE",
"520 350 CURVE SMOOTH",
"520 85 OFFCURVE",
"440 5 OFFCURVE",
"370 5 CURVE SMOOTH"
);
},
{
closed = 1;
nodes = (
"224 235 OFFCURVE",
"220 287 OFFCURVE",
"220 350 CURVE SMOOTH",
"220 615 OFFCURVE",
"300 695 OFFCURVE",
"370 695 CURVE SMOOTH",
"419 695 OFFCURVE",
"471 655 OFFCURVE",
"500 543 CURVE",
"232 192 LINE"
);
}
);
width = 740;
}
);
leftKerningGroup = O;
rightKerningGroup = O;
unicode = 00D8;
},
{
color = 4;
glyphname = OE;
lastChange = "2016-09-23 19:13:22 +0000";
layers = (
{
layerId = UUID0;
paths = (
{
closed = 1;
nodes = (
"945 0 LINE",
"945 180 LINE",
"915 180 LINE",
"902 170 OFFCURVE",
"891 157 OFFCURVE",
"882 142 CURVE SMOOTH",
"866 115 OFFCURVE",
"850 77 OFFCURVE",
"850 25 CURVE",
"625 25 LINE",
"625 335 LINE",
"730 335 LINE",
"735 307 OFFCURVE",
"745 283 OFFCURVE",
"756 264 CURVE SMOOTH",
"762 253 OFFCURVE",
"768 244 OFFCURVE",
"775 235 CURVE",
"805 235 LINE",
"805 460 LINE",
"775 460 LINE",
"768 451 OFFCURVE",
"762 442 OFFCURVE",
"756 431 CURVE SMOOTH",
"745 412 OFFCURVE",
"735 387 OFFCURVE",
"730 360 CURVE",
"625 360 LINE",
"625 675 LINE",
"830 675 LINE",
"830 622 OFFCURVE",
"846 585 OFFCURVE",
"862 558 CURVE SMOOTH",
"871 543 OFFCURVE",
"882 530 OFFCURVE",
"895 520 CURVE",
"925 520 LINE",
"925 700 LINE",
"415 700 LINE",
"175 700 OFFCURVE",
"45 570 OFFCURVE",
"45 350 CURVE SMOOTH",
"45 130 OFFCURVE",
"175 0 OFFCURVE",
"415 0 CURVE SMOOTH"
);
},
{
closed = 1;
nodes = (
"300 25 OFFCURVE",
"220 106 OFFCURVE",
"220 350 CURVE SMOOTH",
"220 594 OFFCURVE",
"300 675 OFFCURVE",
"415 675 CURVE SMOOTH",
"460 675 LINE",
"460 25 LINE",
"415 25 LINE SMOOTH"
);
}
);
width = 985;
}
);
leftKerningGroup = O;
rightKerningGroup = E;
unicode = 0152;
},
{
color = 4;
glyphname = P;
lastChange = "2016-09-23 19:13:22 +0000";
layers = (
{
anchors = (
{
name = bottom;
position = "{338, 0}";
},
{
name = top;
position = "{338, 700}";
}
);
layerId = UUID0;
paths = (
{
closed = 1;
nodes = (
"335 0 LINE",
"335 15 LINE",
"275 30 LINE",
"275 270 LINE",
"330 270 LINE",
"560 270 OFFCURVE",
"640 350 OFFCURVE",
"640 485 CURVE SMOOTH",
"640 620 OFFCURVE",
"560 700 OFFCURVE",
"330 700 CURVE SMOOTH",
"50 700 LINE",
"50 685 LINE",
"110 670 LINE",
"110 30 LINE",
"50 15 LINE",
"50 0 LINE"
);
},
{
closed = 1;
nodes = (
"275 675 LINE",
"330 675 LINE SMOOTH",
"410 675 OFFCURVE",
"470 614 OFFCURVE",
"470 485 CURVE SMOOTH",
"470 355 OFFCURVE",
"410 295 OFFCURVE",
"330 295 CURVE SMOOTH",
"275 295 LINE"
);
}
);
width = 675;
}
);
leftKerningGroup = H;
rightKerningGroup = P;
unicode = 0050;
},
{
color = 4;
glyphname = Thorn;
lastChange = "2016-09-23 19:13:22 +0000";
layers = (
{
layerId = UUID0;
paths = (
{
closed = 1;
nodes = (
"335 0 LINE",
"335 15 LINE",
"275 30 LINE",
"275 90 LINE",
"320 90 LINE SMOOTH",
"560 90 OFFCURVE",
"670 200 OFFCURVE",
"670 350 CURVE SMOOTH",
"670 500 OFFCURVE",
"560 610 OFFCURVE",
"320 610 CURVE SMOOTH",
"275 610 LINE",
"275 670 LINE",
"335 685 LINE",
"335 700 LINE",
"50 700 LINE",
"50 685 LINE",
"110 670 LINE",
"110 30 LINE",
"50 15 LINE",
"50 0 LINE"
);
},
{
closed = 1;
nodes = (
"275 585 LINE",
"320 585 LINE SMOOTH",
"415 585 OFFCURVE",
"495 505 OFFCURVE",
"495 350 CURVE SMOOTH",
"495 195 OFFCURVE",
"415 115 OFFCURVE",
"320 115 CURVE SMOOTH",
"275 115 LINE"
);
}
);
width = 700;
}
);
leftKerningGroup = H;
rightKerningGroup = P;
unicode = 00DE;
},
{
color = 4;
glyphname = Q;
lastChange = "2016-09-23 19:13:22 +0000";
layers = (
{
anchors = (
{
name = bottom;
position = "{370, 0}";
},
{
name = top;
position = "{370, 700}";
}
);
layerId = UUID0;
paths = (
{
closed = 1;
nodes = (
"493 -170 OFFCURVE",
"511 -168 OFFCURVE",
"524 -163 CURVE SMOOTH",
"531 -160 OFFCURVE",
"536 -158 OFFCURVE",
"540 -155 CURVE",
"530 -130 LINE",
"527 -132 OFFCURVE",
"525 -134 OFFCURVE",
"522 -135 CURVE SMOOTH",
"517 -138 OFFCURVE",
"509 -140 OFFCURVE",
"500 -140 CURVE SMOOTH",
"476 -140 OFFCURVE",
"450 -115 OFFCURVE",
"450 -5 CURVE",
"601 26 OFFCURVE",
"695 149 OFFCURVE",
"695 350 CURVE SMOOTH",
"695 585 OFFCURVE",
"565 715 OFFCURVE",
"370 715 CURVE SMOOTH",
"175 715 OFFCURVE",
"45 585 OFFCURVE",
"45 350 CURVE SMOOTH",
"45 149 OFFCURVE",
"139 26 OFFCURVE",
"290 -5 CURVE",
"290 -100 OFFCURVE",
"360 -170 OFFCURVE",
"470 -170 CURVE SMOOTH"
);
},
{
closed = 1;
nodes = (
"300 5 OFFCURVE",
"220 85 OFFCURVE",
"220 350 CURVE SMOOTH",
"220 615 OFFCURVE",
"300 695 OFFCURVE",
"370 695 CURVE SMOOTH",
"440 695 OFFCURVE",
"520 615 OFFCURVE",
"520 350 CURVE SMOOTH",
"520 85 OFFCURVE",
"440 5 OFFCURVE",
"370 5 CURVE SMOOTH"
);
}
);
width = 740;
}
);
leftKerningGroup = O;
rightKerningGroup = O;
unicode = 0051;
},
{
color = 4;
glyphname = R;
lastChange = "2016-09-23 19:13:22 +0000";
layers = (
{
anchors = (
{
name = bottom;
position = "{350, 0}";
},
{
name = top;
position = "{350, 700}";
}
);
layerId = UUID0;
paths = (
{
closed = 1;
nodes = (
"345 0 LINE",
"345 15 LINE",
"275 30 LINE",
"275 310 LINE",
"340 310 LINE",
"440 85 LINE SMOOTH",
"463 34 OFFCURVE",
"500 0 OFFCURVE",
"560 0 CURVE SMOOTH",
"700 0 LINE",
"700 15 LINE",
"650 30 LINE",
"560 230 LINE SMOOTH",
"540 275 OFFCURVE",
"500 298 OFFCURVE",
"465 309 CURVE SMOOTH",
"444 316 OFFCURVE",
"423 319 OFFCURVE",
"400 320 CURVE",
"400 325 LINE",
"443 326 OFFCURVE",
"482 334 OFFCURVE",
"517 347 CURVE SMOOTH",
"577 369 OFFCURVE",
"635 415 OFFCURVE",
"635 505 CURVE SMOOTH",
"635 620 OFFCURVE",
"554 700 OFFCURVE",
"315 700 CURVE SMOOTH",
"50 700 LINE",
"50 685 LINE",
"110 670 LINE",
"110 30 LINE",
"50 15 LINE",
"50 0 LINE"
);
},
{
closed = 1;
nodes = (
"275 675 LINE",
"315 675 LINE SMOOTH",
"406 675 OFFCURVE",
"465 616 OFFCURVE",
"465 505 CURVE SMOOTH",
"465 394 OFFCURVE",
"406 335 OFFCURVE",
"315 335 CURVE SMOOTH",
"275 335 LINE"
);
}
);
width = 700;
}
);
leftKerningGroup = H;
rightKerningGroup = R;
unicode = 0052;
},
{
color = 4;
glyphname = S;
lastChange = "2016-09-23 19:13:22 +0000";
layers = (
{
anchors = (
{
name = bottom;
position = "{298, 0}";
},
{
name = top;
position = "{298, 700}";
}
);
layerId = UUID0;
paths = (
{
closed = 1;
nodes = (
"480 -15 OFFCURVE",
"570 75 OFFCURVE",
"570 180 CURVE SMOOTH",
"570 399 OFFCURVE",
"215 411 OFFCURVE",
"215 580 CURVE SMOOTH",
"215 645 OFFCURVE",
"260 690 OFFCURVE",
"310 690 CURVE SMOOTH",
"377 690 OFFCURVE",
"423 646 OFFCURVE",
"451 602 CURVE SMOOTH",
"468 576 OFFCURVE",
"481 547 OFFCURVE",
"490 515 CURVE",
"530 515 LINE",
"530 705 LINE",
"505 705 LINE",
"498 701 OFFCURVE",
"492 696 OFFCURVE",
"485 691 CURVE SMOOTH",
"474 682 OFFCURVE",
"461 667 OFFCURVE",
"450 650 CURVE",
"437 662 OFFCURVE",
"423 673 OFFCURVE",
"406 682 CURVE SMOOTH",
"378 698 OFFCURVE",
"337 715 OFFCURVE",
"290 715 CURVE SMOOTH",
"125 715 OFFCURVE",
"45 635 OFFCURVE",
"45 540 CURVE SMOOTH",
"45 300 OFFCURVE",
"400 291 OFFCURVE",
"400 135 CURVE SMOOTH",
"400 59 OFFCURVE",
"351 10 OFFCURVE",
"275 10 CURVE SMOOTH",
"197 10 OFFCURVE",
"148 53 OFFCURVE",
"117 97 CURVE SMOOTH",
"99 123 OFFCURVE",
"85 152 OFFCURVE",
"75 185 CURVE",
"35 185 LINE",
"35 -5 LINE",
"60 -5 LINE",
"67 -1 OFFCURVE",
"73 4 OFFCURVE",
"80 9 CURVE SMOOTH",
"91 18 OFFCURVE",
"104 31 OFFCURVE",
"115 50 CURVE",
"128 37 OFFCURVE",
"144 26 OFFCURVE",
"162 17 CURVE SMOOTH",
"193 1 OFFCURVE",
"236 -15 OFFCURVE",
"295 -15 CURVE SMOOTH"
);
}
);
width = 595;
}
);
leftKerningGroup = S;
rightKerningGroup = S;
unicode = 0053;
},
{
color = 4;
glyphname = T;
lastChange = "2016-09-23 19:13:22 +0000";
layers = (
{
anchors = (
{
name = bottom;
position = "{318, 0}";
},
{
name = center;
position = "{318, 350}";
},
{
name = top;
position = "{318, 700}";
}
);
layerId = UUID0;
paths = (
{
closed = 1;
nodes = (
"460 0 LINE",
"460 15 LINE",
"400 30 LINE",
"400 675 LINE",
"515 675 LINE",
"515 622 OFFCURVE",
"531 585 OFFCURVE",
"547 558 CURVE SMOOTH",
"556 543 OFFCURVE",
"567 530 OFFCURVE",
"580 520 CURVE",
"610 520 LINE",
"610 700 LINE",
"25 700 LINE",
"25 520 LINE",
"55 520 LINE",
"67 530 OFFCURVE",
"78 543 OFFCURVE",
"87 558 CURVE SMOOTH",
"103 585 OFFCURVE",
"120 622 OFFCURVE",
"120 675 CURVE",
"235 675 LINE",
"235 30 LINE",
"175 15 LINE",
"175 0 LINE"
);
}
);
width = 635;
}
);
leftKerningGroup = T;
rightKerningGroup = T;
unicode = 0054;
},
{
color = 4;
glyphname = U;
lastChange = "2016-09-23 19:13:22 +0000";
layers = (
{
anchors = (
{
name = bottom;
position = "{395, 0}";
},
{
name = ogonek;
position = "{500, 10}";
},
{
name = top;
position = "{415, 700}";
},
{
name = topright;
position = "{690, 700}";
}
);
layerId = UUID0;
paths = (
{
closed = 1;
nodes = (
"526 -15 OFFCURVE",
"625 85 OFFCURVE",
"625 250 CURVE SMOOTH",
"625 655 LINE",
"705 685 LINE",
"705 700 LINE",
"515 700 LINE",
"515 685 LINE",
"595 655 LINE",
"595 250 LINE SMOOTH",
"595 101 OFFCURVE",
"505 10 OFFCURVE",
"415 10 CURVE SMOOTH",
"320 10 OFFCURVE",
"260 70 OFFCURVE",
"260 250 CURVE SMOOTH",
"260 670 LINE",
"320 685 LINE",
"320 700 LINE",
"35 700 LINE",
"35 685 LINE",
"95 670 LINE",
"95 250 LINE SMOOTH",
"95 85 OFFCURVE",
"195 -15 OFFCURVE",
"395 -15 CURVE SMOOTH"
);
}
);
width = 710;
}
);
leftKerningGroup = U;
rightKerningGroup = U;
unicode = 0055;
},
{
color = 4;
glyphname = V;
lastChange = "2016-09-23 19:13:22 +0000";
layers = (
{
anchors = (
{
name = bottom;
position = "{333, 0}";
},
{
name = top;
position = "{353, 700}";
}
);
layerId = UUID0;
paths = (
{
closed = 1;
nodes = (
"360 -10 LINE",
"605 655 LINE",
"685 685 LINE",
"685 700 LINE",
"500 700 LINE",
"500 685 LINE",
"575 655 LINE",
"412 212 LINE",
"235 615 LINE SMOOTH",
"215 660 OFFCURVE",
"175 700 OFFCURVE",
"100 700 CURVE SMOOTH",
"-20 700 LINE",
"-20 685 LINE",
"30 670 LINE",
"330 -10 LINE"
);
}
);
width = 665;
}
);
leftKerningGroup = V;
rightKerningGroup = V;
unicode = 0056;
},
{
color = 4;
glyphname = W;
lastChange = "2016-09-23 19:13:22 +0000";
layers = (
{
anchors = (
{
name = bottom;
position = "{493, 0}";
},
{
name = top;
position = "{493, 700}";
}
);
layerId = UUID0;
paths = (
{
closed = 1;
nodes = (
"335 -10 LINE",
"490 447 LINE",
"670 -10 LINE",
"700 -10 LINE",
"925 655 LINE",
"1005 685 LINE",
"1005 700 LINE",
"820 700 LINE",
"820 685 LINE",
"895 655 LINE",
"751 230 LINE",
"600 615 LINE",
"581 660 OFFCURVE",
"541 700 OFFCURVE",
"465 700 CURVE SMOOTH",
"345 700 LINE",
"345 685 LINE",
"400 675 LINE",
"474 488 LINE",
"386 230 LINE",
"235 615 LINE SMOOTH",
"218 660 OFFCURVE",
"176 700 OFFCURVE",
"100 700 CURVE SMOOTH",
"-20 700 LINE",
"-20 685 LINE",
"35 675 LINE",
"305 -10 LINE"
);
}
);
width = 985;
}
);
leftKerningGroup = V;
rightKerningGroup = V;
unicode = 0057;
},
{
color = 4;
glyphname = X;
lastChange = "2016-09-23 19:13:22 +0000";
layers = (
{
anchors = (
{
name = bottom;
position = "{333, 0}";
},
{
name = top;
position = "{333, 700}";
}
);
layerId = UUID0;
paths = (
{
closed = 1;
nodes = (
"205 0 LINE",
"205 15 LINE",
"130 45 LINE",
"282 268 LINE",
"390 85 LINE SMOOTH",
"421 34 OFFCURVE",
"454 0 OFFCURVE",
"525 0 CURVE SMOOTH",
"670 0 LINE",
"670 15 LINE",
"620 30 LINE",
"388 424 LINE",
"545 655 LINE",
"625 685 LINE",
"625 700 LINE",
"435 700 LINE",
"435 685 LINE",
"510 655 LINE",
"371 451 LINE",
"275 615 LINE",
"244 666 OFFCURVE",
"211 700 OFFCURVE",
"140 700 CURVE SMOOTH",
"-5 700 LINE",
"-5 685 LINE",
"45 670 LINE",
"265 296 LINE",
"95 45 LINE",
"15 15 LINE",
"15 0 LINE"
);
}
);
width = 665;
}
);
leftKerningGroup = X;
rightKerningGroup = X;
unicode = 0058;
},
{
color = 4;
glyphname = Y;
lastChange = "2016-09-23 19:13:22 +0000";
layers = (
{
anchors = (
{
name = bottom;
position = "{333, 0}";
},
{
name = top;
position = "{333, 700}";
},
{
name = topleft;
position = "{20, 700}";
}
);
layerId = UUID0;
paths = (
{
closed = 1;
nodes = (
"480 0 LINE",
"480 15 LINE",
"420 30 LINE",
"420 270 LINE",
"595 655 LINE",
"675 685 LINE",
"675 700 LINE",
"485 700 LINE",
"485 685 LINE",
"560 655 LINE",
"408 320 LINE",
"260 615 LINE",
"236 665 OFFCURVE",
"198 700 OFFCURVE",
"125 700 CURVE SMOOTH",
"0 700 LINE",
"0 685 LINE",
"50 670 LINE",
"255 260 LINE",
"255 30 LINE",
"195 15 LINE",
"195 0 LINE"
);
}
);
width = 665;
}
);
leftKerningGroup = Y;
rightKerningGroup = Y;
unicode = 0059;
},
{
color = 4;
glyphname = Z;
lastChange = "2016-09-23 19:13:22 +0000";
layers = (
{
anchors = (
{
name = bottom;
position = "{318, 0}";
},
{
name = top;
position = "{318, 700}";
}
);
layerId = UUID0;
paths = (
{
closed = 1;
nodes = (
"590 0 LINE",
"590 180 LINE",
"560 180 LINE",
"547 170 OFFCURVE",
"536 157 OFFCURVE",
"527 142 CURVE SMOOTH",
"511 115 OFFCURVE",
"495 77 OFFCURVE",
"495 25 CURVE",
"225 25 LINE",
"595 675 LINE",
"595 700 LINE",
"55 700 LINE",
"55 520 LINE",
"85 520 LINE",
"97 530 OFFCURVE",
"108 543 OFFCURVE",
"117 558 CURVE SMOOTH",
"133 585 OFFCURVE",
"150 622 OFFCURVE",
"150 675 CURVE",
"411 675 LINE",
"40 25 LINE",
"40 0 LINE"
);
}
);
width = 635;
}
);
leftKerningGroup = Z;
rightKerningGroup = Z;
unicode = 005A;
},
{
color = 4;
glyphname = a;
lastChange = "2016-09-23 19:13:22 +0000";
layers = (
{
anchors = (
{
name = bottom;
position = "{283, 0}";
},
{
name = ogonek;
position = "{585, 0}";
},
{
name = top;
position = "{303, 500}";
}
);
layerId = UUID0;
paths = (
{
closed = 1;
nodes = (
"287 -15 OFFCURVE",
"324 7 OFFCURVE",
"347 30 CURVE SMOOTH",
"360 43 OFFCURVE",
"371 58 OFFCURVE",
"380 75 CURVE",
"385 61 OFFCURVE",
"392 48 OFFCURVE",
"402 37 CURVE SMOOTH",
"419 18 OFFCURVE",
"447 0 OFFCURVE",
"495 0 CURVE SMOOTH",
"585 0 LINE",
"585 15 LINE",
"525 30 LINE",
"525 300 LINE SMOOTH",
"525 425 OFFCURVE",
"435 515 OFFCURVE",
"275 515 CURVE SMOOTH",
"144 515 OFFCURVE",
"90 460 OFFCURVE",
"90 405 CURVE SMOOTH",
"90 360 OFFCURVE",
"120 330 OFFCURVE",
"165 330 CURVE SMOOTH",
"176 330 OFFCURVE",
"184 331 OFFCURVE",
"192 332 CURVE SMOOTH",
"205 335 LINE",
"205 485 LINE",
"219 490 LINE SMOOTH",
"228 493 OFFCURVE",
"240 495 OFFCURVE",
"255 495 CURVE SMOOTH",
"324 495 OFFCURVE",
"365 456 OFFCURVE",
"365 300 CURVE SMOOTH",
"365 270 LINE",
"297 267 OFFCURVE",
"227 257 OFFCURVE",
"174 248 CURVE SMOOTH",
"143 243 OFFCURVE",
"113 237 OFFCURVE",
"85 230 CURVE",
"78 220 OFFCURVE",
"72 209 OFFCURVE",
"67 197 CURVE SMOOTH",
"58 177 OFFCURVE",
"50 151 OFFCURVE",
"50 120 CURVE SMOOTH",
"50 45 OFFCURVE",
"111 -15 OFFCURVE",
"235 -15 CURVE SMOOTH"
);
},
{
closed = 1;
nodes = (
"244 20 OFFCURVE",
"215 50 OFFCURVE",
"215 130 CURVE SMOOTH",
"215 161 OFFCURVE",
"220 186 OFFCURVE",
"225 205 CURVE SMOOTH",
"228 216 OFFCURVE",
"231 226 OFFCURVE",
"235 235 CURVE",
"248 236 OFFCURVE",
"262 238 OFFCURVE",
"277 240 CURVE SMOOTH",
"302 243 OFFCURVE",
"334 245 OFFCURVE",
"365 245 CURVE",
"365 100 LINE",
"358 85 OFFCURVE",
"351 72 OFFCURVE",
"342 60 CURVE SMOOTH",
"327 40 OFFCURVE",
"306 20 OFFCURVE",
"275 20 CURVE SMOOTH"
);
}
);
width = 605;
}
);
leftKerningGroup = a;
rightKerningGroup = n;
unicode = 0061;
},
{
color = 4;
glyphname = aogonek;
lastChange = "2016-09-23 19:13:22 +0000";
layers = (
{
layerId = UUID0;
paths = (
{
closed = 1;
nodes = (
"529 -190 OFFCURVE",
"544 -188 OFFCURVE",
"557 -183 CURVE SMOOTH",
"564 -180 OFFCURVE",
"570 -178 OFFCURVE",
"575 -175 CURVE",
"575 -145 LINE",
"571 -149 OFFCURVE",
"567 -152 OFFCURVE",
"562 -155 CURVE SMOOTH",
"554 -160 OFFCURVE",
"542 -165 OFFCURVE",
"530 -165 CURVE SMOOTH",
"503 -165 OFFCURVE",
"490 -152 OFFCURVE",
"490 -125 CURVE SMOOTH",
"490 -82 OFFCURVE",
"513 -52 OFFCURVE",
"537 -31 CURVE SMOOTH",
"551 -19 OFFCURVE",
"567 -9 OFFCURVE",
"585 0 CURVE",
"585 15 LINE",
"525 30 LINE",
"525 300 LINE SMOOTH",
"525 425 OFFCURVE",
"435 515 OFFCURVE",
"275 515 CURVE SMOOTH",
"144 515 OFFCURVE",
"90 460 OFFCURVE",
"90 405 CURVE SMOOTH",
"90 360 OFFCURVE",
"120 330 OFFCURVE",
"165 330 CURVE SMOOTH",
"176 330 OFFCURVE",
"184 331 OFFCURVE",
"192 332 CURVE SMOOTH",
"205 335 LINE",
"205 485 LINE",
"219 490 LINE SMOOTH",
"228 493 OFFCURVE",
"240 495 OFFCURVE",
"255 495 CURVE SMOOTH",
"324 495 OFFCURVE",
"365 456 OFFCURVE",
"365 300 CURVE SMOOTH",
"365 270 LINE",
"297 267 OFFCURVE",
"227 257 OFFCURVE",
"174 248 CURVE SMOOTH",
"143 243 OFFCURVE",
"113 237 OFFCURVE",
"85 230 CURVE",
"78 220 OFFCURVE",
"72 209 OFFCURVE",
"67 197 CURVE SMOOTH",
"58 177 OFFCURVE",
"50 151 OFFCURVE",
"50 120 CURVE SMOOTH",
"50 45 OFFCURVE",
"111 -15 OFFCURVE",
"235 -15 CURVE SMOOTH",
"337 -15 OFFCURVE",
"380 71 OFFCURVE",
"380 74 CURVE",
"382 67 OFFCURVE",
"404 0 OFFCURVE",
"495 0 CURVE SMOOTH",
"539 0 LINE",
"527 -4 OFFCURVE",
"405 -33 OFFCURVE",
"405 -115 CURVE SMOOTH",
"405 -155 OFFCURVE",
"439 -190 OFFCURVE",
"510 -190 CURVE SMOOTH"
);
},
{
closed = 1;
nodes = (
"244 20 OFFCURVE",
"215 50 OFFCURVE",
"215 130 CURVE SMOOTH",
"215 161 OFFCURVE",
"220 186 OFFCURVE",
"225 205 CURVE SMOOTH",
"228 216 OFFCURVE",
"231 226 OFFCURVE",
"235 235 CURVE",
"248 236 OFFCURVE",
"262 238 OFFCURVE",
"277 240 CURVE SMOOTH",
"302 243 OFFCURVE",
"334 245 OFFCURVE",
"365 245 CURVE",
"365 100 LINE",
"358 85 OFFCURVE",
"351 72 OFFCURVE",
"342 60 CURVE SMOOTH",
"327 40 OFFCURVE",
"306 20 OFFCURVE",
"275 20 CURVE SMOOTH"
);
}
);
width = 605;
}
);
leftKerningGroup = a;
rightKerningGroup = n;
unicode = 0105;
},
{
color = 4;
glyphname = ae;
lastChange = "2016-09-23 19:13:22 +0000";
layers = (
{
layerId = UUID0;
paths = (
{
closed = 1;
nodes = (
"320 -15 OFFCURVE",
"368 8 OFFCURVE",
"401 32 CURVE SMOOTH",
"420 46 OFFCURVE",
"436 62 OFFCURVE",
"450 80 CURVE",
"459 62 OFFCURVE",
"472 46 OFFCURVE",
"489 32 CURVE SMOOTH",
"517 8 OFFCURVE",
"562 -15 OFFCURVE",
"630 -15 CURVE SMOOTH",
"745 -15 OFFCURVE",
"820 60 OFFCURVE",
"820 140 CURVE",
"795 140 LINE",
"795 75 OFFCURVE",
"730 10 OFFCURVE",
"650 10 CURVE SMOOTH",
"581 10 OFFCURVE",
"533 57 OFFCURVE",
"530 213 CURVE SMOOTH",
"530 235 LINE",
"610 235 OFFCURVE",
"686 242 OFFCURVE",
"742 250 CURVE SMOOTH",
"775 254 OFFCURVE",
"806 259 OFFCURVE",
"835 265 CURVE",
"840 279 LINE SMOOTH",
"843 288 OFFCURVE",
"845 300 OFFCURVE",
"845 315 CURVE SMOOTH",
"845 424 OFFCURVE",
"754 515 OFFCURVE",
"615 515 CURVE SMOOTH",
"555 515 OFFCURVE",
"514 493 OFFCURVE",
"487 470 CURVE SMOOTH",
"472 457 OFFCURVE",
"459 442 OFFCURVE",
"450 425 CURVE",
"440 442 OFFCURVE",
"427 457 OFFCURVE",
"411 470 CURVE SMOOTH",
"383 493 OFFCURVE",
"340 515 OFFCURVE",
"275 515 CURVE SMOOTH",
"144 515 OFFCURVE",
"90 460 OFFCURVE",
"90 405 CURVE SMOOTH",
"90 360 OFFCURVE",
"120 330 OFFCURVE",
"165 330 CURVE SMOOTH",
"176 330 OFFCURVE",
"184 331 OFFCURVE",
"192 332 CURVE SMOOTH",
"205 335 LINE",
"205 485 LINE",
"219 490 LINE SMOOTH",
"228 493 OFFCURVE",
"240 495 OFFCURVE",
"255 495 CURVE SMOOTH",
"324 495 OFFCURVE",
"365 456 OFFCURVE",
"365 300 CURVE SMOOTH",
"365 260 LINE",
"297 257 OFFCURVE",
"227 247 OFFCURVE",
"174 238 CURVE SMOOTH",
"143 233 OFFCURVE",
"113 227 OFFCURVE",
"85 220 CURVE",
"78 211 OFFCURVE",
"72 202 OFFCURVE",
"67 192 CURVE SMOOTH",
"58 173 OFFCURVE",
"50 151 OFFCURVE",
"50 120 CURVE SMOOTH",
"50 45 OFFCURVE",
"110 -15 OFFCURVE",
"255 -15 CURVE SMOOTH"
);
},
{
closed = 1;
nodes = (
"244 10 OFFCURVE",
"215 40 OFFCURVE",
"215 120 CURVE SMOOTH",
"215 151 OFFCURVE",
"220 176 OFFCURVE",
"225 195 CURVE SMOOTH",
"228 206 OFFCURVE",
"231 216 OFFCURVE",
"235 225 CURVE",
"248 226 OFFCURVE",
"262 228 OFFCURVE",
"277 230 CURVE SMOOTH",
"302 233 OFFCURVE",
"334 235 OFFCURVE",
"365 235 CURVE",
"365 105 LINE",
"360 87 OFFCURVE",
"354 71 OFFCURVE",
"346 57 CURVE SMOOTH",
"331 33 OFFCURVE",
"310 10 OFFCURVE",
"275 10 CURVE SMOOTH"
);
},
{
closed = 1;
nodes = (
"530 265 LINE",
"533 457 OFFCURVE",
"570 495 OFFCURVE",
"605 495 CURVE SMOOTH",
"640 495 OFFCURVE",
"680 455 OFFCURVE",
"680 335 CURVE SMOOTH",
"680 320 OFFCURVE",
"678 303 OFFCURVE",
"675 291 CURVE SMOOTH",
"673 284 OFFCURVE",
"671 277 OFFCURVE",
"670 270 CURVE",
"660 268 OFFCURVE",
"648 266 OFFCURVE",
"634 265 CURVE SMOOTH",
"610 262 OFFCURVE",
"575 260 OFFCURVE",
"530 260 CURVE"
);
}
);
width = 880;
}
);
leftKerningGroup = a;
rightKerningGroup = e;
unicode = 00E6;
},
{
color = 4;
glyphname = b;
lastChange = "2016-09-23 19:13:22 +0000";
layers = (
{
anchors = (
{
name = bottom;
position = "{358, 0}";
},
{
name = top;
position = "{348, 500}";
}
);
layerId = UUID0;
paths = (
{
closed = 1;
nodes = (
"485 -15 OFFCURVE",
"575 75 OFFCURVE",
"575 250 CURVE SMOOTH",
"575 425 OFFCURVE",
"486 515 OFFCURVE",
"355 515 CURVE SMOOTH",
"320 515 OFFCURVE",
"291 506 OFFCURVE",
"271 495 CURVE SMOOTH",
"259 489 OFFCURVE",
"249 482 OFFCURVE",
"240 475 CURVE",
"240 610 LINE SMOOTH",
"240 670 OFFCURVE",
"210 700 OFFCURVE",
"150 700 CURVE SMOOTH",
"20 700 LINE",
"20 685 LINE",
"80 670 LINE",
"80 -5 LINE",
"90 -5 LINE SMOOTH",
"147 -5 OFFCURVE",
"182 15 OFFCURVE",
"201 35 CURVE SMOOTH",
"212 47 OFFCURVE",
"220 60 OFFCURVE",
"225 75 CURVE",
"234 58 OFFCURVE",
"245 43 OFFCURVE",
"258 30 CURVE SMOOTH",
"281 7 OFFCURVE",
"317 -15 OFFCURVE",
"370 -15 CURVE SMOOTH"
);
},
{
closed = 1;
nodes = (
"299 20 OFFCURVE",
"277 40 OFFCURVE",
"262 60 CURVE SMOOTH",
"253 72 OFFCURVE",
"246 85 OFFCURVE",
"240 100 CURVE",
"240 445 LINE",
"247 452 OFFCURVE",
"254 459 OFFCURVE",
"262 465 CURVE SMOOTH",
"277 476 OFFCURVE",
"295 485 OFFCURVE",
"315 485 CURVE SMOOTH",
"366 485 OFFCURVE",
"405 445 OFFCURVE",
"405 250 CURVE SMOOTH",
"405 60 OFFCURVE",
"365 20 OFFCURVE",
"330 20 CURVE SMOOTH"
);
}
);
width = 615;
}
);
leftKerningGroup = h;
rightKerningGroup = o;
unicode = 0062;
},
{
color = 4;
glyphname = c;
lastChange = "2016-09-23 19:13:22 +0000";
layers = (
{
anchors = (
{
name = bottom;
position = "{305, 0}";
},
{
name = top;
position = "{315, 500}";
}
);
layerId = UUID0;
paths = (
{
closed = 1;
nodes = (
"425 -15 OFFCURVE",
"500 60 OFFCURVE",
"500 140 CURVE",
"475 140 LINE",
"475 75 OFFCURVE",
"410 10 OFFCURVE",
"330 10 CURVE SMOOTH",
"261 10 OFFCURVE",
"210 61 OFFCURVE",
"210 250 CURVE SMOOTH",
"210 445 OFFCURVE",
"261 495 OFFCURVE",
"330 495 CURVE SMOOTH",
"345 495 OFFCURVE",
"357 493 OFFCURVE",
"366 490 CURVE SMOOTH",
"380 485 LINE",
"380 335 LINE",
"392 332 LINE SMOOTH",
"399 331 OFFCURVE",
"409 330 OFFCURVE",
"420 330 CURVE SMOOTH",
"465 330 OFFCURVE",
"495 360 OFFCURVE",
"495 405 CURVE SMOOTH",
"495 460 OFFCURVE",
"441 515 OFFCURVE",
"310 515 CURVE SMOOTH",
"139 515 OFFCURVE",
"40 415 OFFCURVE",
"40 250 CURVE SMOOTH",
"40 85 OFFCURVE",
"139 -15 OFFCURVE",
"310 -15 CURVE SMOOTH"
);
}
);
width = 530;
}
);
leftKerningGroup = o;
rightKerningGroup = c;
unicode = 0063;
},
{
color = 4;
glyphname = ccedilla;
lastChange = "2016-09-23 19:13:22 +0000";
layers = (
{
layerId = UUID0;
paths = (
{
closed = 1;
nodes = (
"366 -200 OFFCURVE",
"400 -165 OFFCURVE",
"400 -125 CURVE SMOOTH",
"400 -85 OFFCURVE",
"365 -50 OFFCURVE",
"305 -50 CURVE",
"305 -15 LINE",
"310 -15 LINE SMOOTH",
"425 -15 OFFCURVE",
"500 60 OFFCURVE",
"500 140 CURVE",
"475 140 LINE",
"475 75 OFFCURVE",
"410 10 OFFCURVE",
"330 10 CURVE SMOOTH",
"261 10 OFFCURVE",
"210 61 OFFCURVE",
"210 250 CURVE SMOOTH",
"210 445 OFFCURVE",
"261 495 OFFCURVE",
"330 495 CURVE SMOOTH",
"345 495 OFFCURVE",
"357 493 OFFCURVE",
"366 490 CURVE SMOOTH",
"380 485 LINE",
"380 335 LINE",
"392 332 LINE SMOOTH",
"399 331 OFFCURVE",
"409 330 OFFCURVE",
"420 330 CURVE SMOOTH",
"465 330 OFFCURVE",
"495 360 OFFCURVE",
"495 405 CURVE SMOOTH",
"495 460 OFFCURVE",
"441 515 OFFCURVE",
"310 515 CURVE SMOOTH",
"139 515 OFFCURVE",
"40 415 OFFCURVE",
"40 250 CURVE SMOOTH",
"40 98 OFFCURVE",
"125 0 OFFCURVE",
"270 -13 CURVE",
"270 -75 LINE",
"305 -75 OFFCURVE",
"325 -94 OFFCURVE",
"325 -125 CURVE SMOOTH",
"325 -156 OFFCURVE",
"306 -175 OFFCURVE",
"275 -175 CURVE SMOOTH",
"264 -175 OFFCURVE",
"256 -173 OFFCURVE",
"249 -170 CURVE SMOOTH",
"245 -169 OFFCURVE",
"242 -167 OFFCURVE",
"239 -165 CURVE",
"239 -195 LINE",
"256 -198 LINE",
"267 -199 OFFCURVE",
"280 -200 OFFCURVE",
"295 -200 CURVE SMOOTH"
);
}
);
width = 530;
}
);
leftKerningGroup = o;
rightKerningGroup = c;
unicode = 00E7;
},
{
color = 4;
glyphname = d;
lastChange = "2016-09-23 19:13:22 +0000";
layers = (
{
anchors = (
{
name = bottom;
position = "{310, 0}";
},
{
name = center;
position = "{310, 250}";
},
{
name = top;
position = "{310, 500}";
},
{
name = topright;
position = "{600, 500}";
}
);
layerId = UUID0;
paths = (
{
closed = 1;
nodes = (
"297 -15 OFFCURVE",
"334 7 OFFCURVE",
"357 30 CURVE SMOOTH",
"370 43 OFFCURVE",
"381 58 OFFCURVE",
"390 75 CURVE",
"395 61 OFFCURVE",
"402 48 OFFCURVE",
"412 37 CURVE SMOOTH",
"429 18 OFFCURVE",
"457 0 OFFCURVE",
"505 0 CURVE SMOOTH",
"595 0 LINE",
"595 15 LINE",
"535 30 LINE",
"535 610 LINE SMOOTH",
"535 670 OFFCURVE",
"505 700 OFFCURVE",
"445 700 CURVE SMOOTH",
"315 700 LINE",
"315 685 LINE",
"375 670 LINE",
"375 475 LINE",
"366 482 OFFCURVE",
"356 489 OFFCURVE",
"344 495 CURVE SMOOTH",
"324 506 OFFCURVE",
"295 515 OFFCURVE",
"260 515 CURVE SMOOTH",
"129 515 OFFCURVE",
"40 425 OFFCURVE",
"40 250 CURVE SMOOTH",
"40 75 OFFCURVE",
"130 -15 OFFCURVE",
"245 -15 CURVE SMOOTH"
);
},
{
closed = 1;
nodes = (
"250 20 OFFCURVE",
"210 60 OFFCURVE",
"210 250 CURVE SMOOTH",
"210 445 OFFCURVE",
"249 485 OFFCURVE",
"300 485 CURVE SMOOTH",
"320 485 OFFCURVE",
"337 476 OFFCURVE",
"352 465 CURVE SMOOTH",
"360 459 OFFCURVE",
"368 452 OFFCURVE",
"375 445 CURVE",
"375 100 LINE",
"368 85 OFFCURVE",
"361 72 OFFCURVE",
"352 60 CURVE SMOOTH",
"337 40 OFFCURVE",
"316 20 OFFCURVE",
"285 20 CURVE SMOOTH"
);
}
);
width = 620;
}
);
leftKerningGroup = o;
rightKerningGroup = d;
unicode = 0064;
},
{
color = 4;
glyphname = eth;
lastChange = "2016-09-23 19:13:22 +0000";
layers = (
{
layerId = UUID0;
paths = (
{
closed = 1;
nodes = (
"466 -15 OFFCURVE",
"565 85 OFFCURVE",
"565 270 CURVE SMOOTH",
"565 471 OFFCURVE",
"486 599 OFFCURVE",
"350 659 CURVE",
"388 729 LINE",
"367 742 LINE",
"327 669 LINE",
"271 689 OFFCURVE",
"209 700 OFFCURVE",
"137 700 CURVE",
"137 680 LINE",
"201 680 OFFCURVE",
"256 661 OFFCURVE",
"302 623 CURVE",
"258 543 LINE",
"279 530 LINE",
"320 605 LINE",
"368 554 OFFCURVE",
"400 492 OFFCURVE",
"405 400 CURVE",
"396 413 OFFCURVE",
"386 426 OFFCURVE",
"373 437 CURVE SMOOTH",
"350 456 OFFCURVE",
"317 475 OFFCURVE",
"270 475 CURVE SMOOTH",
"134 475 OFFCURVE",
"35 376 OFFCURVE",
"35 230 CURVE SMOOTH",
"35 85 OFFCURVE",
"135 -15 OFFCURVE",
"299 -15 CURVE SMOOTH"
);
},
{
closed = 1;
nodes = (
"255 5 OFFCURVE",
"205 55 OFFCURVE",
"205 230 CURVE SMOOTH",
"205 405 OFFCURVE",
"255 455 OFFCURVE",
"289 455 CURVE SMOOTH",
"345 455 OFFCURVE",
"395 400 OFFCURVE",
"395 240 CURVE SMOOTH",
"395 230 LINE SMOOTH",
"395 55 OFFCURVE",
"345 5 OFFCURVE",
"299 5 CURVE SMOOTH"
);
}
);
width = 605;
}
);
leftKerningGroup = o;
rightKerningGroup = o;
unicode = 00F0;
},
{
color = 4;
glyphname = dcroat;
lastChange = "2016-09-23 19:13:22 +0000";
layers = (
{
layerId = UUID0;
paths = (
{
closed = 1;
nodes = (
"297 -15 OFFCURVE",
"334 7 OFFCURVE",
"357 30 CURVE SMOOTH",
"370 43 OFFCURVE",
"381 58 OFFCURVE",
"390 75 CURVE",
"395 61 OFFCURVE",
"402 48 OFFCURVE",
"412 37 CURVE SMOOTH",
"429 18 OFFCURVE",
"457 0 OFFCURVE",
"505 0 CURVE SMOOTH",
"595 0 LINE",
"595 15 LINE",
"535 30 LINE",
"535 560 LINE",
"600 560 LINE",
"600 590 LINE",
"535 590 LINE",
"535 610 LINE SMOOTH",
"535 670 OFFCURVE",
"505 700 OFFCURVE",
"445 700 CURVE SMOOTH",
"315 700 LINE",
"315 685 LINE",
"375 670 LINE",
"375 590 LINE",
"250 590 LINE",
"250 560 LINE",
"375 560 LINE",
"375 455 LINE",
"366 462 OFFCURVE",
"356 469 OFFCURVE",
"344 475 CURVE SMOOTH",
"324 486 OFFCURVE",
"295 495 OFFCURVE",
"260 495 CURVE SMOOTH",
"129 495 OFFCURVE",
"40 405 OFFCURVE",
"40 240 CURVE SMOOTH",
"40 75 OFFCURVE",
"130 -15 OFFCURVE",
"245 -15 CURVE SMOOTH"
);
},
{
closed = 1;
nodes = (
"250 20 OFFCURVE",
"210 60 OFFCURVE",
"210 240 CURVE SMOOTH",
"210 425 OFFCURVE",
"249 465 OFFCURVE",
"300 465 CURVE",
"340 464 OFFCURVE",
"375 424 OFFCURVE",
"375 425 CURVE",
"375 100 LINE",
"368 85 OFFCURVE",
"361 72 OFFCURVE",
"352 60 CURVE SMOOTH",
"337 40 OFFCURVE",
"316 20 OFFCURVE",
"285 20 CURVE SMOOTH"
);
}
);
width = 625;
}
);
leftKerningGroup = o;
rightKerningGroup = hbar;
unicode = 0111;
},
{
color = 4;
glyphname = e;
lastChange = "2016-09-23 19:13:22 +0000";
layers = (
{
anchors = (
{
name = bottom;
position = "{280, 0}";
},
{
name = ogonek;
position = "{415, 10}";
},
{
name = top;
position = "{280, 500}";
}
);
layerId = UUID0;
paths = (
{
closed = 1;
nodes = (
"425 -15 OFFCURVE",
"500 60 OFFCURVE",
"500 140 CURVE",
"475 140 LINE",
"475 75 OFFCURVE",
"410 10 OFFCURVE",
"330 10 CURVE SMOOTH",
"261 10 OFFCURVE",
"210 60 OFFCURVE",
"210 225 CURVE",
"290 225 OFFCURVE",
"366 232 OFFCURVE",
"422 240 CURVE SMOOTH",
"455 244 OFFCURVE",
"486 249 OFFCURVE",
"515 255 CURVE",
"520 272 LINE SMOOTH",
"523 283 OFFCURVE",
"525 296 OFFCURVE",
"525 315 CURVE SMOOTH",
"525 424 OFFCURVE",
"434 515 OFFCURVE",
"285 515 CURVE SMOOTH",
"140 515 OFFCURVE",
"40 415 OFFCURVE",
"40 250 CURVE SMOOTH",
"40 85 OFFCURVE",
"139 -15 OFFCURVE",
"310 -15 CURVE SMOOTH"
);
},
{
closed = 1;
nodes = (
"210 455 OFFCURVE",
"250 495 OFFCURVE",
"285 495 CURVE SMOOTH",
"320 495 OFFCURVE",
"360 455 OFFCURVE",
"360 335 CURVE SMOOTH",
"360 315 OFFCURVE",
"358 297 OFFCURVE",
"355 282 CURVE SMOOTH",
"353 274 OFFCURVE",
"351 267 OFFCURVE",
"350 260 CURVE",
"340 258 OFFCURVE",
"328 256 OFFCURVE",
"314 255 CURVE SMOOTH",
"290 252 OFFCURVE",
"255 250 OFFCURVE",
"210 250 CURVE"
);
}
);
width = 560;
}
);
leftKerningGroup = o;
rightKerningGroup = e;
unicode = 0065;
},
{
color = 4;
glyphname = f;
lastChange = "2016-09-23 19:13:22 +0000";
layers = (
{
anchors = (
{
name = bottom;
position = "{213, 0}";
},
{
name = top;
position = "{213, 500}";
}
);
layerId = UUID0;
paths = (
{
closed = 1;
nodes = (
"315 0 LINE",
"315 15 LINE",
"255 30 LINE",
"255 455 LINE",
"415 455 LINE",
"415 480 LINE",
"255 480 LINE",
"255 530 LINE SMOOTH",
"255 665 OFFCURVE",
"285 695 OFFCURVE",
"325 695 CURVE SMOOTH",
"332 695 OFFCURVE",
"339 693 OFFCURVE",
"346 692 CURVE SMOOTH",
"355 690 LINE",
"355 535 LINE",
"367 532 LINE SMOOTH",
"374 531 OFFCURVE",
"384 530 OFFCURVE",
"395 530 CURVE SMOOTH",
"440 530 OFFCURVE",
"470 560 OFFCURVE",
"470 605 CURVE SMOOTH",
"470 660 OFFCURVE",
"414 715 OFFCURVE",
"305 715 CURVE SMOOTH",
"174 715 OFFCURVE",
"95 635 OFFCURVE",
"95 530 CURVE SMOOTH",
"95 480 LINE",
"25 480 LINE",
"25 455 LINE",
"95 455 LINE",
"95 30 LINE",
"35 15 LINE",
"35 0 LINE"
);
}
);
width = 425;
}
);
leftKerningGroup = f;
rightKerningGroup = f;
unicode = 0066;
},
{
color = 4;
glyphname = g;
lastChange = "2016-09-23 19:13:22 +0000";
layers = (
{
anchors = (
{
name = bottom;
position = "{303, 0}";
},
{
name = top;
position = "{303, 500}";
}
);
layerId = UUID0;
paths = (
{
closed = 1;
nodes = (
"460 -215 OFFCURVE",
"540 -135 OFFCURVE",
"540 -35 CURVE SMOOTH",
"540 70 OFFCURVE",
"480 130 OFFCURVE",
"380 130 CURVE SMOOTH",
"190 130 LINE SMOOTH",
"125 130 OFFCURVE",
"110 145 OFFCURVE",
"110 165 CURVE SMOOTH",
"110 176 OFFCURVE",
"119 183 OFFCURVE",
"130 190 CURVE",
"150 200 LINE",
"185 185 OFFCURVE",
"229 175 OFFCURVE",
"280 175 CURVE SMOOTH",
"429 175 OFFCURVE",
"500 245 OFFCURVE",
"500 340 CURVE SMOOTH",
"500 385 OFFCURVE",
"485 424 OFFCURVE",
"450 455 CURVE",
"454 464 OFFCURVE",
"459 473 OFFCURVE",
"466 480 CURVE SMOOTH",
"477 492 OFFCURVE",
"492 505 OFFCURVE",
"515 505 CURVE",
"515 385 LINE",
"525 382 LINE",
"532 381 OFFCURVE",
"539 380 OFFCURVE",
"550 380 CURVE SMOOTH",
"581 380 OFFCURVE",
"605 405 OFFCURVE",
"605 445 CURVE SMOOTH",
"605 496 OFFCURVE",
"570 530 OFFCURVE",
"525 530 CURVE SMOOTH",
"490 530 OFFCURVE",
"466 515 OFFCURVE",
"451 500 CURVE SMOOTH",
"442 491 OFFCURVE",
"435 481 OFFCURVE",
"430 470 CURVE",
"399 490 OFFCURVE",
"345 505 OFFCURVE",
"280 505 CURVE SMOOTH",
"131 505 OFFCURVE",
"60 435 OFFCURVE",
"60 340 CURVE SMOOTH",
"60 284 OFFCURVE",
"79 241 OFFCURVE",
"130 210 CURVE",
"112 203 OFFCURVE",
"96 195 OFFCURVE",
"82 185 CURVE SMOOTH",
"58 166 OFFCURVE",
"35 140 OFFCURVE",
"35 100 CURVE SMOOTH",
"35 40 OFFCURVE",
"85 -10 OFFCURVE",
"190 -10 CURVE SMOOTH",
"380 -10 LINE SMOOTH",
"471 -10 OFFCURVE",
"500 -39 OFFCURVE",
"500 -75 CURVE SMOOTH",
"500 -135 OFFCURVE",
"440 -195 OFFCURVE",
"265 -195 CURVE SMOOTH",
"232 -195 OFFCURVE",
"201 -190 OFFCURVE",
"178 -185 CURVE SMOOTH",
"165 -182 OFFCURVE",
"152 -179 OFFCURVE",
"140 -175 CURVE",
"140 -35 LINE",
"129 -33 LINE SMOOTH",
"122 -32 OFFCURVE",
"112 -30 OFFCURVE",
"100 -30 CURVE SMOOTH",
"55 -30 OFFCURVE",
"25 -60 OFFCURVE",
"25 -105 CURVE SMOOTH",
"25 -156 OFFCURVE",
"86 -215 OFFCURVE",
"275 -215 CURVE SMOOTH"
);
},
{
closed = 1;
nodes = (
"240 195 OFFCURVE",
"210 225 OFFCURVE",
"210 340 CURVE SMOOTH",
"210 455 OFFCURVE",
"240 485 OFFCURVE",
"280 485 CURVE SMOOTH",
"320 485 OFFCURVE",
"350 455 OFFCURVE",
"350 340 CURVE SMOOTH",
"350 225 OFFCURVE",
"320 195 OFFCURVE",
"280 195 CURVE SMOOTH"
);
}
);
width = 605;
}
);
leftKerningGroup = g;
rightKerningGroup = g;
unicode = 0067;
},
{
color = 4;
glyphname = h;
lastChange = "2016-09-23 18:44:33 +0000";
layers = (
{
anchors = (
{
name = bottom;
position = "{333, 0}";
},
{
name = center;
position = "{333, 250}";
},
{
name = top;
position = "{333, 500}";
}
);
layerId = UUID0;
paths = (
{
closed = 1;
nodes = (
"320 0 LINE",
"320 15 LINE",
"260 30 LINE",
"260 400 LINE",
"266 415 OFFCURVE",
"273 428 OFFCURVE",
"282 440 CURVE SMOOTH",
"297 460 OFFCURVE",
"319 480 OFFCURVE",
"350 480 CURVE SMOOTH",
"385 480 OFFCURVE",
"425 441 OFFCURVE",
"425 350 CURVE SMOOTH",
"425 90 LINE SMOOTH",
"425 30 OFFCURVE",
"455 0 OFFCURVE",
"515 0 CURVE SMOOTH",
"645 0 LINE",
"645 15 LINE",
"585 30 LINE",
"585 350 LINE SMOOTH",
"585 434 OFFCURVE",
"505 515 OFFCURVE",
"390 515 CURVE SMOOTH",
"345 515 OFFCURVE",
"312 498 OFFCURVE",
"291 482 CURVE SMOOTH",
"279 473 OFFCURVE",
"269 462 OFFCURVE",
"260 450 CURVE",
"260 610 LINE SMOOTH",
"260 670 OFFCURVE",
"230 700 OFFCURVE",
"170 700 CURVE SMOOTH",
"40 700 LINE",
"40 685 LINE",
"100 670 LINE",
"100 30 LINE",
"40 15 LINE",
"40 0 LINE"
);
}
);
width = 665;
}
);
unicode = 0068;
},
{
color = 4;
glyphname = hbar;
lastChange = "2016-09-23 18:44:33 +0000";
layers = (
{
layerId = UUID0;
paths = (
{
closed = 1;
nodes = (
"325 0 LINE",
"325 15 LINE",
"265 30 LINE",
"265 370 LINE",
"271 385 OFFCURVE",
"278 398 OFFCURVE",
"287 410 CURVE SMOOTH",
"302 430 OFFCURVE",
"324 450 OFFCURVE",
"355 450 CURVE SMOOTH",
"390 450 OFFCURVE",
"430 411 OFFCURVE",
"430 320 CURVE SMOOTH",
"430 90 LINE SMOOTH",
"430 30 OFFCURVE",
"460 0 OFFCURVE",
"520 0 CURVE SMOOTH",
"650 0 LINE",
"650 15 LINE",
"590 30 LINE",
"590 320 LINE SMOOTH",
"590 404 OFFCURVE",
"510 485 OFFCURVE",
"395 485 CURVE SMOOTH",
"350 485 OFFCURVE",
"317 468 OFFCURVE",
"296 452 CURVE SMOOTH",
"284 443 OFFCURVE",
"274 432 OFFCURVE",
"265 420 CURVE",
"265 545 LINE",
"390 545 LINE",
"390 570 LINE",
"265 570 LINE",
"265 610 LINE SMOOTH",
"265 670 OFFCURVE",
"235 700 OFFCURVE",
"175 700 CURVE SMOOTH",
"45 700 LINE",
"45 685 LINE",
"105 670 LINE",
"105 570 LINE",
"40 570 LINE",
"40 545 LINE",
"105 545 LINE",
"105 30 LINE",
"45 15 LINE",
"45 0 LINE"
);
}
);
width = 670;
}
);
unicode = 0127;
},
{
color = 4;
glyphname = idotless;
lastChange = "2016-09-23 18:44:33 +0000";
layers = (
{
anchors = (
{
name = bottom;
position = "{170, 0}";
},
{
name = ogonek;
position = "{306, 10}";
},
{
name = top;
position = "{170, 500}";
}
);
layerId = UUID0;
paths = (
{
closed = 1;
nodes = (
"320 0 LINE",
"320 15 LINE",
"260 30 LINE",
"260 410 LINE SMOOTH",
"260 470 OFFCURVE",
"230 500 OFFCURVE",
"170 500 CURVE SMOOTH",
"40 500 LINE",
"40 485 LINE",
"100 470 LINE",
"100 30 LINE",
"40 15 LINE",
"40 0 LINE"
);
}
);
width = 340;
}
);
unicode = 0131;
},
{
color = 4;
glyphname = ij;
lastChange = "2016-09-23 18:44:33 +0000";
layers = (
{
layerId = UUID0;
paths = (
{
closed = 1;
nodes = (
"485 -215 OFFCURVE",
"565 -135 OFFCURVE",
"565 -30 CURVE SMOOTH",
"565 410 LINE SMOOTH",
"565 470 OFFCURVE",
"535 500 OFFCURVE",
"475 500 CURVE SMOOTH",
"40 500 LINE",
"40 485 LINE",
"100 470 LINE",
"100 30 LINE",
"40 15 LINE",
"40 0 LINE",
"320 0 LINE",
"320 15 LINE",
"260 30 LINE",
"260 475 LINE",
"405 475 LINE",
"405 -30 LINE SMOOTH",
"405 -161 OFFCURVE",
"370 -195 OFFCURVE",
"335 -195 CURVE SMOOTH",
"331 -195 OFFCURVE",
"326 -194 OFFCURVE",
"321 -193 CURVE",
"315 -190 LINE",
"315 -50 LINE",
"302 -48 LINE SMOOTH",
"294 -47 OFFCURVE",
"286 -45 OFFCURVE",
"275 -45 CURVE SMOOTH",
"230 -45 OFFCURVE",
"200 -75 OFFCURVE",
"200 -120 CURVE SMOOTH",
"200 -176 OFFCURVE",
"240 -215 OFFCURVE",
"345 -215 CURVE SMOOTH"
);
},
{
closed = 1;
nodes = (
"225 540 OFFCURVE",
"265 580 OFFCURVE",
"265 625 CURVE SMOOTH",
"265 670 OFFCURVE",
"225 710 OFFCURVE",
"180 710 CURVE SMOOTH",
"135 710 OFFCURVE",
"95 670 OFFCURVE",
"95 625 CURVE SMOOTH",
"95 580 OFFCURVE",
"135 540 OFFCURVE",
"180 540 CURVE SMOOTH"
);
},
{
closed = 1;
nodes = (
"530 540 OFFCURVE",
"570 580 OFFCURVE",
"570 625 CURVE SMOOTH",
"570 670 OFFCURVE",
"530 710 OFFCURVE",
"485 710 CURVE SMOOTH",
"440 710 OFFCURVE",
"400 670 OFFCURVE",
"400 625 CURVE SMOOTH",
"400 580 OFFCURVE",
"440 540 OFFCURVE",
"485 540 CURVE SMOOTH"
);
}
);
width = 640;
}
);
unicode = 0133;
},
{
color = 4;
glyphname = iogonek;
lastChange = "2016-09-23 18:44:33 +0000";
layers = (
{
layerId = UUID0;
paths = (
{
closed = 1;
nodes = (
"204 -190 OFFCURVE",
"219 -188 OFFCURVE",
"232 -183 CURVE SMOOTH",
"239 -180 OFFCURVE",
"245 -178 OFFCURVE",
"250 -175 CURVE",
"250 -145 LINE",
"246 -149 OFFCURVE",
"242 -152 OFFCURVE",
"237 -155 CURVE SMOOTH",
"229 -160 OFFCURVE",
"217 -165 OFFCURVE",
"205 -165 CURVE SMOOTH",
"178 -165 OFFCURVE",
"165 -152 OFFCURVE",
"165 -125 CURVE SMOOTH",
"165 -82 OFFCURVE",
"188 -52 OFFCURVE",
"212 -31 CURVE SMOOTH",
"226 -19 OFFCURVE",
"242 -9 OFFCURVE",
"260 0 CURVE",
"320 0 LINE",
"320 15 LINE",
"260 30 LINE",
"260 410 LINE SMOOTH",
"260 470 OFFCURVE",
"230 500 OFFCURVE",
"170 500 CURVE SMOOTH",
"40 500 LINE",
"40 485 LINE",
"100 470 LINE",
"100 30 LINE",
"40 15 LINE",
"40 0 LINE",
"214 0 LINE",
"202 -4 OFFCURVE",
"80 -33 OFFCURVE",
"80 -115 CURVE SMOOTH",
"80 -155 OFFCURVE",
"114 -190 OFFCURVE",
"185 -190 CURVE SMOOTH"
);
},
{
closed = 1;
nodes = (
"225 540 OFFCURVE",
"265 580 OFFCURVE",
"265 625 CURVE SMOOTH",
"265 670 OFFCURVE",
"225 710 OFFCURVE",
"180 710 CURVE SMOOTH",
"135 710 OFFCURVE",
"95 670 OFFCURVE",
"95 625 CURVE SMOOTH",
"95 580 OFFCURVE",
"135 540 OFFCURVE",
"180 540 CURVE SMOOTH"
);
}
);
width = 340;
}
);
unicode = 012F;
},
{
color = 4;
glyphname = jdotless;
lastChange = "2016-09-23 18:44:33 +0000";
layers = (
{
anchors = (
{
name = bottom;
position = "{165, 0}";
},
{
name = top;
position = "{165, 500}";
}
);
layerId = UUID0;
paths = (
{
closed = 1;
nodes = (
"175 -215 OFFCURVE",
"255 -135 OFFCURVE",
"255 -30 CURVE SMOOTH",
"255 410 LINE SMOOTH",
"255 470 OFFCURVE",
"225 500 OFFCURVE",
"165 500 CURVE SMOOTH",
"35 500 LINE",
"35 485 LINE",
"95 470 LINE",
"95 -30 LINE SMOOTH",
"95 -161 OFFCURVE",
"60 -195 OFFCURVE",
"25 -195 CURVE SMOOTH",
"21 -195 OFFCURVE",
"16 -194 OFFCURVE",
"11 -193 CURVE",
"5 -190 LINE",
"5 -50 LINE",
"-8 -48 LINE SMOOTH",
"-16 -47 OFFCURVE",
"-24 -45 OFFCURVE",
"-35 -45 CURVE SMOOTH",
"-80 -45 OFFCURVE",
"-110 -75 OFFCURVE",
"-110 -120 CURVE SMOOTH",
"-110 -176 OFFCURVE",
"-70 -215 OFFCURVE",
"35 -215 CURVE SMOOTH"
);
}
);
width = 330;
}
);
unicode = 0237;
},
{
color = 4;
glyphname = jcircumflex;
lastChange = "2016-09-23 18:44:33 +0000";
layers = (
{
layerId = UUID0;
paths = (
{
closed = 1;
nodes = (
"175 -215 OFFCURVE",
"255 -135 OFFCURVE",
"255 -30 CURVE SMOOTH",
"255 410 LINE SMOOTH",
"255 470 OFFCURVE",
"225 500 OFFCURVE",
"165 500 CURVE SMOOTH",
"35 500 LINE",
"35 485 LINE",
"95 470 LINE",
"95 -30 LINE SMOOTH",
"95 -161 OFFCURVE",
"60 -195 OFFCURVE",
"25 -195 CURVE SMOOTH",
"21 -195 OFFCURVE",
"16 -194 OFFCURVE",
"11 -193 CURVE",
"5 -190 LINE",
"5 -50 LINE",
"-8 -48 LINE SMOOTH",
"-16 -47 OFFCURVE",
"-24 -45 OFFCURVE",
"-35 -45 CURVE SMOOTH",
"-80 -45 OFFCURVE",
"-110 -75 OFFCURVE",
"-110 -120 CURVE SMOOTH",
"-110 -176 OFFCURVE",
"-70 -215 OFFCURVE",
"35 -215 CURVE SMOOTH"
);
},
{
closed = 1;
nodes = (
"45 565 LINE",
"155 635 LINE",
"265 565 LINE",
"300 565 LINE",
"155 730 LINE",
"10 565 LINE"
);
}
);
width = 340;
}
);
unicode = 0135;
},
{
color = 4;
glyphname = k;
lastChange = "2016-09-23 18:44:33 +0000";
layers = (
{
anchors = (
{
name = bottom;
position = "{300, 0}";
},
{
name = top;
position = "{330, 500}";
}
);
layerId = UUID0;
paths = (
{
closed = 1;
nodes = (
"320 0 LINE",
"320 15 LINE",
"260 30 LINE",
"260 220 LINE",
"345 85 LINE SMOOTH",
"377 35 OFFCURVE",
"410 0 OFFCURVE",
"480 0 CURVE SMOOTH",
"610 0 LINE",
"610 15 LINE",
"560 30 LINE",
"365 335 LINE",
"480 455 LINE",
"560 485 LINE",
"560 500 LINE",
"370 500 LINE",
"370 485 LINE",
"445 455 LINE",
"260 260 LINE",
"260 610 LINE SMOOTH",
"260 670 OFFCURVE",
"230 700 OFFCURVE",
"170 700 CURVE SMOOTH",
"40 700 LINE",
"40 685 LINE",
"100 670 LINE",
"100 30 LINE",
"40 15 LINE",
"40 0 LINE"
);
}
);
width = 600;
}
);
unicode = 006B;
},
{
color = 4;
glyphname = kgreenlandic;
lastChange = "2016-09-23 18:44:33 +0000";
layers = (
{
layerId = UUID0;
paths = (
{
closed = 1;
nodes = (
"320 0 LINE",
"320 15 LINE",
"260 30 LINE",
"260 220 LINE",
"345 85 LINE SMOOTH",
"377 35 OFFCURVE",
"410 0 OFFCURVE",
"480 0 CURVE SMOOTH",
"610 0 LINE",
"610 15 LINE",
"560 30 LINE",
"365 335 LINE",
"480 455 LINE",
"560 485 LINE",
"560 500 LINE",
"370 500 LINE",
"370 485 LINE",
"445 455 LINE",
"260 260 LINE",
"260 410 LINE SMOOTH",
"260 470 OFFCURVE",
"230 500 OFFCURVE",
"170 500 CURVE SMOOTH",
"40 500 LINE",
"40 485 LINE",
"100 470 LINE",
"100 30 LINE",
"40 15 LINE",
"40 0 LINE"
);
}
);
width = 600;
}
);
unicode = 0138;
},
{
color = 4;
glyphname = l;
lastChange = "2016-09-23 18:44:33 +0000";
layers = (
{
anchors = (
{
name = bottom;
position = "{170, 0}";
},
{
name = center;
position = "{170, 250}";
},
{
name = top;
position = "{170, 500}";
},
{
name = topright;
position = "{320, 500}";
}
);
layerId = UUID0;
paths = (
{
closed = 1;
nodes = (
"320 0 LINE",
"320 15 LINE",
"260 30 LINE",
"260 610 LINE SMOOTH",
"260 670 OFFCURVE",
"230 700 OFFCURVE",
"170 700 CURVE SMOOTH",
"40 700 LINE",
"40 685 LINE",
"100 670 LINE",
"100 30 LINE",
"40 15 LINE",
"40 0 LINE"
);
}
);
width = 340;
}
);
unicode = 006C;
},
{
color = 4;
glyphname = lslash;
lastChange = "2016-09-23 18:44:33 +0000";
layers = (
{
layerId = UUID0;
paths = (
{
closed = 1;
nodes = (
"325 0 LINE",
"325 15 LINE",
"265 30 LINE",
"265 416 LINE",
"345 465 LINE",
"345 500 LINE",
"265 451 LINE",
"265 610 LINE SMOOTH",
"265 670 OFFCURVE",
"235 700 OFFCURVE",
"175 700 CURVE SMOOTH",
"45 700 LINE",
"45 685 LINE",
"105 670 LINE",
"105 352 LINE",
"20 300 LINE",
"20 265 LINE",
"105 317 LINE",
"105 30 LINE",
"45 15 LINE",
"45 0 LINE"
);
}
);
width = 365;
}
);
unicode = 0142;
},
{
color = 4;
glyphname = m;
lastChange = "2016-09-23 18:44:33 +0000";
layers = (
{
anchors = (
{
name = bottom;
position = "{475, 0}";
},
{
name = top;
position = "{495, 500}";
}
);
layerId = UUID0;
paths = (
{
closed = 1;
nodes = (
"320 0 LINE",
"320 15 LINE",
"260 30 LINE",
"260 400 LINE",
"266 415 OFFCURVE",
"273 428 OFFCURVE",
"281 440 CURVE SMOOTH",
"296 460 OFFCURVE",
"315 480 OFFCURVE",
"340 480 CURVE SMOOTH",
"369 480 OFFCURVE",
"405 445 OFFCURVE",
"405 350 CURVE SMOOTH",
"405 30 LINE",
"345 15 LINE",
"345 0 LINE",
"625 0 LINE",
"625 15 LINE",
"565 30 LINE",
"565 400 LINE",
"571 415 OFFCURVE",
"578 428 OFFCURVE",
"586 440 CURVE SMOOTH",
"601 460 OFFCURVE",
"620 480 OFFCURVE",
"645 480 CURVE SMOOTH",
"674 480 OFFCURVE",
"710 445 OFFCURVE",
"710 350 CURVE SMOOTH",
"710 90 LINE SMOOTH",
"710 30 OFFCURVE",
"740 0 OFFCURVE",
"800 0 CURVE SMOOTH",
"930 0 LINE",
"930 15 LINE",
"870 30 LINE",
"870 350 LINE SMOOTH",
"870 441 OFFCURVE",
"794 515 OFFCURVE",
"685 515 CURVE SMOOTH",
"637 515 OFFCURVE",
"605 491 OFFCURVE",
"582 467 CURVE SMOOTH",
"569 453 OFFCURVE",
"559 437 OFFCURVE",
"550 420 CURVE",
"519 476 OFFCURVE",
"460 515 OFFCURVE",
"380 515 CURVE SMOOTH",
"332 515 OFFCURVE",
"300 493 OFFCURVE",
"277 470 CURVE SMOOTH",
"264 457 OFFCURVE",
"254 442 OFFCURVE",
"245 425 CURVE",
"240 438 OFFCURVE",
"233 451 OFFCURVE",
"223 462 CURVE SMOOTH",
"206 481 OFFCURVE",
"177 500 OFFCURVE",
"130 500 CURVE SMOOTH",
"40 500 LINE",
"40 485 LINE",
"100 470 LINE",
"100 30 LINE",
"40 15 LINE",
"40 0 LINE"
);
}
);
width = 950;
}
);
unicode = 006D;
},
{
color = 4;
glyphname = n;
lastChange = "2016-09-23 18:44:33 +0000";
layers = (
{
anchors = (
{
name = bottom;
position = "{353, 0}";
},
{
name = top;
position = "{353, 500}";
}
);
layerId = UUID0;
paths = (
{
closed = 1;
nodes = (
"320 0 LINE",
"320 15 LINE",
"260 30 LINE",
"260 400 LINE",
"266 415 OFFCURVE",
"273 428 OFFCURVE",
"282 440 CURVE SMOOTH",
"297 460 OFFCURVE",
"319 480 OFFCURVE",
"350 480 CURVE SMOOTH",
"385 480 OFFCURVE",
"425 441 OFFCURVE",
"425 350 CURVE SMOOTH",
"425 90 LINE SMOOTH",
"425 30 OFFCURVE",
"455 0 OFFCURVE",
"515 0 CURVE SMOOTH",
"645 0 LINE",
"645 15 LINE",
"585 30 LINE",
"585 350 LINE SMOOTH",
"585 434 OFFCURVE",
"505 515 OFFCURVE",
"390 515 CURVE SMOOTH",
"337 515 OFFCURVE",
"301 493 OFFCURVE",
"278 470 CURVE SMOOTH",
"265 457 OFFCURVE",
"254 442 OFFCURVE",
"245 425 CURVE",
"240 438 OFFCURVE",
"233 451 OFFCURVE",
"223 462 CURVE SMOOTH",
"206 481 OFFCURVE",
"177 500 OFFCURVE",
"130 500 CURVE SMOOTH",
"40 500 LINE",
"40 485 LINE",
"100 470 LINE",
"100 30 LINE",
"40 15 LINE",
"40 0 LINE"
);
}
);
width = 665;
}
);
unicode = 006E;
},
{
color = 4;
glyphname = o;
lastChange = "2016-09-23 18:44:33 +0000";
layers = (
{
anchors = (
{
name = bottom;
position = "{305, 0}";
},
{
name = center;
position = "{305, 250}";
},
{
name = ogonek;
position = "{432, 10}";
},
{
name = top;
position = "{305, 500}";
},
{
name = topright;
position = "{550, 500}";
}
);
layerId = UUID0;
paths = (
{
closed = 1;
nodes = (
"470 -15 OFFCURVE",
"570 85 OFFCURVE",
"570 250 CURVE SMOOTH",
"570 415 OFFCURVE",
"470 515 OFFCURVE",
"305 515 CURVE SMOOTH",
"140 515 OFFCURVE",
"40 415 OFFCURVE",
"40 250 CURVE SMOOTH",
"40 85 OFFCURVE",
"140 -15 OFFCURVE",
"305 -15 CURVE SMOOTH"
);
},
{
closed = 1;
nodes = (
"260 5 OFFCURVE",
"210 55 OFFCURVE",
"210 250 CURVE SMOOTH",
"210 445 OFFCURVE",
"260 495 OFFCURVE",
"305 495 CURVE SMOOTH",
"350 495 OFFCURVE",
"400 445 OFFCURVE",
"400 250 CURVE SMOOTH",
"400 55 OFFCURVE",
"350 5 OFFCURVE",
"305 5 CURVE SMOOTH"
);
}
);
width = 610;
}
);
unicode = 006F;
},
{
color = 4;
glyphname = oslash;
lastChange = "2016-09-23 18:44:33 +0000";
layers = (
{
layerId = UUID0;
paths = (
{
closed = 1;
nodes = (
"470 -15 OFFCURVE",
"570 85 OFFCURVE",
"570 250 CURVE SMOOTH",
"570 337 OFFCURVE",
"538 405 OFFCURVE",
"489 450 CURVE",
"530 500 LINE",
"495 500 LINE",
"468 467 LINE",
"425 498 OFFCURVE",
"370 515 OFFCURVE",
"305 515 CURVE SMOOTH",
"140 515 OFFCURVE",
"40 415 OFFCURVE",
"40 250 CURVE SMOOTH",
"40 163 OFFCURVE",
"72 96 OFFCURVE",
"121 49 CURVE",
"80 0 LINE",
"115 0 LINE",
"142 32 LINE",
"185 1 OFFCURVE",
"239 -15 OFFCURVE",
"305 -15 CURVE SMOOTH"
);
},
{
closed = 1;
nodes = (
"271 5 OFFCURVE",
"235 32 OFFCURVE",
"219 125 CURVE",
"396 338 LINE",
"399 313 OFFCURVE",
"400 283 OFFCURVE",
"400 250 CURVE SMOOTH",
"400 55 OFFCURVE",
"350 5 OFFCURVE",
"305 5 CURVE SMOOTH"
);
},
{
closed = 1;
nodes = (
"211 188 OFFCURVE",
"210 215 OFFCURVE",
"210 250 CURVE SMOOTH",
"210 445 OFFCURVE",
"260 495 OFFCURVE",
"305 495 CURVE SMOOTH",
"337 495 OFFCURVE",
"375 466 OFFCURVE",
"391 374 CURVE",
"214 161 LINE"
);
}
);
width = 610;
}
);
unicode = 00F8;
},
{
color = 4;
glyphname = oslashacute;
lastChange = "2016-09-23 18:44:33 +0000";
layers = (
{
layerId = UUID0;
paths = (
{
closed = 1;
nodes = (
"470 -15 OFFCURVE",
"570 85 OFFCURVE",
"570 250 CURVE SMOOTH",
"570 337 OFFCURVE",
"538 405 OFFCURVE",
"489 450 CURVE",
"530 500 LINE",
"495 500 LINE",
"468 467 LINE",
"425 498 OFFCURVE",
"370 515 OFFCURVE",
"305 515 CURVE SMOOTH",
"140 515 OFFCURVE",
"40 415 OFFCURVE",
"40 250 CURVE SMOOTH",
"40 163 OFFCURVE",
"72 96 OFFCURVE",
"121 49 CURVE",
"80 0 LINE",
"115 0 LINE",
"142 32 LINE",
"185 1 OFFCURVE",
"239 -15 OFFCURVE",
"305 -15 CURVE SMOOTH"
);
},
{
closed = 1;
nodes = (
"271 5 OFFCURVE",
"235 32 OFFCURVE",
"219 125 CURVE",
"396 338 LINE",
"399 313 OFFCURVE",
"400 283 OFFCURVE",
"400 250 CURVE SMOOTH",
"400 55 OFFCURVE",
"350 5 OFFCURVE",
"305 5 CURVE SMOOTH"
);
},
{
closed = 1;
nodes = (
"211 188 OFFCURVE",
"210 215 OFFCURVE",
"210 250 CURVE SMOOTH",
"210 445 OFFCURVE",
"260 495 OFFCURVE",
"305 495 CURVE SMOOTH",
"337 495 OFFCURVE",
"375 466 OFFCURVE",
"391 374 CURVE",
"214 161 LINE"
);
},
{
closed = 1;
nodes = (
"295 560 LINE",
"430 710 LINE",
"300 710 LINE",
"260 560 LINE"
);
}
);
width = 610;
}
);
unicode = 01FF;
},
{
color = 4;
glyphname = oe;
lastChange = "2016-09-23 18:44:33 +0000";
layers = (
{
layerId = UUID0;
paths = (
{
closed = 1;
nodes = (
"367 -15 OFFCURVE",
"414 7 OFFCURVE",
"442 30 CURVE SMOOTH",
"459 43 OFFCURVE",
"471 58 OFFCURVE",
"480 75 CURVE",
"491 58 OFFCURVE",
"505 43 OFFCURVE",
"522 30 CURVE SMOOTH",
"553 7 OFFCURVE",
"599 -15 OFFCURVE",
"670 -15 CURVE SMOOTH",
"785 -15 OFFCURVE",
"860 60 OFFCURVE",
"860 140 CURVE",
"835 140 LINE",
"835 75 OFFCURVE",
"770 10 OFFCURVE",
"690 10 CURVE SMOOTH",
"621 10 OFFCURVE",
"570 60 OFFCURVE",
"570 225 CURVE",
"650 225 OFFCURVE",
"726 232 OFFCURVE",
"782 240 CURVE SMOOTH",
"815 244 OFFCURVE",
"846 249 OFFCURVE",
"875 255 CURVE",
"880 270 LINE SMOOTH",
"883 281 OFFCURVE",
"885 295 OFFCURVE",
"885 315 CURVE SMOOTH",
"885 424 OFFCURVE",
"794 515 OFFCURVE",
"655 515 CURVE SMOOTH",
"587 515 OFFCURVE",
"544 493 OFFCURVE",
"517 470 CURVE SMOOTH",
"501 457 OFFCURVE",
"489 442 OFFCURVE",
"480 425 CURVE",
"471 442 OFFCURVE",
"459 457 OFFCURVE",
"442 470 CURVE SMOOTH",
"414 493 OFFCURVE",
"367 515 OFFCURVE",
"295 515 CURVE SMOOTH",
"140 515 OFFCURVE",
"40 415 OFFCURVE",
"40 250 CURVE SMOOTH",
"40 85 OFFCURVE",
"140 -15 OFFCURVE",
"295 -15 CURVE SMOOTH"
);
},
{
closed = 1;
nodes = (
"260 5 OFFCURVE",
"210 55 OFFCURVE",
"210 250 CURVE SMOOTH",
"210 445 OFFCURVE",
"260 495 OFFCURVE",
"305 495 CURVE SMOOTH",
"350 495 OFFCURVE",
"400 445 OFFCURVE",
"400 250 CURVE SMOOTH",
"400 55 OFFCURVE",
"350 5 OFFCURVE",
"305 5 CURVE SMOOTH"
);
},
{
closed = 1;
nodes = (
"570 455 OFFCURVE",
"610 495 OFFCURVE",
"645 495 CURVE SMOOTH",
"680 495 OFFCURVE",
"720 455 OFFCURVE",
"720 335 CURVE SMOOTH",
"720 315 OFFCURVE",
"718 297 OFFCURVE",
"715 282 CURVE SMOOTH",
"713 274 OFFCURVE",
"711 267 OFFCURVE",
"710 260 CURVE",
"700 258 OFFCURVE",
"688 256 OFFCURVE",
"674 255 CURVE SMOOTH",
"650 252 OFFCURVE",
"615 250 OFFCURVE",
"570 250 CURVE"
);
}
);
width = 920;
}
);
unicode = 0153;
},
{
color = 4;
glyphname = p;
lastChange = "2016-09-23 18:44:33 +0000";
layers = (
{
anchors = (
{
name = bottom;
position = "{343, 0}";
},
{
name = top;
position = "{343, 500}";
}
);
layerId = UUID0;
paths = (
{
closed = 1;
nodes = (
"310 -200 LINE",
"310 -185 LINE",
"250 -170 LINE",
"250 25 LINE",
"259 18 OFFCURVE",
"269 11 OFFCURVE",
"281 5 CURVE SMOOTH",
"301 -6 OFFCURVE",
"330 -15 OFFCURVE",
"365 -15 CURVE SMOOTH",
"496 -15 OFFCURVE",
"585 75 OFFCURVE",
"585 250 CURVE SMOOTH",
"585 425 OFFCURVE",
"495 515 OFFCURVE",
"380 515 CURVE SMOOTH",
"327 515 OFFCURVE",
"291 493 OFFCURVE",
"268 470 CURVE SMOOTH",
"255 457 OFFCURVE",
"244 442 OFFCURVE",
"235 425 CURVE",
"230 438 OFFCURVE",
"223 451 OFFCURVE",
"213 462 CURVE SMOOTH",
"196 481 OFFCURVE",
"167 500 OFFCURVE",
"120 500 CURVE SMOOTH",
"30 500 LINE",
"30 485 LINE",
"90 470 LINE",
"90 -170 LINE",
"30 -185 LINE",
"30 -200 LINE"
);
},
{
closed = 1;
nodes = (
"305 15 OFFCURVE",
"287 24 OFFCURVE",
"272 35 CURVE SMOOTH",
"264 41 OFFCURVE",
"257 48 OFFCURVE",
"250 55 CURVE",
"250 400 LINE",
"256 415 OFFCURVE",
"263 428 OFFCURVE",
"272 440 CURVE SMOOTH",
"287 460 OFFCURVE",
"309 480 OFFCURVE",
"340 480 CURVE SMOOTH",
"375 480 OFFCURVE",
"415 440 OFFCURVE",
"415 250 CURVE SMOOTH",
"415 55 OFFCURVE",
"376 15 OFFCURVE",
"325 15 CURVE SMOOTH"
);
}
);
width = 625;
}
);
unicode = 0070;
},
{
color = 4;
glyphname = thorn;
lastChange = "2016-09-23 18:44:33 +0000";
layers = (
{
layerId = UUID0;
paths = (
{
closed = 1;
nodes = (
"310 -200 LINE",
"310 -185 LINE",
"250 -170 LINE",
"250 25 LINE",
"259 18 OFFCURVE",
"269 11 OFFCURVE",
"281 5 CURVE SMOOTH",
"301 -6 OFFCURVE",
"330 -15 OFFCURVE",
"365 -15 CURVE SMOOTH",
"496 -15 OFFCURVE",
"585 75 OFFCURVE",
"585 250 CURVE SMOOTH",
"585 425 OFFCURVE",
"495 515 OFFCURVE",
"380 515 CURVE SMOOTH",
"337 515 OFFCURVE",
"306 498 OFFCURVE",
"283 482 CURVE SMOOTH",
"270 473 OFFCURVE",
"259 462 OFFCURVE",
"250 450 CURVE",
"250 610 LINE SMOOTH",
"250 670 OFFCURVE",
"220 700 OFFCURVE",
"160 700 CURVE SMOOTH",
"30 700 LINE",
"30 685 LINE",
"90 670 LINE",
"90 -170 LINE",
"30 -185 LINE",
"30 -200 LINE"
);
},
{
closed = 1;
nodes = (
"305 15 OFFCURVE",
"287 24 OFFCURVE",
"272 35 CURVE SMOOTH",
"264 41 OFFCURVE",
"257 48 OFFCURVE",
"250 55 CURVE",
"250 400 LINE",
"257 415 OFFCURVE",
"265 428 OFFCURVE",
"274 440 CURVE SMOOTH",
"290 460 OFFCURVE",
"312 480 OFFCURVE",
"340 480 CURVE SMOOTH",
"375 480 OFFCURVE",
"415 440 OFFCURVE",
"415 250 CURVE SMOOTH",
"415 55 OFFCURVE",
"376 15 OFFCURVE",
"325 15 CURVE SMOOTH"
);
}
);
width = 625;
}
);
unicode = 00FE;
},
{
color = 4;
glyphname = q;
lastChange = "2016-09-23 18:44:33 +0000";
layers = (
{
anchors = (
{
name = bottom;
position = "{308, 0}";
},
{
name = top;
position = "{308, 500}";
}
);
layerId = UUID0;
paths = (
{
closed = 1;
nodes = (
"595 -200 LINE",
"595 -185 LINE",
"535 -170 LINE",
"535 505 LINE",
"525 505 LINE SMOOTH",
"466 505 OFFCURVE",
"433 485 OFFCURVE",
"414 465 CURVE SMOOTH",
"403 453 OFFCURVE",
"395 440 OFFCURVE",
"390 425 CURVE",
"381 442 OFFCURVE",
"370 457 OFFCURVE",
"357 470 CURVE SMOOTH",
"334 493 OFFCURVE",
"297 515 OFFCURVE",
"245 515 CURVE SMOOTH",
"130 515 OFFCURVE",
"40 425 OFFCURVE",
"40 250 CURVE SMOOTH",
"40 75 OFFCURVE",
"129 -15 OFFCURVE",
"260 -15 CURVE SMOOTH",
"295 -15 OFFCURVE",
"324 -6 OFFCURVE",
"344 5 CURVE SMOOTH",
"356 11 OFFCURVE",
"366 18 OFFCURVE",
"375 25 CURVE",
"375 -170 LINE",
"315 -185 LINE",
"315 -200 LINE"
);
},
{
closed = 1;
nodes = (
"249 15 OFFCURVE",
"210 55 OFFCURVE",
"210 250 CURVE SMOOTH",
"210 440 OFFCURVE",
"250 480 OFFCURVE",
"285 480 CURVE SMOOTH",
"316 480 OFFCURVE",
"337 460 OFFCURVE",
"352 440 CURVE SMOOTH",
"361 428 OFFCURVE",
"368 415 OFFCURVE",
"375 400 CURVE",
"375 55 LINE",
"368 48 OFFCURVE",
"360 41 OFFCURVE",
"352 35 CURVE SMOOTH",
"337 24 OFFCURVE",
"320 15 OFFCURVE",
"300 15 CURVE SMOOTH"
);
}
);
width = 615;
}
);
unicode = 0071;
},
{
color = 4;
glyphname = r;
lastChange = "2016-09-23 18:44:33 +0000";
layers = (
{
anchors = (
{
name = bottom;
position = "{178, 0}";
},
{
name = top;
position = "{253, 500}";
}
);
layerId = UUID0;
paths = (
{
closed = 1;
nodes = (
"320 0 LINE",
"320 15 LINE",
"260 30 LINE",
"260 400 LINE",
"269 415 OFFCURVE",
"280 428 OFFCURVE",
"292 440 CURVE SMOOTH",
"313 460 OFFCURVE",
"345 480 OFFCURVE",
"385 480 CURVE",
"385 340 LINE",
"397 337 LINE SMOOTH",
"404 336 OFFCURVE",
"414 335 OFFCURVE",
"425 335 CURVE SMOOTH",
"470 335 OFFCURVE",
"500 365 OFFCURVE",
"500 410 CURVE SMOOTH",
"500 470 OFFCURVE",
"466 505 OFFCURVE",
"394 505 CURVE SMOOTH",
"343 505 OFFCURVE",
"307 485 OFFCURVE",
"282 465 CURVE SMOOTH",
"267 453 OFFCURVE",
"255 440 OFFCURVE",
"245 425 CURVE",
"240 438 OFFCURVE",
"233 451 OFFCURVE",
"223 462 CURVE SMOOTH",
"206 481 OFFCURVE",
"177 500 OFFCURVE",
"130 500 CURVE SMOOTH",
"40 500 LINE",
"40 485 LINE",
"100 470 LINE",
"100 30 LINE",
"40 15 LINE",
"40 0 LINE"
);
}
);
width = 505;
}
);
unicode = 0072;
},
{
color = 4;
glyphname = s;
lastChange = "2016-09-23 18:42:53 +0000";
layers = (
{
anchors = (
{
name = bottom;
position = "{270, 0}";
},
{
name = top;
position = "{270, 500}";
}
);
layerId = UUID0;
paths = (
{
closed = 1;
nodes = (
"446 -15 OFFCURVE",
"505 45 OFFCURVE",
"505 130 CURVE SMOOTH",
"505 290 OFFCURVE",
"215 300 OFFCURVE",
"215 420 CURVE SMOOTH",
"215 460 OFFCURVE",
"245 490 OFFCURVE",
"280 490 CURVE SMOOTH",
"336 490 OFFCURVE",
"374 451 OFFCURVE",
"399 412 CURVE SMOOTH",
"414 389 OFFCURVE",
"426 364 OFFCURVE",
"436 335 CURVE",
"476 335 LINE",
"476 505 LINE",
"451 505 LINE",
"444 502 OFFCURVE",
"438 498 OFFCURVE",
"431 494 CURVE SMOOTH",
"420 486 OFFCURVE",
"407 475 OFFCURVE",
"396 460 CURVE",
"385 470 OFFCURVE",
"372 479 OFFCURVE",
"358 487 CURVE SMOOTH",
"334 502 OFFCURVE",
"300 515 OFFCURVE",
"260 515 CURVE SMOOTH",
"110 515 OFFCURVE",
"50 455 OFFCURVE",
"50 380 CURVE SMOOTH",
"50 210 OFFCURVE",
"340 200 OFFCURVE",
"340 90 CURVE SMOOTH",
"340 39 OFFCURVE",
"311 10 OFFCURVE",
"255 10 CURVE SMOOTH",
"191 10 OFFCURVE",
"150 48 OFFCURVE",
"123 87 CURVE SMOOTH",
"107 110 OFFCURVE",
"94 136 OFFCURVE",
"85 165 CURVE",
"45 165 LINE",
"45 -5 LINE",
"70 -5 LINE",
"77 -2 OFFCURVE",
"83 1 OFFCURVE",
"90 6 CURVE SMOOTH",
"101 13 OFFCURVE",
"114 25 OFFCURVE",
"125 40 CURVE",
"136 29 OFFCURVE",
"149 20 OFFCURVE",
"164 12 CURVE SMOOTH",
"191 -3 OFFCURVE",
"227 -15 OFFCURVE",
"275 -15 CURVE SMOOTH"
);
}
);
width = 540;
}
);
unicode = 0073;
},
{
color = 4;
glyphname = germandbls;
lastChange = "2016-09-23 18:44:33 +0000";
layers = (
{
layerId = UUID0;
paths = (
{
closed = 1;
nodes = (
"606 -15 OFFCURVE",
"665 45 OFFCURVE",
"665 130 CURVE SMOOTH",
"665 269 OFFCURVE",
"475 281 OFFCURVE",
"475 380 CURVE SMOOTH",
"475 449 OFFCURVE",
"535 461 OFFCURVE",
"535 570 CURVE SMOOTH",
"535 635 OFFCURVE",
"455 715 OFFCURVE",
"330 715 CURVE SMOOTH",
"181 715 OFFCURVE",
"90 625 OFFCURVE",
"90 500 CURVE SMOOTH",
"90 30 LINE",
"30 15 LINE",
"30 0 LINE",
"250 0 LINE",
"250 500 LINE SMOOTH",
"250 655 OFFCURVE",
"285 690 OFFCURVE",
"330 690 CURVE SMOOTH",
"370 690 OFFCURVE",
"405 655 OFFCURVE",
"405 590 CURVE SMOOTH",
"405 489 OFFCURVE",
"320 480 OFFCURVE",
"320 370 CURVE SMOOTH",
"320 220 OFFCURVE",
"510 210 OFFCURVE",
"510 80 CURVE SMOOTH",
"510 29 OFFCURVE",
"490 10 OFFCURVE",
"470 10 CURVE SMOOTH",
"431 10 OFFCURVE",
"403 48 OFFCURVE",
"382 87 CURVE SMOOTH",
"370 110 OFFCURVE",
"359 136 OFFCURVE",
"350 165 CURVE",
"310 165 LINE",
"310 -5 LINE",
"335 -5 LINE",
"342 -4 OFFCURVE",
"348 -2 OFFCURVE",
"355 1 CURVE SMOOTH",
"366 6 OFFCURVE",
"379 15 OFFCURVE",
"390 30 CURVE",
"397 21 OFFCURVE",
"405 14 OFFCURVE",
"414 7 CURVE SMOOTH",
"430 -4 OFFCURVE",
"455 -15 OFFCURVE",
"490 -15 CURVE SMOOTH"
);
}
);
width = 690;
}
);
unicode = 00DF;
},
{
color = 4;
glyphname = t;
lastChange = "2016-09-23 18:44:33 +0000";
layers = (
{
anchors = (
{
name = bottom;
position = "{225, 0}";
},
{
name = center;
position = "{185, 350}";
},
{
name = top;
position = "{225, 500}";
},
{
name = topright;
position = "{430, 500}";
}
);
layerId = UUID0;
paths = (
{
closed = 1;
nodes = (
"380 -15 OFFCURVE",
"435 40 OFFCURVE",
"435 140 CURVE",
"410 140 LINE",
"410 56 OFFCURVE",
"365 10 OFFCURVE",
"320 10 CURVE SMOOTH",
"275 10 OFFCURVE",
"245 39 OFFCURVE",
"245 170 CURVE SMOOTH",
"245 475 LINE",
"385 475 LINE",
"385 500 LINE",
"245 500 LINE",
"245 640 LINE",
"175 640 LINE SMOOTH",
"115 640 OFFCURVE",
"85 610 OFFCURVE",
"85 550 CURVE SMOOTH",
"85 500 LINE",
"15 500 LINE",
"15 475 LINE",
"85 475 LINE",
"85 170 LINE SMOOTH",
"85 65 OFFCURVE",
"165 -15 OFFCURVE",
"300 -15 CURVE SMOOTH"
);
}
);
width = 450;
}
);
unicode = 0074;
},
{
color = 4;
glyphname = u;
lastChange = "2016-09-23 18:44:33 +0000";
layers = (
{
anchors = (
{
name = bottom;
position = "{325, 0}";
},
{
name = ogonek;
position = "{570, -5}";
},
{
name = top;
position = "{325, 500}";
},
{
name = topright;
position = "{626, 494}";
}
);
layerId = UUID0;
paths = (
{
closed = 1;
nodes = (
"332 -15 OFFCURVE",
"369 7 OFFCURVE",
"392 30 CURVE SMOOTH",
"405 43 OFFCURVE",
"416 58 OFFCURVE",
"425 75 CURVE",
"430 60 OFFCURVE",
"438 47 OFFCURVE",
"449 35 CURVE SMOOTH",
"468 15 OFFCURVE",
"501 -5 OFFCURVE",
"560 -5 CURVE SMOOTH",
"570 -5 LINE",
"570 470 LINE",
"630 485 LINE",
"630 500 LINE",
"350 500 LINE",
"350 485 LINE",
"410 470 LINE",
"410 100 LINE",
"403 85 OFFCURVE",
"396 72 OFFCURVE",
"387 60 CURVE SMOOTH",
"372 40 OFFCURVE",
"351 20 OFFCURVE",
"320 20 CURVE SMOOTH",
"285 20 OFFCURVE",
"245 59 OFFCURVE",
"245 150 CURVE SMOOTH",
"245 410 LINE SMOOTH",
"245 470 OFFCURVE",
"215 500 OFFCURVE",
"155 500 CURVE SMOOTH",
"25 500 LINE",
"25 485 LINE",
"85 470 LINE",
"85 150 LINE SMOOTH",
"85 66 OFFCURVE",
"165 -15 OFFCURVE",
"280 -15 CURVE SMOOTH"
);
}
);
width = 650;
}
);
unicode = 0075;
},
{
color = 4;
glyphname = v;
lastChange = "2016-09-23 18:44:33 +0000";
layers = (
{
anchors = (
{
name = bottom;
position = "{293, 0}";
},
{
name = top;
position = "{300, 500}";
}
);
layerId = UUID0;
paths = (
{
closed = 1;
nodes = (
"310 -10 LINE",
"500 455 LINE",
"580 485 LINE",
"580 500 LINE",
"395 500 LINE",
"395 485 LINE",
"470 455 LINE",
"359 184 LINE",
"240 415 LINE SMOOTH",
"214 465 OFFCURVE",
"180 500 OFFCURVE",
"105 500 CURVE SMOOTH",
"-20 500 LINE",
"-20 485 LINE",
"30 470 LINE",
"280 -10 LINE"
);
}
);
width = 560;
}
);
unicode = 0076;
},
{
color = 4;
glyphname = w;
lastChange = "2016-09-23 18:44:33 +0000";
layers = (
{
anchors = (
{
name = bottom;
position = "{418, 0}";
},
{
name = top;
position = "{418, 500}";
}
);
layerId = UUID0;
paths = (
{
closed = 1;
nodes = (
"290 -10 LINE",
"412 298 LINE",
"560 -10 LINE",
"590 -10 LINE",
"775 455 LINE",
"855 485 LINE",
"855 500 LINE",
"670 500 LINE",
"670 485 LINE",
"745 455 LINE",
"640 185 LINE",
"530 415 LINE SMOOTH",
"506 464 OFFCURVE",
"470 500 OFFCURVE",
"395 500 CURVE SMOOTH",
"280 500 LINE",
"280 485 LINE",
"330 470 LINE",
"397 331 LINE",
"340 185 LINE",
"230 415 LINE SMOOTH",
"206 464 OFFCURVE",
"170 500 OFFCURVE",
"95 500 CURVE SMOOTH",
"-20 500 LINE",
"-20 485 LINE",
"30 470 LINE",
"260 -10 LINE"
);
}
);
width = 835;
}
);
unicode = 0077;
},
{
color = 4;
glyphname = x;
lastChange = "2016-09-23 18:44:33 +0000";
layers = (
{
anchors = (
{
name = bottom;
position = "{278, 0}";
},
{
name = top;
position = "{278, 500}";
}
);
layerId = UUID0;
paths = (
{
closed = 1;
nodes = (
"200 0 LINE",
"200 15 LINE",
"125 45 LINE",
"230 179 LINE",
"290 85 LINE SMOOTH",
"322 35 OFFCURVE",
"355 0 OFFCURVE",
"425 0 CURVE SMOOTH",
"560 0 LINE",
"560 15 LINE",
"510 30 LINE",
"331 310 LINE",
"445 455 LINE",
"525 485 LINE",
"525 500 LINE",
"335 500 LINE",
"335 485 LINE",
"410 455 LINE",
"316 334 LINE",
"265 415 LINE SMOOTH",
"233 465 OFFCURVE",
"199 500 OFFCURVE",
"130 500 CURVE SMOOTH",
"-5 500 LINE",
"-5 485 LINE",
"45 470 LINE",
"214 204 LINE",
"90 45 LINE",
"10 15 LINE",
"10 0 LINE"
);
}
);
width = 555;
}
);
unicode = 0078;
},
{
color = 4;
glyphname = y;
lastChange = "2016-09-23 18:44:33 +0000";
layers = (
{
anchors = (
{
name = bottom;
position = "{450, 0}";
},
{
name = top;
position = "{280, 500}";
}
);
layerId = UUID0;
paths = (
{
closed = 1;
nodes = (
"210 -215 OFFCURVE",
"257 -171 OFFCURVE",
"300 -60 CURVE SMOOTH",
"500 455 LINE",
"580 485 LINE",
"580 500 LINE",
"395 500 LINE",
"395 485 LINE",
"470 455 LINE",
"365 184 LINE",
"240 415 LINE",
"214 465 OFFCURVE",
"180 500 OFFCURVE",
"105 500 CURVE SMOOTH",
"-20 500 LINE",
"-20 485 LINE",
"30 470 LINE",
"290 -10 LINE",
"270 -60 LINE SMOOTH",
"233 -151 OFFCURVE",
"207 -179 OFFCURVE",
"170 -185 CURVE",
"170 -50 LINE",
"157 -48 LINE SMOOTH",
"149 -47 OFFCURVE",
"141 -45 OFFCURVE",
"130 -45 CURVE SMOOTH",
"85 -45 OFFCURVE",
"55 -74 OFFCURVE",
"55 -125 CURVE SMOOTH",
"55 -181 OFFCURVE",
"90 -215 OFFCURVE",
"150 -215 CURVE SMOOTH"
);
}
);
width = 560;
}
);
unicode = 0079;
},
{
color = 4;
glyphname = z;
lastChange = "2016-09-23 18:44:33 +0000";
layers = (
{
anchors = (
{
name = bottom;
position = "{273, 0}";
},
{
name = top;
position = "{273, 500}";
}
);
layerId = UUID0;
paths = (
{
closed = 1;
nodes = (
"505 0 LINE",
"505 175 LINE",
"475 175 LINE",
"462 164 OFFCURVE",
"451 151 OFFCURVE",
"442 136 CURVE SMOOTH",
"426 109 OFFCURVE",
"410 72 OFFCURVE",
"410 25 CURVE",
"220 25 LINE",
"505 475 LINE",
"505 500 LINE",
"50 500 LINE",
"50 325 LINE",
"80 325 LINE",
"92 336 OFFCURVE",
"103 349 OFFCURVE",
"112 364 CURVE SMOOTH",
"128 391 OFFCURVE",
"145 427 OFFCURVE",
"145 475 CURVE",
"325 475 LINE",
"40 25 LINE",
"40 0 LINE"
);
}
);
width = 545;
}
);
unicode = 007A;
},
{
color = 4;
glyphname = ordfeminine;
lastChange = "2016-09-23 18:44:33 +0000";
layers = (
{
layerId = UUID0;
paths = (
{
closed = 1;
nodes = (
"190 360 OFFCURVE",
"211 375 OFFCURVE",
"226 390 CURVE SMOOTH",
"234 399 OFFCURVE",
"240 409 OFFCURVE",
"245 420 CURVE",
"248 411 OFFCURVE",
"252 402 OFFCURVE",
"259 395 CURVE SMOOTH",
"270 382 OFFCURVE",
"290 370 OFFCURVE",
"325 370 CURVE SMOOTH",
"385 370 LINE",
"385 385 LINE",
"345 395 LINE",
"345 560 LINE SMOOTH",
"345 656 OFFCURVE",
"291 710 OFFCURVE",
"195 710 CURVE SMOOTH",
"90 710 OFFCURVE",
"50 670 OFFCURVE",
"50 630 CURVE SMOOTH",
"50 599 OFFCURVE",
"69 580 OFFCURVE",
"100 580 CURVE SMOOTH",
"111 580 OFFCURVE",
"118 581 OFFCURVE",
"125 582 CURVE",
"135 585 LINE",
"135 685 LINE",
"148 687 LINE SMOOTH",
"156 688 OFFCURVE",
"164 690 OFFCURVE",
"175 690 CURVE SMOOTH",
"210 690 OFFCURVE",
"235 665 OFFCURVE",
"235 580 CURVE SMOOTH",
"235 545 LINE",
"190 545 OFFCURVE",
"144 537 OFFCURVE",
"109 530 CURVE",
"50 515 LINE",
"46 510 OFFCURVE",
"43 504 OFFCURVE",
"40 497 CURVE SMOOTH",
"35 486 OFFCURVE",
"30 470 OFFCURVE",
"30 450 CURVE SMOOTH",
"30 399 OFFCURVE",
"70 360 OFFCURVE",
"155 360 CURVE SMOOTH"
);
},
{
closed = 1;
nodes = (
"165 385 OFFCURVE",
"140 409 OFFCURVE",
"140 460 CURVE SMOOTH",
"140 476 OFFCURVE",
"142 490 OFFCURVE",
"147 503 CURVE SMOOTH",
"150 510 OFFCURVE",
"152 515 OFFCURVE",
"155 520 CURVE",
"180 522 LINE",
"195 523 OFFCURVE",
"215 525 OFFCURVE",
"235 525 CURVE",
"235 438 LINE",
"231 427 OFFCURVE",
"226 418 OFFCURVE",
"221 411 CURVE SMOOTH",
"212 398 OFFCURVE",
"200 385 OFFCURVE",
"185 385 CURVE SMOOTH"
);
}
);
width = 415;
}
);
unicode = 00AA;
},
{
color = 4;
glyphname = ordmasculine;
lastChange = "2016-09-23 18:44:33 +0000";
layers = (
{
layerId = UUID0;
paths = (
{
closed = 1;
nodes = (
"290 360 OFFCURVE",
"360 430 OFFCURVE",
"360 535 CURVE SMOOTH",
"360 640 OFFCURVE",
"290 710 OFFCURVE",
"195 710 CURVE SMOOTH",
"100 710 OFFCURVE",
"30 640 OFFCURVE",
"30 535 CURVE SMOOTH",
"30 430 OFFCURVE",
"100 360 OFFCURVE",
"195 360 CURVE SMOOTH"
);
},
{
closed = 1;
nodes = (
"170 380 OFFCURVE",
"140 410 OFFCURVE",
"140 535 CURVE SMOOTH",
"140 660 OFFCURVE",
"170 690 OFFCURVE",
"195 690 CURVE SMOOTH",
"220 690 OFFCURVE",
"250 660 OFFCURVE",
"250 535 CURVE SMOOTH",
"250 410 OFFCURVE",
"220 380 OFFCURVE",
"195 380 CURVE SMOOTH"
);
}
);
width = 390;
}
);
unicode = 00BA;
},
{
color = 4;
glyphname = "Be-cy";
lastChange = "2016-09-23 18:44:33 +0000";
layers = (
{
layerId = UUID0;
paths = (
{
closed = 1;
nodes = (
"330 0 LINE SMOOTH",
"560 0 OFFCURVE",
"640 80 OFFCURVE",
"640 205 CURVE SMOOTH",
"640 330 OFFCURVE",
"560 410 OFFCURVE",
"330 410 CURVE SMOOTH",
"275 410 LINE",
"275 675 LINE",
"485 675 LINE",
"485 622 OFFCURVE",
"501 585 OFFCURVE",
"517 558 CURVE SMOOTH",
"526 543 OFFCURVE",
"537 530 OFFCURVE",
"550 520 CURVE",
"580 520 LINE",
"580 700 LINE",
"50 700 LINE",
"50 685 LINE",
"110 670 LINE",
"110 30 LINE",
"50 15 LINE",
"50 0 LINE"
);
},
{
closed = 1;
nodes = (
"275 385 LINE",
"330 385 LINE",
"410 385 OFFCURVE",
"470 325 OFFCURVE",
"470 205 CURVE SMOOTH",
"470 85 OFFCURVE",
"410 25 OFFCURVE",
"330 25 CURVE SMOOTH",
"275 25 LINE"
);
}
);
width = 670;
}
);
unicode = 0411;
},
{
color = 4;
glyphname = "Ve-cy";
lastChange = "2016-09-23 18:44:33 +0000";
layers = (
{
layerId = UUID0;
paths = (
{
closed = 1;
nodes = (
"340 0 LINE SMOOTH",
"570 0 OFFCURVE",
"650 80 OFFCURVE",
"650 190 CURVE SMOOTH",
"650 276 OFFCURVE",
"586 322 OFFCURVE",
"522 343 CURVE SMOOTH",
"485 356 OFFCURVE",
"442 363 OFFCURVE",
"395 365 CURVE",
"395 370 LINE",
"436 371 OFFCURVE",
"473 378 OFFCURVE",
"505 389 CURVE SMOOTH",
"560 407 OFFCURVE",
"615 447 OFFCURVE",
"615 525 CURVE SMOOTH",
"615 620 OFFCURVE",
"535 700 OFFCURVE",
"320 700 CURVE SMOOTH",
"50 700 LINE",
"50 685 LINE",
"110 670 LINE",
"110 30 LINE",
"50 15 LINE",
"50 0 LINE"
);
},
{
closed = 1;
nodes = (
"275 355 LINE",
"340 355 LINE",
"420 355 OFFCURVE",
"480 295 OFFCURVE",
"480 190 CURVE SMOOTH",
"480 85 OFFCURVE",
"420 25 OFFCURVE",
"340 25 CURVE SMOOTH",
"275 25 LINE"
);
},
{
closed = 1;
nodes = (
"275 675 LINE",
"320 675 LINE SMOOTH",
"385 675 OFFCURVE",
"445 615 OFFCURVE",
"445 525 CURVE SMOOTH",
"445 440 OFFCURVE",
"385 380 OFFCURVE",
"320 380 CURVE SMOOTH",
"275 380 LINE"
);
}
);
width = 680;
}
);
unicode = 0412;
},
{
color = 4;
glyphname = "Ge-cy";
lastChange = "2016-09-23 18:42:53 +0000";
layers = (
{
anchors = (
{
name = bottomright;
position = "{110, 0}";
},
{
name = center;
position = "{215, 350}";
},
{
name = top;
position = "{335, 700}";
}
);
layerId = UUID0;
paths = (
{
closed = 1;
nodes = (
"335 0 LINE",
"335 15 LINE",
"275 30 LINE",
"275 675 LINE",
"490 675 LINE",
"490 622 OFFCURVE",
"506 585 OFFCURVE",
"522 558 CURVE SMOOTH",
"531 543 OFFCURVE",
"542 530 OFFCURVE",
"555 520 CURVE",
"585 520 LINE",
"585 700 LINE",
"50 700 LINE",
"50 685 LINE",
"110 670 LINE",
"110 30 LINE",
"50 15 LINE",
"50 0 LINE"
);
}
);
width = 610;
}
);
unicode = 0413;
},
{
color = 4;
glyphname = "Gheupturn-cy";
lastChange = "2016-09-23 18:44:33 +0000";
layers = (
{
layerId = UUID0;
paths = (
{
closed = 1;
nodes = (
"335 0 LINE",
"335 15 LINE",
"275 30 LINE",
"275 675 LINE",
"585 675 LINE",
"585 855 LINE",
"555 855 LINE",
"542 845 OFFCURVE",
"531 832 OFFCURVE",
"522 817 CURVE SMOOTH",
"506 790 OFFCURVE",
"490 752 OFFCURVE",
"490 700 CURVE",
"50 700 LINE",
"50 685 LINE",
"110 670 LINE",
"110 30 LINE",
"50 15 LINE",
"50 0 LINE"
);
}
);
width = 590;
}
);
unicode = 0490;
},
{
color = 4;
glyphname = "De-cy";
lastChange = "2016-09-23 18:44:33 +0000";
layers = (
{
layerId = UUID0;
paths = (
{
closed = 1;
nodes = (
"20 -170 LINE",
"36 -158 OFFCURVE",
"50 -143 OFFCURVE",
"62 -126 CURVE SMOOTH",
"83 -97 OFFCURVE",
"105 -56 OFFCURVE",
"105 0 CURVE",
"570 0 LINE",
"570 -56 OFFCURVE",
"591 -97 OFFCURVE",
"612 -126 CURVE SMOOTH",
"624 -143 OFFCURVE",
"638 -158 OFFCURVE",
"655 -170 CURVE",
"685 -170 LINE",
"685 25 LINE",
"590 25 LINE",
"590 670 LINE",
"650 685 LINE",
"650 700 LINE",
"125 700 LINE",
"125 685 LINE",
"195 665 LINE",
"175 250 LINE SMOOTH",
"171 170 OFFCURVE",
"144 113 OFFCURVE",
"119 77 CURVE SMOOTH",
"104 56 OFFCURVE",
"88 38 OFFCURVE",
"70 25 CURVE",
"-10 25 LINE",
"-10 -170 LINE"
);
},
{
closed = 1;
nodes = (
"122 38 OFFCURVE",
"138 56 OFFCURVE",
"152 77 CURVE SMOOTH",
"176 113 OFFCURVE",
"201 170 OFFCURVE",
"205 250 CURVE SMOOTH",
"225 675 LINE",
"425 675 LINE",
"425 25 LINE",
"105 25 LINE"
);
}
);
width = 700;
}
);
unicode = 0414;
},
{
color = 4;
glyphname = "Io-cy";
lastChange = "2016-09-23 18:44:33 +0000";
layers = (
{
layerId = UUID0;
paths = (
{
closed = 1;
nodes = (
"605 0 LINE",
"605 180 LINE",
"575 180 LINE",
"562 170 OFFCURVE",
"551 157 OFFCURVE",
"542 142 CURVE SMOOTH",
"526 115 OFFCURVE",
"510 77 OFFCURVE",
"510 25 CURVE",
"275 25 LINE",
"275 335 LINE",
"390 335 LINE",
"395 307 OFFCURVE",
"405 283 OFFCURVE",
"416 264 CURVE SMOOTH",
"422 253 OFFCURVE",
"428 244 OFFCURVE",
"435 235 CURVE",
"465 235 LINE",
"465 460 LINE",
"435 460 LINE",
"428 451 OFFCURVE",
"422 442 OFFCURVE",
"416 431 CURVE SMOOTH",
"405 412 OFFCURVE",
"395 387 OFFCURVE",
"390 360 CURVE",
"275 360 LINE",
"275 675 LINE",
"490 675 LINE",
"490 622 OFFCURVE",
"506 585 OFFCURVE",
"522 558 CURVE SMOOTH",
"531 543 OFFCURVE",
"542 530 OFFCURVE",
"555 520 CURVE",
"585 520 LINE",
"585 700 LINE",
"50 700 LINE",
"50 685 LINE",
"110 670 LINE",
"110 30 LINE",
"50 15 LINE",
"50 0 LINE"
);
},
{
closed = 1;
nodes = (
"290 770 OFFCURVE",
"320 800 OFFCURVE",
"320 840 CURVE SMOOTH",
"320 880 OFFCURVE",
"290 910 OFFCURVE",
"250 910 CURVE SMOOTH",
"210 910 OFFCURVE",
"180 880 OFFCURVE",
"180 840 CURVE SMOOTH",
"180 800 OFFCURVE",
"210 770 OFFCURVE",
"250 770 CURVE SMOOTH"
);
},
{
closed = 1;
nodes = (
"475 770 OFFCURVE",
"505 800 OFFCURVE",
"505 840 CURVE SMOOTH",
"505 880 OFFCURVE",
"475 910 OFFCURVE",
"435 910 CURVE SMOOTH",
"395 910 OFFCURVE",
"365 880 OFFCURVE",
"365 840 CURVE SMOOTH",
"365 800 OFFCURVE",
"395 770 OFFCURVE",
"435 770 CURVE SMOOTH"
);
}
);
width = 645;
}
);
unicode = 0401;
},
{
color = 4;
glyphname = "Zhe-cy";
lastChange = "2016-09-23 18:44:33 +0000";
layers = (
{
anchors = (
{
name = bottomright;
position = "{756, 0}";
},
{
name = top;
position = "{513, 700}";
}
);
layerId = UUID0;
paths = (
{
closed = 1;
nodes = (
"125 0 LINE SMOOTH",
"200 0 OFFCURVE",
"233 34 OFFCURVE",
"250 85 CURVE SMOOTH",
"345 360 LINE",
"430 360 LINE",
"430 30 LINE",
"370 15 LINE",
"370 0 LINE",
"655 0 LINE",
"655 15 LINE",
"595 30 LINE",
"595 360 LINE",
"680 360 LINE",
"775 85 LINE SMOOTH",
"792 34 OFFCURVE",
"825 0 OFFCURVE",
"900 0 CURVE SMOOTH",
"1020 0 LINE",
"1020 15 LINE",
"970 30 LINE",
"880 295 LINE SMOOTH",
"865 340 OFFCURVE",
"825 380 OFFCURVE",
"730 380 CURVE SMOOTH",
"705 380 LINE",
"714 385 OFFCURVE",
"722 391 OFFCURVE",
"730 400 CURVE SMOOTH",
"745 415 OFFCURVE",
"759 440 OFFCURVE",
"770 480 CURVE SMOOTH",
"805 610 LINE SMOOTH",
"816 650 OFFCURVE",
"839 675 OFFCURVE",
"860 680 CURVE",
"860 540 LINE",
"872 537 LINE SMOOTH",
"879 536 OFFCURVE",
"889 535 OFFCURVE",
"900 535 CURVE SMOOTH",
"945 535 OFFCURVE",
"980 569 OFFCURVE",
"980 620 CURVE SMOOTH",
"980 671 OFFCURVE",
"940 710 OFFCURVE",
"880 710 CURVE SMOOTH",
"829 710 OFFCURVE",
"791 670 OFFCURVE",
"775 610 CURVE SMOOTH",
"740 480 LINE SMOOTH",
"724 420 OFFCURVE",
"691 385 OFFCURVE",
"640 385 CURVE SMOOTH",
"595 385 LINE",
"595 670 LINE",
"655 685 LINE",
"655 700 LINE",
"370 700 LINE",
"370 685 LINE",
"430 670 LINE",
"430 385 LINE",
"385 385 LINE SMOOTH",
"334 385 OFFCURVE",
"301 420 OFFCURVE",
"285 480 CURVE SMOOTH",
"250 610 LINE SMOOTH",
"234 670 OFFCURVE",
"196 710 OFFCURVE",
"145 710 CURVE SMOOTH",
"85 710 OFFCURVE",
"45 671 OFFCURVE",
"45 620 CURVE SMOOTH",
"45 569 OFFCURVE",
"80 535 OFFCURVE",
"125 535 CURVE SMOOTH",
"136 535 OFFCURVE",
"144 536 OFFCURVE",
"152 537 CURVE SMOOTH",
"165 540 LINE",
"165 680 LINE",
"186 675 OFFCURVE",
"209 650 OFFCURVE",
"220 610 CURVE SMOOTH",
"255 480 LINE SMOOTH",
"276 403 OFFCURVE",
"316 380 OFFCURVE",
"319 380 CURVE SMOOTH",
"295 380 LINE SMOOTH",
"200 380 OFFCURVE",
"160 340 OFFCURVE",
"145 295 CURVE SMOOTH",
"55 30 LINE",
"5 15 LINE",
"5 0 LINE"
);
}
);
width = 1025;
}
);
unicode = 0416;
},
{
color = 4;
glyphname = "Ze-cy";
lastChange = "2016-09-23 18:44:33 +0000";
layers = (
{
anchors = (
{
name = bottom;
position = "{278, 0}";
},
{
name = top;
position = "{278, 700}";
}
);
layerId = UUID0;
paths = (
{
closed = 1;
nodes = (
"495 -15 OFFCURVE",
"585 75 OFFCURVE",
"585 180 CURVE SMOOTH",
"585 272 OFFCURVE",
"521 318 OFFCURVE",
"460 342 CURVE",
"423 355 OFFCURVE",
"382 363 OFFCURVE",
"335 365 CURVE",
"335 370 LINE",
"376 372 OFFCURVE",
"413 379 OFFCURVE",
"445 391 CURVE SMOOTH",
"500 412 OFFCURVE",
"555 452 OFFCURVE",
"555 535 CURVE SMOOTH",
"555 625 OFFCURVE",
"465 715 OFFCURVE",
"290 715 CURVE SMOOTH",
"245 715 OFFCURVE",
"206 698 OFFCURVE",
"179 682 CURVE SMOOTH",
"162 673 OFFCURVE",
"148 662 OFFCURVE",
"135 650 CURVE",
"124 667 OFFCURVE",
"111 682 OFFCURVE",
"100 691 CURVE SMOOTH",
"93 696 OFFCURVE",
"87 701 OFFCURVE",
"80 705 CURVE",
"55 705 LINE",
"55 515 LINE",
"95 515 LINE",
"104 547 OFFCURVE",
"117 576 OFFCURVE",
"134 602 CURVE SMOOTH",
"161 646 OFFCURVE",
"206 690 OFFCURVE",
"270 690 CURVE SMOOTH",
"335 690 OFFCURVE",
"385 640 OFFCURVE",
"385 535 CURVE SMOOTH",
"385 430 OFFCURVE",
"336 380 OFFCURVE",
"265 380 CURVE SMOOTH",
"200 380 LINE",
"200 355 LINE",
"275 355 LINE SMOOTH",
"355 355 OFFCURVE",
"415 296 OFFCURVE",
"415 180 CURVE SMOOTH",
"415 69 OFFCURVE",
"355 10 OFFCURVE",
"255 10 CURVE SMOOTH",
"140 10 OFFCURVE",
"50 100 OFFCURVE",
"50 200 CURVE",
"25 200 LINE",
"25 85 OFFCURVE",
"126 -15 OFFCURVE",
"275 -15 CURVE SMOOTH"
);
}
);
width = 615;
}
);
unicode = 0417;
},
{
color = 4;
glyphname = "Ii-cy";
lastChange = "2016-09-23 18:44:33 +0000";
layers = (
{
anchors = (
{
name = bottomright;
position = "{510, 0}";
},
{
name = top;
position = "{393, 700}";
}
);
layerId = UUID0;
paths = (
{
closed = 1;
nodes = (
"335 0 LINE",
"335 15 LINE",
"275 30 LINE",
"275 105 LINE",
"510 535 LINE",
"510 30 LINE",
"450 15 LINE",
"450 0 LINE",
"735 0 LINE",
"735 15 LINE",
"675 30 LINE",
"675 670 LINE",
"735 685 LINE",
"735 700 LINE",
"450 700 LINE",
"450 685 LINE",
"510 670 LINE",
"510 595 LINE",
"275 165 LINE",
"275 670 LINE",
"335 685 LINE",
"335 700 LINE",
"50 700 LINE",
"50 685 LINE",
"110 670 LINE",
"110 30 LINE",
"50 15 LINE",
"50 0 LINE"
);
}
);
width = 785;
}
);
unicode = 0418;
},
{
color = 4;
glyphname = "Iishort-cy";
lastChange = "2016-09-23 18:44:33 +0000";
layers = (
{
layerId = UUID0;
paths = (
{
closed = 1;
nodes = (
"335 0 LINE",
"335 15 LINE",
"275 30 LINE",
"275 105 LINE",
"510 535 LINE",
"510 30 LINE",
"450 15 LINE",
"450 0 LINE",
"735 0 LINE",
"735 15 LINE",
"675 30 LINE",
"675 670 LINE",
"735 685 LINE",
"735 700 LINE",
"450 700 LINE",
"450 685 LINE",
"510 670 LINE",
"510 595 LINE",
"275 165 LINE",
"275 670 LINE",
"335 685 LINE",
"335 700 LINE",
"50 700 LINE",
"50 685 LINE",
"110 670 LINE",
"110 30 LINE",
"50 15 LINE",
"50 0 LINE"
);
},
{
closed = 1;
nodes = (
"499 770 OFFCURVE",
"540 810 OFFCURVE",
"540 855 CURVE SMOOTH",
"540 890 OFFCURVE",
"515 915 OFFCURVE",
"480 915 CURVE SMOOTH",
"472 915 OFFCURVE",
"464 913 OFFCURVE",
"457 912 CURVE SMOOTH",
"445 910 LINE",
"445 800 LINE",
"445 801 OFFCURVE",
"425 790 OFFCURVE",
"390 790 CURVE SMOOTH",
"355 790 OFFCURVE",
"335 801 OFFCURVE",
"335 800 CURVE",
"335 910 LINE",
"323 912 LINE SMOOTH",
"316 913 OFFCURVE",
"307 915 OFFCURVE",
"300 915 CURVE SMOOTH",
"265 915 OFFCURVE",
"240 890 OFFCURVE",
"240 855 CURVE SMOOTH",
"240 810 OFFCURVE",
"281 770 OFFCURVE",
"390 770 CURVE SMOOTH"
);
}
);
width = 785;
}
);
unicode = 0419;
},
{
color = 4;
glyphname = "Ka-cy";
lastChange = "2016-09-23 18:44:33 +0000";
layers = (
{
anchors = (
{
name = bottomright;
position = "{451, 0}";
},
{
name = center;
position = "{342, 373}";
},
{
name = top;
position = "{385, 700}";
}
);
layerId = UUID0;
paths = (
{
closed = 1;
nodes = (
"335 0 LINE",
"335 15 LINE",
"275 30 LINE",
"275 360 LINE",
"365 360 LINE",
"460 85 LINE SMOOTH",
"477 34 OFFCURVE",
"510 0 OFFCURVE",
"585 0 CURVE SMOOTH",
"705 0 LINE",
"705 15 LINE",
"655 30 LINE",
"565 295 LINE SMOOTH",
"550 340 OFFCURVE",
"510 380 OFFCURVE",
"415 380 CURVE SMOOTH",
"390 380 LINE",
"399 385 OFFCURVE",
"407 391 OFFCURVE",
"415 400 CURVE SMOOTH",
"430 415 OFFCURVE",
"444 440 OFFCURVE",
"455 480 CURVE SMOOTH",
"490 610 LINE SMOOTH",
"501 650 OFFCURVE",
"524 675 OFFCURVE",
"545 680 CURVE",
"545 540 LINE",
"557 537 LINE SMOOTH",
"564 536 OFFCURVE",
"574 535 OFFCURVE",
"585 535 CURVE SMOOTH",
"630 535 OFFCURVE",
"665 569 OFFCURVE",
"665 620 CURVE SMOOTH",
"665 671 OFFCURVE",
"625 710 OFFCURVE",
"565 710 CURVE SMOOTH",
"514 710 OFFCURVE",
"476 670 OFFCURVE",
"460 610 CURVE SMOOTH",
"425 480 LINE SMOOTH",
"409 420 OFFCURVE",
"376 385 OFFCURVE",
"325 385 CURVE SMOOTH",
"275 385 LINE",
"275 670 LINE",
"335 685 LINE",
"335 700 LINE",
"50 700 LINE",
"50 685 LINE",
"110 670 LINE",
"110 30 LINE",
"50 15 LINE",
"50 0 LINE"
);
}
);
width = 710;
}
);
unicode = 041A;
},
{
color = 4;
glyphname = "El-cy";
lastChange = "2016-09-23 18:42:53 +0000";
layers = (
{
layerId = UUID0;
paths = (
{
closed = 1;
nodes = (
"155 -15 OFFCURVE",
"214 45 OFFCURVE",
"225 250 CURVE",
"245 675 LINE",
"435 675 LINE",
"435 30 LINE",
"375 15 LINE",
"375 0 LINE",
"660 0 LINE",
"660 15 LINE",
"600 30 LINE",
"600 670 LINE",
"660 685 LINE",
"660 700 LINE",
"145 700 LINE",
"145 685 LINE",
"215 665 LINE",
"195 250 LINE",
"187 65 OFFCURVE",
"144 25 OFFCURVE",
"110 15 CURVE",
"110 155 LINE",
"97 157 LINE SMOOTH",
"89 158 OFFCURVE",
"81 160 OFFCURVE",
"70 160 CURVE SMOOTH",
"25 160 OFFCURVE",
"-10 126 OFFCURVE",
"-10 75 CURVE SMOOTH",
"-10 24 OFFCURVE",
"30 -15 OFFCURVE",
"90 -15 CURVE SMOOTH"
);
}
);
width = 710;
}
);
unicode = 041B;
},
{
color = 4;
glyphname = "Em-cy";
lastChange = "2016-09-23 18:44:33 +0000";
layers = (
{
layerId = UUID0;
paths = (
{
closed = 1;
nodes = (
"475 -10 LINE",
"710 575 LINE",
"710 30 LINE",
"650 15 LINE",
"650 0 LINE",
"935 0 LINE",
"935 15 LINE",
"875 30 LINE",
"875 670 LINE",
"935 685 LINE",
"935 700 LINE",
"830 700 LINE SMOOTH",
"746 700 OFFCURVE",
"716 670 OFFCURVE",
"695 615 CURVE",
"528 198 LINE",
"310 615 LINE SMOOTH",
"284 665 OFFCURVE",
"250 700 OFFCURVE",
"175 700 CURVE SMOOTH",
"40 700 LINE",
"40 685 LINE",
"110 670 LINE",
"110 45 LINE",
"30 15 LINE",
"30 0 LINE",
"220 0 LINE",
"220 15 LINE",
"140 45 LINE",
"140 575 LINE",
"445 -10 LINE"
);
}
);
width = 985;
}
);
unicode = 041C;
},
{
color = 4;
glyphname = "Pe-cy";
lastChange = "2016-09-23 18:44:33 +0000";
layers = (
{
anchors = (
{
name = bottomright;
position = "{490, 0}";
}
);
layerId = UUID0;
paths = (
{
closed = 1;
nodes = (
"335 0 LINE",
"335 15 LINE",
"275 30 LINE",
"275 675 LINE",
"490 675 LINE",
"490 30 LINE",
"430 15 LINE",
"430 0 LINE",
"715 0 LINE",
"715 15 LINE",
"655 30 LINE",
"655 670 LINE",
"715 685 LINE",
"715 700 LINE",
"50 700 LINE",
"50 685 LINE",
"110 670 LINE",
"110 30 LINE",
"50 15 LINE",
"50 0 LINE"
);
}
);
width = 765;
}
);
unicode = 041F;
},
{
color = 4;
glyphname = "Er-cy";
lastChange = "2016-09-23 18:44:33 +0000";
layers = (
{
layerId = UUID0;
paths = (
{
closed = 1;
nodes = (
"335 0 LINE",
"335 15 LINE",
"275 30 LINE",
"275 270 LINE",
"330 270 LINE",
"560 270 OFFCURVE",
"640 350 OFFCURVE",
"640 485 CURVE SMOOTH",
"640 620 OFFCURVE",
"560 700 OFFCURVE",
"330 700 CURVE SMOOTH",
"50 700 LINE",
"50 685 LINE",
"110 670 LINE",
"110 30 LINE",
"50 15 LINE",
"50 0 LINE"
);
},
{
closed = 1;
nodes = (
"275 675 LINE",
"330 675 LINE SMOOTH",
"410 675 OFFCURVE",
"470 614 OFFCURVE",
"470 485 CURVE SMOOTH",
"470 355 OFFCURVE",
"410 295 OFFCURVE",
"330 295 CURVE SMOOTH",
"275 295 LINE"
);
}
);
width = 675;
}
);
unicode = 0420;
},
{
color = 4;
glyphname = "Te-cy";
lastChange = "2016-09-23 18:42:53 +0000";
layers = (
{
layerId = UUID0;
paths = (
{
closed = 1;
nodes = (
"460 0 LINE",
"460 15 LINE",
"400 30 LINE",
"400 675 LINE",
"515 675 LINE",
"515 622 OFFCURVE",
"531 585 OFFCURVE",
"547 558 CURVE SMOOTH",
"556 543 OFFCURVE",
"567 530 OFFCURVE",
"580 520 CURVE",
"610 520 LINE",
"610 700 LINE",
"25 700 LINE",
"25 520 LINE",
"55 520 LINE",
"67 530 OFFCURVE",
"78 543 OFFCURVE",
"87 558 CURVE SMOOTH",
"103 585 OFFCURVE",
"120 622 OFFCURVE",
"120 675 CURVE",
"235 675 LINE",
"235 30 LINE",
"175 15 LINE",
"175 0 LINE"
);
}
);
width = 635;
}
);
unicode = 0422;
},
{
color = 4;
glyphname = "U-cy";
lastChange = "2016-09-23 18:44:33 +0000";
layers = (
{
anchors = (
{
name = top;
position = "{360, 700}";
}
);
layerId = UUID0;
paths = (
{
closed = 1;
nodes = (
"281 -15 OFFCURVE",
"327 29 OFFCURVE",
"375 140 CURVE SMOOTH",
"600 655 LINE",
"680 685 LINE",
"680 700 LINE",
"495 700 LINE",
"495 685 LINE",
"570 655 LINE",
"424 322 LINE",
"255 615 LINE",
"228 660 OFFCURVE",
"191 700 OFFCURVE",
"120 700 CURVE SMOOTH",
"-10 700 LINE",
"-10 685 LINE",
"40 670 LINE",
"345 140 LINE",
"310 55 OFFCURVE",
"276 20 OFFCURVE",
"245 15 CURVE",
"245 155 LINE",
"232 157 LINE SMOOTH",
"224 158 OFFCURVE",
"216 160 OFFCURVE",
"205 160 CURVE SMOOTH",
"160 160 OFFCURVE",
"125 126 OFFCURVE",
"125 75 CURVE SMOOTH",
"125 24 OFFCURVE",
"165 -15 OFFCURVE",
"225 -15 CURVE SMOOTH"
);
}
);
width = 660;
}
);
unicode = 0423;
},
{
color = 4;
glyphname = "Ef-cy";
lastChange = "2016-09-23 18:44:33 +0000";
layers = (
{
layerId = UUID0;
paths = (
{
closed = 1;
nodes = (
"590 0 LINE",
"590 15 LINE",
"530 30 LINE",
"530 85 LINE",
"754 96 OFFCURVE",
"875 215 OFFCURVE",
"875 360 CURVE SMOOTH",
"875 505 OFFCURVE",
"754 624 OFFCURVE",
"530 635 CURVE",
"530 685 LINE",
"590 700 LINE",
"590 715 LINE",
"305 715 LINE",
"305 700 LINE",
"365 685 LINE",
"365 635 LINE",
"141 624 OFFCURVE",
"20 505 OFFCURVE",
"20 360 CURVE SMOOTH",
"20 215 OFFCURVE",
"141 96 OFFCURVE",
"365 85 CURVE",
"365 30 LINE",
"305 15 LINE",
"305 0 LINE"
);
},
{
closed = 1;
nodes = (
"275 116 OFFCURVE",
"195 195 OFFCURVE",
"195 360 CURVE SMOOTH",
"195 525 OFFCURVE",
"275 604 OFFCURVE",
"365 615 CURVE",
"365 105 LINE"
);
},
{
closed = 1;
nodes = (
"530 615 LINE",
"620 604 OFFCURVE",
"700 525 OFFCURVE",
"700 360 CURVE SMOOTH",
"700 195 OFFCURVE",
"620 116 OFFCURVE",
"530 105 CURVE"
);
}
);
width = 895;
}
);
unicode = 0424;
},
{
color = 4;
glyphname = "Ha-cy";
lastChange = "2016-09-23 18:44:33 +0000";
layers = (
{
layerId = UUID0;
paths = (
{
closed = 1;
nodes = (
"205 0 LINE",
"205 15 LINE",
"130 45 LINE",
"282 268 LINE",
"390 85 LINE SMOOTH",
"421 34 OFFCURVE",
"454 0 OFFCURVE",
"525 0 CURVE SMOOTH",
"670 0 LINE",
"670 15 LINE",
"620 30 LINE",
"388 424 LINE",
"545 655 LINE",
"625 685 LINE",
"625 700 LINE",
"435 700 LINE",
"435 685 LINE",
"510 655 LINE",
"371 451 LINE",
"275 615 LINE",
"244 666 OFFCURVE",
"211 700 OFFCURVE",
"140 700 CURVE SMOOTH",
"-5 700 LINE",
"-5 685 LINE",
"45 670 LINE",
"265 296 LINE",
"95 45 LINE",
"15 15 LINE",
"15 0 LINE"
);
}
);
width = 665;
}
);
unicode = 0425;
},
{
color = 4;
glyphname = "Che-cy";
lastChange = "2016-09-23 18:44:33 +0000";
layers = (
{
anchors = (
{
name = bottomright;
position = "{450, 0}";
},
{
name = center;
position = "{353, 279}";
},
{
name = top;
position = "{343, 700}";
}
);
layerId = UUID0;
paths = (
{
closed = 1;
nodes = (
"675 0 LINE",
"675 15 LINE",
"615 30 LINE",
"615 670 LINE",
"675 685 LINE",
"675 700 LINE",
"390 700 LINE",
"390 685 LINE",
"450 670 LINE",
"450 320 LINE",
"442 314 OFFCURVE",
"433 309 OFFCURVE",
"424 305 CURVE SMOOTH",
"408 297 OFFCURVE",
"385 290 OFFCURVE",
"360 290 CURVE SMOOTH",
"284 290 OFFCURVE",
"245 329 OFFCURVE",
"245 440 CURVE SMOOTH",
"245 670 LINE",
"305 685 LINE",
"305 700 LINE",
"20 700 LINE",
"20 685 LINE",
"80 670 LINE",
"80 440 LINE SMOOTH",
"80 335 OFFCURVE",
"149 265 OFFCURVE",
"320 265 CURVE SMOOTH",
"360 265 OFFCURVE",
"392 272 OFFCURVE",
"415 280 CURVE SMOOTH",
"428 284 OFFCURVE",
"439 289 OFFCURVE",
"450 295 CURVE",
"450 30 LINE",
"390 15 LINE",
"390 0 LINE"
);
}
);
width = 725;
}
);
unicode = 0427;
},
{
color = 4;
glyphname = "Tse-cy";
lastChange = "2016-09-23 18:44:33 +0000";
layers = (
{
layerId = UUID0;
paths = (
{
closed = 1;
nodes = (
"750 -170 LINE",
"750 25 LINE",
"655 25 LINE",
"655 670 LINE",
"715 685 LINE",
"715 700 LINE",
"430 700 LINE",
"430 685 LINE",
"490 670 LINE",
"490 25 LINE",
"275 25 LINE",
"275 670 LINE",
"335 685 LINE",
"335 700 LINE",
"50 700 LINE",
"50 685 LINE",
"110 670 LINE",
"110 30 LINE",
"50 15 LINE",
"50 0 LINE",
"635 0 LINE",
"635 -56 OFFCURVE",
"656 -97 OFFCURVE",
"677 -126 CURVE SMOOTH",
"689 -143 OFFCURVE",
"703 -158 OFFCURVE",
"720 -170 CURVE"
);
}
);
width = 765;
}
);
unicode = 0426;
},
{
color = 4;
glyphname = "Sha-cy";
lastChange = "2016-09-23 18:44:33 +0000";
layers = (
{
layerId = UUID0;
paths = (
{
closed = 1;
nodes = (
"1035 0 LINE",
"1035 15 LINE",
"975 30 LINE",
"975 670 LINE",
"1035 685 LINE",
"1035 700 LINE",
"750 700 LINE",
"750 685 LINE",
"810 670 LINE",
"810 25 LINE",
"625 25 LINE",
"625 670 LINE",
"685 685 LINE",
"685 700 LINE",
"400 700 LINE",
"400 685 LINE",
"460 670 LINE",
"460 25 LINE",
"275 25 LINE",
"275 670 LINE",
"335 685 LINE",
"335 700 LINE",
"50 700 LINE",
"50 685 LINE",
"110 670 LINE",
"110 30 LINE",
"50 15 LINE",
"50 0 LINE"
);
}
);
width = 1085;
}
);
unicode = 0428;
},
{
color = 4;
glyphname = "Shcha-cy";
lastChange = "2016-09-23 18:44:33 +0000";
layers = (
{
layerId = UUID0;
paths = (
{
closed = 1;
nodes = (
"1070 -170 LINE",
"1070 25 LINE",
"975 25 LINE",
"975 670 LINE",
"1035 685 LINE",
"1035 700 LINE",
"750 700 LINE",
"750 685 LINE",
"810 670 LINE",
"810 25 LINE",
"625 25 LINE",
"625 670 LINE",
"685 685 LINE",
"685 700 LINE",
"400 700 LINE",
"400 685 LINE",
"460 670 LINE",
"460 25 LINE",
"275 25 LINE",
"275 670 LINE",
"335 685 LINE",
"335 700 LINE",
"50 700 LINE",
"50 685 LINE",
"110 670 LINE",
"110 30 LINE",
"50 15 LINE",
"50 0 LINE",
"955 0 LINE",
"955 -56 OFFCURVE",
"976 -97 OFFCURVE",
"997 -126 CURVE SMOOTH",
"1009 -143 OFFCURVE",
"1023 -158 OFFCURVE",
"1040 -170 CURVE"
);
}
);
width = 1085;
}
);
unicode = 0429;
},
{
color = 4;
glyphname = "Dzhe-cy";
lastChange = "2016-09-23 18:44:33 +0000";
layers = (
{
layerId = UUID0;
paths = (
{
closed = 1;
nodes = (
"400 -165 LINE",
"406 -152 OFFCURVE",
"412 -137 OFFCURVE",
"417 -120 CURVE SMOOTH",
"426 -91 OFFCURVE",
"435 -51 OFFCURVE",
"435 0 CURVE",
"715 0 LINE",
"715 15 LINE",
"655 30 LINE",
"655 670 LINE",
"715 685 LINE",
"715 700 LINE",
"430 700 LINE",
"430 685 LINE",
"490 670 LINE",
"490 25 LINE",
"275 25 LINE",
"275 670 LINE",
"335 685 LINE",
"335 700 LINE",
"50 700 LINE",
"50 685 LINE",
"110 670 LINE",
"110 30 LINE",
"50 15 LINE",
"50 0 LINE",
"330 0 LINE",
"330 -51 OFFCURVE",
"338 -91 OFFCURVE",
"347 -120 CURVE SMOOTH",
"352 -137 OFFCURVE",
"358 -152 OFFCURVE",
"365 -165 CURVE"
);
}
);
width = 765;
}
);
unicode = 040F;
},
{
color = 4;
glyphname = "Softsign-cy";
lastChange = "2016-09-23 18:44:33 +0000";
layers = (
{
layerId = UUID0;
paths = (
{
closed = 1;
nodes = (
"340 0 LINE SMOOTH",
"570 0 OFFCURVE",
"650 79 OFFCURVE",
"650 210 CURVE SMOOTH",
"650 341 OFFCURVE",
"570 420 OFFCURVE",
"340 420 CURVE SMOOTH",
"275 420 LINE",
"275 670 LINE",
"335 685 LINE",
"335 700 LINE",
"50 700 LINE",
"50 685 LINE",
"110 670 LINE",
"110 30 LINE",
"50 15 LINE",
"50 0 LINE"
);
},
{
closed = 1;
nodes = (
"275 395 LINE",
"340 395 LINE",
"420 395 OFFCURVE",
"480 335 OFFCURVE",
"480 210 CURVE SMOOTH",
"480 85 OFFCURVE",
"420 25 OFFCURVE",
"340 25 CURVE SMOOTH",
"275 25 LINE"
);
}
);
width = 675;
}
);
unicode = 042C;
},
{
color = 4;
glyphname = "Hardsign-cy";
lastChange = "2016-09-23 18:44:33 +0000";
layers = (
{
layerId = UUID0;
paths = (
{
closed = 1;
nodes = (
"420 0 LINE SMOOTH",
"650 0 OFFCURVE",
"730 79 OFFCURVE",
"730 210 CURVE SMOOTH",
"730 341 OFFCURVE",
"650 420 OFFCURVE",
"420 420 CURVE SMOOTH",
"365 420 LINE",
"365 670 LINE",
"425 685 LINE",
"425 700 LINE",
"25 700 LINE",
"25 520 LINE",
"55 520 LINE",
"67 530 OFFCURVE",
"78 543 OFFCURVE",
"87 558 CURVE SMOOTH",
"103 585 OFFCURVE",
"120 622 OFFCURVE",
"120 675 CURVE",
"200 675 LINE",
"200 30 LINE",
"140 15 LINE",
"140 0 LINE"
);
},
{
closed = 1;
nodes = (
"365 395 LINE",
"420 395 LINE",
"500 395 OFFCURVE",
"560 335 OFFCURVE",
"560 210 CURVE SMOOTH",
"560 85 OFFCURVE",
"500 25 OFFCURVE",
"420 25 CURVE SMOOTH",
"365 25 LINE"
);
}
);
width = 755;
}
);
unicode = 042A;
},
{
color = 4;
glyphname = "Yeru-cy";
lastChange = "2016-09-23 18:44:33 +0000";
layers = (
{
anchors = (
{
name = top;
position = "{508, 700}";
}
);
layerId = UUID0;
paths = (
{
closed = 1;
nodes = (
"340 0 LINE SMOOTH",
"570 0 OFFCURVE",
"650 79 OFFCURVE",
"650 210 CURVE SMOOTH",
"650 341 OFFCURVE",
"570 420 OFFCURVE",
"340 420 CURVE SMOOTH",
"275 420 LINE",
"275 670 LINE",
"335 685 LINE",
"335 700 LINE",
"50 700 LINE",
"50 685 LINE",
"110 670 LINE",
"110 30 LINE",
"50 15 LINE",
"50 0 LINE"
);
},
{
closed = 1;
nodes = (
"275 395 LINE",
"340 395 LINE",
"420 395 OFFCURVE",
"480 335 OFFCURVE",
"480 210 CURVE SMOOTH",
"480 85 OFFCURVE",
"420 25 OFFCURVE",
"340 25 CURVE SMOOTH",
"275 25 LINE"
);
},
{
closed = 1;
nodes = (
"965 0 LINE",
"965 15 LINE",
"905 30 LINE",
"905 670 LINE",
"965 685 LINE",
"965 700 LINE",
"680 700 LINE",
"680 685 LINE",
"740 670 LINE",
"740 30 LINE",
"680 15 LINE",
"680 0 LINE"
);
}
);
width = 1015;
}
);
unicode = 042B;
},
{
color = 4;
glyphname = "Lje-cy";
lastChange = "2016-09-23 18:44:33 +0000";
layers = (
{
layerId = UUID0;
paths = (
{
closed = 1;
nodes = (
"155 -15 OFFCURVE",
"214 45 OFFCURVE",
"225 250 CURVE",
"245 675 LINE",
"435 675 LINE",
"435 30 LINE",
"375 15 LINE",
"375 0 LINE",
"665 0 LINE SMOOTH",
"895 0 OFFCURVE",
"975 79 OFFCURVE",
"975 210 CURVE SMOOTH",
"975 341 OFFCURVE",
"895 420 OFFCURVE",
"665 420 CURVE SMOOTH",
"600 420 LINE",
"600 670 LINE",
"660 685 LINE",
"660 700 LINE",
"145 700 LINE",
"145 685 LINE",
"215 665 LINE",
"195 250 LINE",
"187 65 OFFCURVE",
"144 25 OFFCURVE",
"110 15 CURVE",
"110 155 LINE",
"97 157 LINE SMOOTH",
"89 158 OFFCURVE",
"81 160 OFFCURVE",
"70 160 CURVE SMOOTH",
"25 160 OFFCURVE",
"-10 126 OFFCURVE",
"-10 75 CURVE SMOOTH",
"-10 24 OFFCURVE",
"30 -15 OFFCURVE",
"90 -15 CURVE SMOOTH"
);
},
{
closed = 1;
nodes = (
"600 395 LINE",
"665 395 LINE",
"745 395 OFFCURVE",
"805 335 OFFCURVE",
"805 210 CURVE SMOOTH",
"805 85 OFFCURVE",
"745 25 OFFCURVE",
"665 25 CURVE SMOOTH",
"600 25 LINE"
);
}
);
width = 1000;
}
);
unicode = 0409;
},
{
color = 4;
glyphname = "Nje-cy";
lastChange = "2016-09-23 18:44:33 +0000";
layers = (
{
layerId = UUID0;
paths = (
{
closed = 1;
nodes = (
"335 0 LINE",
"335 15 LINE",
"275 30 LINE",
"275 375 LINE",
"490 375 LINE",
"490 30 LINE",
"430 15 LINE",
"430 0 LINE",
"720 0 LINE SMOOTH",
"950 0 OFFCURVE",
"1030 80 OFFCURVE",
"1030 200 CURVE SMOOTH",
"1030 320 OFFCURVE",
"950 400 OFFCURVE",
"720 400 CURVE SMOOTH",
"655 400 LINE",
"655 670 LINE",
"715 685 LINE",
"715 700 LINE",
"430 700 LINE",
"430 685 LINE",
"490 670 LINE",
"490 400 LINE",
"275 400 LINE",
"275 670 LINE",
"335 685 LINE",
"335 700 LINE",
"50 700 LINE",
"50 685 LINE",
"110 670 LINE",
"110 30 LINE",
"50 15 LINE",
"50 0 LINE"
);
},
{
closed = 1;
nodes = (
"655 375 LINE",
"720 375 LINE",
"800 375 OFFCURVE",
"860 316 OFFCURVE",
"860 200 CURVE SMOOTH",
"860 84 OFFCURVE",
"800 25 OFFCURVE",
"720 25 CURVE SMOOTH",
"655 25 LINE"
);
}
);
width = 1055;
}
);
unicode = 040A;
},
{
color = 4;
glyphname = "Dze-cy";
lastChange = "2016-09-23 18:44:33 +0000";
layers = (
{
layerId = UUID0;
paths = (
{
closed = 1;
nodes = (
"480 -15 OFFCURVE",
"570 75 OFFCURVE",
"570 180 CURVE SMOOTH",
"570 399 OFFCURVE",
"215 411 OFFCURVE",
"215 580 CURVE SMOOTH",
"215 645 OFFCURVE",
"260 690 OFFCURVE",
"310 690 CURVE SMOOTH",
"377 690 OFFCURVE",
"423 646 OFFCURVE",
"451 602 CURVE SMOOTH",
"468 576 OFFCURVE",
"481 547 OFFCURVE",
"490 515 CURVE",
"530 515 LINE",
"530 705 LINE",
"505 705 LINE",
"498 701 OFFCURVE",
"492 696 OFFCURVE",
"485 691 CURVE SMOOTH",
"474 682 OFFCURVE",
"461 667 OFFCURVE",
"450 650 CURVE",
"437 662 OFFCURVE",
"423 673 OFFCURVE",
"406 682 CURVE SMOOTH",
"378 698 OFFCURVE",
"337 715 OFFCURVE",
"290 715 CURVE SMOOTH",
"125 715 OFFCURVE",
"45 635 OFFCURVE",
"45 540 CURVE SMOOTH",
"45 300 OFFCURVE",
"400 291 OFFCURVE",
"400 135 CURVE SMOOTH",
"400 59 OFFCURVE",
"351 10 OFFCURVE",
"275 10 CURVE SMOOTH",
"197 10 OFFCURVE",
"148 53 OFFCURVE",
"117 97 CURVE SMOOTH",
"99 123 OFFCURVE",
"85 152 OFFCURVE",
"75 185 CURVE",
"35 185 LINE",
"35 -5 LINE",
"60 -5 LINE",
"67 -1 OFFCURVE",
"73 4 OFFCURVE",
"80 9 CURVE SMOOTH",
"91 18 OFFCURVE",
"104 31 OFFCURVE",
"115 50 CURVE",
"128 37 OFFCURVE",
"144 26 OFFCURVE",
"162 17 CURVE SMOOTH",
"193 1 OFFCURVE",
"236 -15 OFFCURVE",
"295 -15 CURVE SMOOTH"
);
}
);
width = 595;
}
);
unicode = 0405;
},
{
color = 4;
glyphname = "E-cy";
lastChange = "2016-09-23 18:44:33 +0000";
layers = (
{
layerId = UUID0;
paths = (
{
closed = 1;
nodes = (
"516 -15 OFFCURVE",
"615 85 OFFCURVE",
"615 200 CURVE",
"590 200 LINE",
"590 100 OFFCURVE",
"500 10 OFFCURVE",
"405 10 CURVE SMOOTH",
"300 10 OFFCURVE",
"225 84 OFFCURVE",
"220 335 CURVE",
"350 335 LINE",
"355 307 OFFCURVE",
"365 283 OFFCURVE",
"376 264 CURVE SMOOTH",
"382 253 OFFCURVE",
"388 244 OFFCURVE",
"395 235 CURVE",
"425 235 LINE",
"425 460 LINE",
"395 460 LINE",
"388 451 OFFCURVE",
"382 442 OFFCURVE",
"376 431 CURVE SMOOTH",
"365 412 OFFCURVE",
"355 387 OFFCURVE",
"350 360 CURVE",
"220 360 LINE",
"220 610 OFFCURVE",
"299 690 OFFCURVE",
"380 690 CURVE SMOOTH",
"447 690 OFFCURVE",
"493 646 OFFCURVE",
"521 602 CURVE SMOOTH",
"538 576 OFFCURVE",
"551 547 OFFCURVE",
"560 515 CURVE",
"600 515 LINE",
"600 705 LINE",
"575 705 LINE",
"568 701 OFFCURVE",
"562 696 OFFCURVE",
"555 691 CURVE SMOOTH",
"544 682 OFFCURVE",
"531 667 OFFCURVE",
"520 650 CURVE",
"507 662 OFFCURVE",
"493 673 OFFCURVE",
"476 682 CURVE SMOOTH",
"448 698 OFFCURVE",
"408 715 OFFCURVE",
"361 715 CURVE SMOOTH",
"174 715 OFFCURVE",
"45 585 OFFCURVE",
"45 350 CURVE SMOOTH",
"45 115 OFFCURVE",
"174 -15 OFFCURVE",
"385 -15 CURVE SMOOTH"
);
}
);
width = 650;
}
);
unicode = 0404;
},
{
color = 4;
glyphname = "Ereversed-cy";
lastChange = "2016-09-23 18:44:33 +0000";
layers = (
{
layerId = UUID0;
paths = (
{
closed = 1;
nodes = (
"476 -15 OFFCURVE",
"605 115 OFFCURVE",
"605 350 CURVE SMOOTH",
"605 585 OFFCURVE",
"476 715 OFFCURVE",
"289 715 CURVE SMOOTH",
"242 715 OFFCURVE",
"202 698 OFFCURVE",
"174 682 CURVE SMOOTH",
"157 673 OFFCURVE",
"143 662 OFFCURVE",
"130 650 CURVE",
"119 667 OFFCURVE",
"106 682 OFFCURVE",
"95 691 CURVE SMOOTH",
"88 696 OFFCURVE",
"82 701 OFFCURVE",
"75 705 CURVE",
"50 705 LINE",
"50 515 LINE",
"90 515 LINE",
"99 547 OFFCURVE",
"112 576 OFFCURVE",
"129 602 CURVE SMOOTH",
"157 646 OFFCURVE",
"202 690 OFFCURVE",
"270 690 CURVE SMOOTH",
"349 690 OFFCURVE",
"430 610 OFFCURVE",
"430 360 CURVE",
"300 360 LINE",
"295 387 OFFCURVE",
"285 412 OFFCURVE",
"274 431 CURVE SMOOTH",
"268 442 OFFCURVE",
"262 451 OFFCURVE",
"255 460 CURVE",
"225 460 LINE",
"225 235 LINE",
"255 235 LINE",
"262 244 OFFCURVE",
"268 253 OFFCURVE",
"274 264 CURVE SMOOTH",
"285 283 OFFCURVE",
"295 307 OFFCURVE",
"300 335 CURVE",
"430 335 LINE",
"425 84 OFFCURVE",
"350 10 OFFCURVE",
"245 10 CURVE SMOOTH",
"150 10 OFFCURVE",
"60 100 OFFCURVE",
"60 200 CURVE",
"35 200 LINE",
"35 85 OFFCURVE",
"134 -15 OFFCURVE",
"265 -15 CURVE SMOOTH"
);
}
);
width = 650;
}
);
unicode = 042D;
},
{
color = 4;
glyphname = "Je-cy";
lastChange = "2016-09-23 18:44:33 +0000";
layers = (
{
layerId = UUID0;
paths = (
{
closed = 1;
nodes = (
"370 -15 OFFCURVE",
"450 65 OFFCURVE",
"450 200 CURVE SMOOTH",
"450 670 LINE",
"510 685 LINE",
"510 700 LINE",
"225 700 LINE",
"225 685 LINE",
"285 670 LINE",
"285 200 LINE SMOOTH",
"285 55 OFFCURVE",
"234 5 OFFCURVE",
"165 5 CURVE SMOOTH",
"151 5 OFFCURVE",
"139 7 OFFCURVE",
"129 10 CURVE SMOOTH",
"124 11 OFFCURVE",
"119 13 OFFCURVE",
"115 15 CURVE",
"115 165 LINE",
"102 167 LINE SMOOTH",
"94 168 OFFCURVE",
"86 170 OFFCURVE",
"75 170 CURVE SMOOTH",
"30 170 OFFCURVE",
"0 140 OFFCURVE",
"0 95 CURVE SMOOTH",
"0 40 OFFCURVE",
"54 -15 OFFCURVE",
"185 -15 CURVE SMOOTH"
);
}
);
width = 550;
}
);
unicode = 0408;
},
{
color = 4;
glyphname = "Tshe-cy";
lastChange = "2016-09-23 18:44:33 +0000";
layers = (
{
layerId = UUID0;
paths = (
{
closed = 1;
nodes = (
"420 0 LINE",
"420 15 LINE",
"360 30 LINE",
"360 380 LINE",
"386 395 LINE",
"402 402 OFFCURVE",
"425 410 OFFCURVE",
"450 410 CURVE SMOOTH",
"526 410 OFFCURVE",
"565 371 OFFCURVE",
"565 260 CURVE SMOOTH",
"565 30 LINE",
"505 15 LINE",
"505 0 LINE",
"790 0 LINE",
"790 15 LINE",
"730 30 LINE",
"730 260 LINE SMOOTH",
"730 365 OFFCURVE",
"659 435 OFFCURVE",
"490 435 CURVE SMOOTH",
"450 435 OFFCURVE",
"418 427 OFFCURVE",
"395 420 CURVE",
"382 415 OFFCURVE",
"370 410 OFFCURVE",
"360 405 CURVE",
"360 675 LINE",
"445 675 LINE",
"445 622 OFFCURVE",
"461 585 OFFCURVE",
"477 558 CURVE SMOOTH",
"486 543 OFFCURVE",
"497 530 OFFCURVE",
"510 520 CURVE",
"540 520 LINE",
"540 700 LINE",
"25 700 LINE",
"25 520 LINE",
"55 520 LINE",
"67 530 OFFCURVE",
"78 543 OFFCURVE",
"87 558 CURVE SMOOTH",
"103 585 OFFCURVE",
"120 622 OFFCURVE",
"120 675 CURVE",
"195 675 LINE",
"195 30 LINE",
"135 15 LINE",
"135 0 LINE"
);
}
);
width = 805;
}
);
unicode = 040B;
},
{
color = 4;
glyphname = "Iu-cy";
lastChange = "2016-09-23 18:44:33 +0000";
layers = (
{
layerId = UUID0;
paths = (
{
closed = 1;
nodes = (
"840 -15 OFFCURVE",
"970 115 OFFCURVE",
"970 350 CURVE SMOOTH",
"970 585 OFFCURVE",
"840 715 OFFCURVE",
"665 715 CURVE SMOOTH",
"489 715 OFFCURVE",
"365 590 OFFCURVE",
"360 360 CURVE",
"275 360 LINE",
"275 670 LINE",
"335 685 LINE",
"335 700 LINE",
"50 700 LINE",
"50 685 LINE",
"110 670 LINE",
"110 30 LINE",
"50 15 LINE",
"50 0 LINE",
"335 0 LINE",
"335 15 LINE",
"275 30 LINE",
"275 335 LINE",
"360 335 LINE",
"365 110 OFFCURVE",
"494 -15 OFFCURVE",
"665 -15 CURVE SMOOTH"
);
},
{
closed = 1;
nodes = (
"605 5 OFFCURVE",
"535 74 OFFCURVE",
"535 350 CURVE SMOOTH",
"535 626 OFFCURVE",
"605 695 OFFCURVE",
"665 695 CURVE SMOOTH",
"725 695 OFFCURVE",
"795 626 OFFCURVE",
"795 350 CURVE SMOOTH",
"795 74 OFFCURVE",
"725 5 OFFCURVE",
"665 5 CURVE SMOOTH"
);
}
);
width = 1015;
}
);
unicode = 042E;
},
{
color = 4;
glyphname = "Ia-cy";
lastChange = "2016-09-23 18:44:33 +0000";
layers = (
{
layerId = UUID0;
paths = (
{
closed = 1;
nodes = (
"140 0 LINE SMOOTH",
"200 0 OFFCURVE",
"237 34 OFFCURVE",
"260 85 CURVE SMOOTH",
"360 310 LINE",
"430 310 LINE",
"430 30 LINE",
"360 15 LINE",
"360 0 LINE",
"655 0 LINE",
"655 15 LINE",
"595 30 LINE",
"595 670 LINE",
"655 685 LINE",
"655 700 LINE",
"390 700 LINE SMOOTH",
"149 700 OFFCURVE",
"70 620 OFFCURVE",
"70 505 CURVE SMOOTH",
"70 416 OFFCURVE",
"127 368 OFFCURVE",
"185 347 CURVE SMOOTH",
"218 334 OFFCURVE",
"257 326 OFFCURVE",
"300 325 CURVE",
"300 320 LINE",
"278 319 OFFCURVE",
"257 316 OFFCURVE",
"237 309 CURVE SMOOTH",
"202 298 OFFCURVE",
"165 275 OFFCURVE",
"145 230 CURVE SMOOTH",
"55 30 LINE",
"5 15 LINE",
"5 0 LINE"
);
},
{
closed = 1;
nodes = (
"299 335 OFFCURVE",
"240 394 OFFCURVE",
"240 505 CURVE SMOOTH",
"240 616 OFFCURVE",
"299 675 OFFCURVE",
"390 675 CURVE SMOOTH",
"430 675 LINE",
"430 335 LINE",
"390 335 LINE"
);
}
);
width = 705;
}
);
unicode = 042F;
},
{
color = 4;
glyphname = "Dje-cy";
lastChange = "2016-09-23 18:44:33 +0000";
layers = (
{
layerId = UUID0;
paths = (
{
closed = 1;
nodes = (
"680 -30 OFFCURVE",
"730 21 OFFCURVE",
"730 90 CURVE SMOOTH",
"730 260 LINE SMOOTH",
"730 365 OFFCURVE",
"659 435 OFFCURVE",
"490 435 CURVE SMOOTH",
"450 435 OFFCURVE",
"418 427 OFFCURVE",
"395 420 CURVE",
"382 415 OFFCURVE",
"370 410 OFFCURVE",
"360 405 CURVE",
"360 675 LINE",
"445 675 LINE",
"445 622 OFFCURVE",
"461 585 OFFCURVE",
"477 558 CURVE SMOOTH",
"486 543 OFFCURVE",
"497 530 OFFCURVE",
"510 520 CURVE",
"540 520 LINE",
"540 700 LINE",
"25 700 LINE",
"25 520 LINE",
"55 520 LINE",
"67 530 OFFCURVE",
"78 543 OFFCURVE",
"87 558 CURVE SMOOTH",
"103 585 OFFCURVE",
"120 622 OFFCURVE",
"120 675 CURVE",
"195 675 LINE",
"195 30 LINE",
"135 15 LINE",
"135 0 LINE",
"420 0 LINE",
"420 15 LINE",
"360 30 LINE",
"360 380 LINE",
"386 395 LINE",
"402 402 OFFCURVE",
"425 410 OFFCURVE",
"450 410 CURVE SMOOTH",
"526 410 OFFCURVE",
"565 371 OFFCURVE",
"565 260 CURVE SMOOTH",
"565 90 LINE SMOOTH",
"565 19 OFFCURVE",
"536 -10 OFFCURVE",
"505 -10 CURVE",
"505 -30 LINE"
);
}
);
width = 770;
}
);
unicode = 0402;
},
{
color = 4;
glyphname = "Yat-cy";
lastChange = "2016-09-23 18:44:33 +0000";
layers = (
{
background = {
paths = (
{
closed = 1;
nodes = (
"400 575 LINE",
"515 575 LINE",
"515 532 OFFCURVE",
"539 483 OFFCURVE",
"580 460 CURVE",
"610 460 LINE",
"610 600 LINE",
"25 600 LINE",
"25 460 LINE",
"55 460 LINE",
"93 484 OFFCURVE",
"120 530 OFFCURVE",
"120 575 CURVE",
"235 575 LINE"
);
}
);
};
layerId = UUID0;
paths = (
{
closed = 1;
nodes = (
"464 0 LINE SMOOTH",
"694 0 OFFCURVE",
"774 75 OFFCURVE",
"774 200 CURVE SMOOTH",
"774 325 OFFCURVE",
"694 400 OFFCURVE",
"464 400 CURVE SMOOTH",
"399 400 LINE",
"399 700 LINE",
"459 715 LINE",
"459 730 LINE",
"174 730 LINE",
"174 715 LINE",
"234 700 LINE",
"234 30 LINE",
"174 15 LINE",
"174 0 LINE"
);
},
{
closed = 1;
nodes = (
"399 375 LINE",
"464 375 LINE",
"564 375 OFFCURVE",
"604 318 OFFCURVE",
"604 200 CURVE SMOOTH",
"604 82 OFFCURVE",
"564 25 OFFCURVE",
"464 25 CURVE SMOOTH",
"399 25 LINE"
);
},
{
closed = 1;
nodes = (
"55 488 LINE",
"93 512 OFFCURVE",
"120 558 OFFCURVE",
"120 603 CURVE",
"235 603 LINE",
"400 603 LINE",
"515 603 LINE",
"515 560 OFFCURVE",
"539 511 OFFCURVE",
"580 488 CURVE",
"610 488 LINE",
"610 628 LINE",
"25 628 LINE",
"25 488 LINE"
);
}
);
width = 799;
}
);
leftMetricsKey = "Te-cy";
rightMetricsKey = "Softsign-cy";
unicode = 0462;
},
{
color = 4;
glyphname = "Yusbig-cy";
lastChange = "2016-09-23 18:44:33 +0000";
layers = (
{
background = {
paths = (
{
closed = 1;
nodes = (
"790 675 LINE",
"790 700 LINE",
"230 700 LINE",
"230 675 LINE"
);
}
);
};
layerId = UUID0;
paths = (
{
closed = 1;
nodes = (
"125 0 LINE SMOOTH",
"200 0 OFFCURVE",
"233 34 OFFCURVE",
"250 85 CURVE SMOOTH",
"345 360 LINE",
"430 360 LINE",
"430 30 LINE",
"370 15 LINE",
"370 0 LINE",
"655 0 LINE",
"655 15 LINE",
"595 30 LINE",
"595 360 LINE",
"680 360 LINE",
"775 85 LINE SMOOTH",
"792 34 OFFCURVE",
"825 0 OFFCURVE",
"900 0 CURVE SMOOTH",
"1020 0 LINE",
"1020 15 LINE",
"970 30 LINE",
"880 295 LINE SMOOTH",
"865 340 OFFCURVE",
"825 380 OFFCURVE",
"730 380 CURVE SMOOTH",
"600 380 LINE",
"798 655 LINE",
"878 685 LINE",
"878 700 LINE",
"153 700 LINE",
"153 685 LINE",
"203 670 LINE",
"425 380 LINE",
"295 380 LINE SMOOTH",
"200 380 OFFCURVE",
"160 340 OFFCURVE",
"145 295 CURVE SMOOTH",
"55 30 LINE",
"5 15 LINE",
"5 0 LINE"
);
},
{
closed = 1;
nodes = (
"408 615 LINE SMOOTH",
"394 636 OFFCURVE",
"378 658 OFFCURVE",
"355 675 CURVE",
"781 675 LINE",
"569 380 LINE",
"568 380 LINE"
);
}
);
width = 1025;
}
);
unicode = 046A;
},
{
color = 4;
glyphname = "Izhitsa-cy";
lastChange = "2016-09-23 18:44:33 +0000";
layers = (
{
background = {
paths = (
{
closed = 1;
nodes = (
"610 706 OFFCURVE",
"576 660 OFFCURVE",
"547 583 CURVE SMOOTH",
"401 191 LINE",
"431 191 LINE",
"574 574 LINE SMOOTH",
"601 647 OFFCURVE",
"632 676 OFFCURVE",
"674 677 CURVE",
"673 528 LINE",
"686 522 OFFCURVE",
"700 519 OFFCURVE",
"714 519 CURVE SMOOTH",
"763 519 OFFCURVE",
"811 554 OFFCURVE",
"811 609 CURVE SMOOTH",
"811 680 OFFCURVE",
"763 706 OFFCURVE",
"696 706 CURVE SMOOTH"
);
}
);
};
layerId = UUID0;
paths = (
{
closed = 1;
nodes = (
"360 -10 LINE",
"574 574 LINE SMOOTH",
"601 647 OFFCURVE",
"632 676 OFFCURVE",
"674 677 CURVE",
"673 528 LINE",
"686 522 OFFCURVE",
"700 519 OFFCURVE",
"714 519 CURVE SMOOTH",
"763 519 OFFCURVE",
"811 554 OFFCURVE",
"811 609 CURVE SMOOTH",
"811 680 OFFCURVE",
"763 706 OFFCURVE",
"696 706 CURVE SMOOTH",
"610 706 OFFCURVE",
"573 655 OFFCURVE",
"547 583 CURVE SMOOTH",
"412 212 LINE",
"235 615 LINE SMOOTH",
"215 660 OFFCURVE",
"175 700 OFFCURVE",
"100 700 CURVE SMOOTH",
"-20 700 LINE",
"-20 685 LINE",
"30 670 LINE",
"330 -10 LINE"
);
}
);
width = 801;
}
);
unicode = 0474;
},
{
color = 4;
glyphname = "Ghemiddlehook-cy";
lastChange = "2016-09-23 18:44:33 +0000";
layers = (
{
components = (
{
name = "Ge-cy";
}
);
layerId = UUID0;
paths = (
{
closed = 1;
nodes = (
"553 -30 OFFCURVE",
"640 21 OFFCURVE",
"640 140 CURVE SMOOTH",
"640 190 LINE SMOOTH",
"640 315 OFFCURVE",
"559 375 OFFCURVE",
"400 375 CURVE SMOOTH",
"359 375 OFFCURVE",
"312 369 OFFCURVE",
"270 355 CURVE",
"270 330 LINE",
"309 340 OFFCURVE",
"342 346 OFFCURVE",
"369 346 CURVE SMOOTH",
"442 346 OFFCURVE",
"475 305 OFFCURVE",
"475 200 CURVE SMOOTH",
"475 120 LINE SMOOTH",
"475 19 OFFCURVE",
"450 -10 OFFCURVE",
"395 -10 CURVE",
"395 -30 LINE"
);
}
);
width = 660;
}
);
unicode = 0494;
},
{
color = 4;
glyphname = "Zhedescender-cy";
lastChange = "2016-09-23 18:44:33 +0000";
layers = (
{
components = (
{
name = "Zhe-cy";
}
);
layerId = UUID0;
paths = (
{
closed = 1;
nodes = (
"1020 -170 LINE",
"1020 25 LINE",
"904 38 LINE",
"905 0 LINE",
"905 -56 OFFCURVE",
"926 -97 OFFCURVE",
"947 -126 CURVE SMOOTH",
"959 -143 OFFCURVE",
"973 -158 OFFCURVE",
"990 -170 CURVE"
);
}
);
width = 1025;
}
);
unicode = 0496;
},
{
color = 4;
glyphname = "Zedescender-cy";
lastChange = "2016-09-23 18:44:33 +0000";
layers = (
{
components = (
{
name = "Ze-cy";
}
);
layerId = UUID0;
paths = (
{
closed = 1;
nodes = (
"325 -170 LINE",
"350 0 LINE",
"245 0 LINE",
"245 -54 OFFCURVE",
"265 -116 OFFCURVE",
"295 -170 CURVE"
);
}
);
width = 615;
}
);
unicode = 0498;
},
{
color = 4;
glyphname = "Kadescender-cy";
lastChange = "2016-09-23 18:44:33 +0000";
layers = (
{
components = (
{
name = "Ka-cy";
}
);
layerId = UUID0;
paths = (
{
closed = 1;
nodes = (
"705 -170 LINE",
"705 25 LINE",
"589 38 LINE",
"590 0 LINE",
"590 -56 OFFCURVE",
"611 -97 OFFCURVE",
"632 -126 CURVE SMOOTH",
"644 -143 OFFCURVE",
"658 -158 OFFCURVE",
"675 -170 CURVE"
);
}
);
width = 710;
}
);
unicode = 049A;
},
{
color = 4;
glyphname = "Kabashkir-cy";
lastChange = "2016-09-23 18:44:33 +0000";
layers = (
{
layerId = UUID0;
paths = (
{
closed = 1;
nodes = (
"460 0 LINE",
"460 15 LINE",
"400 30 LINE",
"400 360 LINE",
"490 360 LINE",
"585 85 LINE SMOOTH",
"602 34 OFFCURVE",
"635 0 OFFCURVE",
"710 0 CURVE SMOOTH",
"830 0 LINE",
"830 15 LINE",
"780 30 LINE",
"690 295 LINE SMOOTH",
"675 340 OFFCURVE",
"635 380 OFFCURVE",
"540 380 CURVE SMOOTH",
"515 380 LINE",
"524 385 OFFCURVE",
"532 391 OFFCURVE",
"540 400 CURVE",
"555 415 OFFCURVE",
"569 440 OFFCURVE",
"580 480 CURVE SMOOTH",
"615 610 LINE SMOOTH",
"626 650 OFFCURVE",
"649 675 OFFCURVE",
"670 680 CURVE",
"670 540 LINE",
"682 537 LINE",
"689 536 OFFCURVE",
"699 535 OFFCURVE",
"710 535 CURVE SMOOTH",
"755 535 OFFCURVE",
"790 569 OFFCURVE",
"790 620 CURVE SMOOTH",
"790 671 OFFCURVE",
"750 710 OFFCURVE",
"690 710 CURVE SMOOTH",
"639 710 OFFCURVE",
"601 670 OFFCURVE",
"585 610 CURVE SMOOTH",
"550 480 LINE SMOOTH",
"534 420 OFFCURVE",
"501 385 OFFCURVE",
"450 385 CURVE SMOOTH",
"400 385 LINE",
"400 670 LINE",
"460 685 LINE",
"460 700 LINE",
"25 700 LINE",
"25 520 LINE",
"55 520 LINE",
"93 552 OFFCURVE",
"120 615 OFFCURVE",
"120 675 CURVE",
"235 675 LINE",
"235 30 LINE",
"175 15 LINE",
"175 0 LINE"
);
}
);
width = 835;
}
);
leftMetricsKey = T;
rightMetricsKey = "Ka-cy";
unicode = 04A0;
},
{
color = 4;
glyphname = "Esdescender-cy";
lastChange = "2016-09-23 18:44:33 +0000";
layers = (
{
components = (
{
name = "Es-cy";
}
);
layerId = UUID0;
paths = (
{
closed = 1;
nodes = (
"391 -170 LINE",
"416 0 LINE",
"311 0 LINE",
"311 -54 OFFCURVE",
"331 -116 OFFCURVE",
"361 -170 CURVE"
);
}
);
width = 650;
}
);
unicode = 04AA;
},
{
color = 4;
glyphname = "Chedescender-cy";
lastChange = "2016-09-23 18:44:33 +0000";
layers = (
{
components = (
{
name = "Che-cy";
}
);
layerId = UUID0;
paths = (
{
closed = 1;
nodes = (
"385 -170 LINE",
"402 -158 OFFCURVE",
"416 -143 OFFCURVE",
"428 -126 CURVE SMOOTH",
"449 -97 OFFCURVE",
"470 -56 OFFCURVE",
"470 0 CURVE",
"615 0 LINE",
"615 39 LINE",
"355 25 LINE",
"355 -170 LINE"
);
}
);
width = 725;
}
);
leftMetricsKey = "Che-cy";
rightMetricsKey = "En-cy";
unicode = 04B6;
},
{
color = 4;
glyphname = "Schwa-cy";
lastChange = "2016-09-23 18:44:33 +0000";
layers = (
{
layerId = UUID0;
paths = (
{
closed = 1;
nodes = (
"485 -15 OFFCURVE",
"615 126 OFFCURVE",
"616 353 CURVE SMOOTH",
"615 586 OFFCURVE",
"486 715 OFFCURVE",
"300 715 CURVE SMOOTH",
"245 715 OFFCURVE",
"183 689 OFFCURVE",
"141 650 CURVE",
"129 669 OFFCURVE",
"109 692 OFFCURVE",
"86 705 CURVE",
"61 705 LINE",
"61 515 LINE",
"101 515 LINE",
"134 626 OFFCURVE",
"206 690 OFFCURVE",
"291 690 CURVE SMOOTH",
"374 690 OFFCURVE",
"440 606 OFFCURVE",
"440 376 CURVE SMOOTH",
"440 375 LINE SMOOTH",
"443 105 OFFCURVE",
"373 5 OFFCURVE",
"291 5 CURVE SMOOTH",
"208 5 OFFCURVE",
"168 198 OFFCURVE",
"181 341 CURVE",
"238 354 OFFCURVE",
"366 363 OFFCURVE",
"446 363 CURVE",
"446 388 LINE",
"320 387 OFFCURVE",
"171 373 OFFCURVE",
"42 346 CURVE",
"37 320 OFFCURVE",
"35 294 OFFCURVE",
"35 269 CURVE SMOOTH",
"35 106 OFFCURVE",
"128 -15 OFFCURVE",
"291 -15 CURVE SMOOTH"
);
}
);
width = 661;
}
);
rightMetricsKey = O;
unicode = 04D8;
},
{
color = 4;
glyphname = "be-cy";
lastChange = "2016-09-23 18:44:33 +0000";
layers = (
{
layerId = UUID0;
paths = (
{
closed = 1;
nodes = (
"472 -15 OFFCURVE",
"560 75 OFFCURVE",
"560 220 CURVE SMOOTH",
"560 365 OFFCURVE",
"472 455 OFFCURVE",
"305 455 CURVE SMOOTH",
"186 455 OFFCURVE",
"104 369 OFFCURVE",
"85 300 CURVE",
"85 439 OFFCURVE",
"155 509 OFFCURVE",
"220 520 CURVE SMOOTH",
"450 560 LINE",
"506 571 OFFCURVE",
"535 600 OFFCURVE",
"535 660 CURVE SMOOTH",
"535 750 LINE",
"520 750 LINE",
"505 700 LINE",
"275 660 LINE SMOOTH",
"139 636 OFFCURVE",
"50 551 OFFCURVE",
"50 300 CURVE SMOOTH",
"50 240 LINE SMOOTH",
"50 73 OFFCURVE",
"138 -15 OFFCURVE",
"305 -15 CURVE SMOOTH"
);
},
{
closed = 1;
nodes = (
"265 5 OFFCURVE",
"220 49 OFFCURVE",
"220 220 CURVE SMOOTH",
"220 391 OFFCURVE",
"265 435 OFFCURVE",
"305 435 CURVE SMOOTH",
"345 435 OFFCURVE",
"390 391 OFFCURVE",
"390 220 CURVE SMOOTH",
"390 49 OFFCURVE",
"345 5 OFFCURVE",
"305 5 CURVE SMOOTH"
);
}
);
width = 600;
}
);
unicode = 0431;
},
{
color = 4;
glyphname = "ve-cy";
lastChange = "2016-09-23 18:44:33 +0000";
layers = (
{
layerId = UUID0;
paths = (
{
closed = 1;
nodes = (
"315 0 LINE SMOOTH",
"511 0 OFFCURVE",
"575 65 OFFCURVE",
"575 135 CURVE SMOOTH",
"575 196 OFFCURVE",
"521 224 OFFCURVE",
"470 240 CURVE SMOOTH",
"439 249 OFFCURVE",
"404 254 OFFCURVE",
"365 255 CURVE",
"365 260 LINE",
"398 261 OFFCURVE",
"428 266 OFFCURVE",
"455 274 CURVE SMOOTH",
"500 287 OFFCURVE",
"545 317 OFFCURVE",
"545 375 CURVE SMOOTH",
"545 435 OFFCURVE",
"480 500 OFFCURVE",
"295 500 CURVE SMOOTH",
"40 500 LINE",
"40 485 LINE",
"100 470 LINE",
"100 30 LINE",
"40 15 LINE",
"40 0 LINE"
);
},
{
closed = 1;
nodes = (
"260 245 LINE",
"315 245 LINE",
"371 245 OFFCURVE",
"410 206 OFFCURVE",
"410 135 CURVE SMOOTH",
"410 64 OFFCURVE",
"371 25 OFFCURVE",
"315 25 CURVE SMOOTH",
"260 25 LINE"
);
},
{
closed = 1;
nodes = (
"260 475 LINE",
"295 475 LINE",
"340 475 OFFCURVE",
"380 435 OFFCURVE",
"380 375 CURVE SMOOTH",
"380 310 OFFCURVE",
"339 270 OFFCURVE",
"295 270 CURVE SMOOTH",
"260 270 LINE"
);
}
);
width = 605;
}
);
unicode = 0432;
},
{
color = 4;
glyphname = "ge-cy";
lastChange = "2016-09-23 18:44:33 +0000";
layers = (
{
anchors = (
{
name = bottomright;
position = "{100, 0}";
},
{
name = center;
position = "{195, 250}";
},
{
name = top;
position = "{325, 500}";
}
);
layerId = UUID0;
paths = (
{
closed = 1;
nodes = (
"320 0 LINE",
"320 15 LINE",
"260 30 LINE",
"260 475 LINE",
"410 475 LINE",
"410 427 OFFCURVE",
"426 391 OFFCURVE",
"442 364 CURVE SMOOTH",
"451 349 OFFCURVE",
"462 336 OFFCURVE",
"475 325 CURVE",
"505 325 LINE",
"505 500 LINE",
"40 500 LINE",
"40 485 LINE",
"100 470 LINE",
"100 30 LINE",
"40 15 LINE",
"40 0 LINE"
);
}
);
width = 530;
}
);
unicode = 0433;
},
{
color = 4;
glyphname = "gheupturn-cy";
lastChange = "2016-09-23 18:44:33 +0000";
layers = (
{
layerId = UUID0;
paths = (
{
closed = 1;
nodes = (
"320 0 LINE",
"320 15 LINE",
"260 30 LINE",
"260 475 LINE",
"505 475 LINE",
"505 650 LINE",
"475 650 LINE",
"462 639 OFFCURVE",
"451 626 OFFCURVE",
"442 611 CURVE SMOOTH",
"426 584 OFFCURVE",
"410 547 OFFCURVE",
"410 500 CURVE",
"40 500 LINE",
"40 485 LINE",
"100 470 LINE",
"100 30 LINE",
"40 15 LINE",
"40 0 LINE"
);
}
);
width = 510;
}
);
unicode = 0491;
},
{
color = 4;
glyphname = "de-cy";
lastChange = "2016-09-23 18:44:33 +0000";
layers = (
{
layerId = UUID0;
paths = (
{
closed = 1;
nodes = (
"20 -165 LINE",
"36 -154 OFFCURVE",
"50 -141 OFFCURVE",
"62 -124 CURVE SMOOTH",
"83 -97 OFFCURVE",
"105 -56 OFFCURVE",
"105 0 CURVE",
"485 0 LINE",
"485 -56 OFFCURVE",
"506 -97 OFFCURVE",
"527 -124 CURVE SMOOTH",
"539 -141 OFFCURVE",
"553 -154 OFFCURVE",
"570 -165 CURVE",
"600 -165 LINE",
"600 25 LINE",
"510 25 LINE",
"510 470 LINE",
"570 485 LINE",
"570 500 LINE",
"95 500 LINE",
"95 485 LINE",
"165 465 LINE",
"145 170 LINE SMOOTH",
"141 119 OFFCURVE",
"124 84 OFFCURVE",
"105 60 CURVE SMOOTH",
"94 46 OFFCURVE",
"83 34 OFFCURVE",
"70 25 CURVE",
"-10 25 LINE",
"-10 -165 LINE"
);
},
{
closed = 1;
nodes = (
"116 34 OFFCURVE",
"127 46 OFFCURVE",
"137 60 CURVE SMOOTH",
"154 84 OFFCURVE",
"171 119 OFFCURVE",
"175 170 CURVE",
"195 475 LINE",
"350 475 LINE",
"350 25 LINE",
"105 25 LINE"
);
}
);
width = 615;
}
);
unicode = 0434;
},
{
color = 4;
glyphname = "io-cy";
lastChange = "2016-09-23 18:44:33 +0000";
layers = (
{
layerId = UUID0;
paths = (
{
closed = 1;
nodes = (
"425 -15 OFFCURVE",
"500 60 OFFCURVE",
"500 140 CURVE",
"475 140 LINE",
"475 75 OFFCURVE",
"410 10 OFFCURVE",
"330 10 CURVE SMOOTH",
"261 10 OFFCURVE",
"210 60 OFFCURVE",
"210 225 CURVE",
"290 225 OFFCURVE",
"366 232 OFFCURVE",
"422 240 CURVE SMOOTH",
"455 244 OFFCURVE",
"486 249 OFFCURVE",
"515 255 CURVE",
"520 272 LINE SMOOTH",
"523 283 OFFCURVE",
"525 296 OFFCURVE",
"525 315 CURVE SMOOTH",
"525 424 OFFCURVE",
"434 515 OFFCURVE",
"285 515 CURVE SMOOTH",
"140 515 OFFCURVE",
"40 415 OFFCURVE",
"40 250 CURVE SMOOTH",
"40 85 OFFCURVE",
"139 -15 OFFCURVE",
"310 -15 CURVE SMOOTH"
);
},
{
closed = 1;
nodes = (
"210 455 OFFCURVE",
"250 495 OFFCURVE",
"285 495 CURVE SMOOTH",
"320 495 OFFCURVE",
"360 455 OFFCURVE",
"360 335 CURVE SMOOTH",
"360 315 OFFCURVE",
"358 297 OFFCURVE",
"355 282 CURVE SMOOTH",
"353 274 OFFCURVE",
"351 267 OFFCURVE",
"350 260 CURVE",
"340 258 OFFCURVE",
"328 256 OFFCURVE",
"314 255 CURVE SMOOTH",
"290 252 OFFCURVE",
"255 250 OFFCURVE",
"210 250 CURVE"
);
},
{
closed = 1;
nodes = (
"230 580 OFFCURVE",
"260 610 OFFCURVE",
"260 650 CURVE SMOOTH",
"260 690 OFFCURVE",
"230 720 OFFCURVE",
"190 720 CURVE SMOOTH",
"150 720 OFFCURVE",
"120 690 OFFCURVE",
"120 650 CURVE SMOOTH",
"120 610 OFFCURVE",
"150 580 OFFCURVE",
"190 580 CURVE SMOOTH"
);
},
{
closed = 1;
nodes = (
"415 580 OFFCURVE",
"445 610 OFFCURVE",
"445 650 CURVE SMOOTH",
"445 690 OFFCURVE",
"415 720 OFFCURVE",
"375 720 CURVE SMOOTH",
"335 720 OFFCURVE",
"305 690 OFFCURVE",
"305 650 CURVE SMOOTH",
"305 610 OFFCURVE",
"335 580 OFFCURVE",
"375 580 CURVE SMOOTH"
);
}
);
width = 560;
}
);
unicode = 0451;
},
{
color = 4;
glyphname = "zhe-cy";
lastChange = "2016-09-23 18:44:33 +0000";
layers = (
{
anchors = (
{
name = bottomright;
position = "{625, 0}";
},
{
name = top;
position = "{440, 500}";
}
);
layerId = UUID0;
paths = (
{
closed = 1;
nodes = (
"110 0 LINE SMOOTH",
"185 0 OFFCURVE",
"225 40 OFFCURVE",
"240 85 CURVE SMOOTH",
"295 250 LINE",
"360 250 LINE",
"360 30 LINE",
"300 15 LINE",
"300 0 LINE",
"580 0 LINE",
"580 15 LINE",
"520 30 LINE",
"520 250 LINE",
"585 250 LINE",
"640 85 LINE SMOOTH",
"655 40 OFFCURVE",
"695 0 OFFCURVE",
"770 0 CURVE SMOOTH",
"875 0 LINE",
"875 15 LINE",
"825 30 LINE",
"775 185 LINE",
"759 230 OFFCURVE",
"720 270 OFFCURVE",
"635 270 CURVE SMOOTH",
"605 270 LINE",
"612 273 OFFCURVE",
"620 277 OFFCURVE",
"627 284 CURVE SMOOTH",
"639 295 OFFCURVE",
"652 312 OFFCURVE",
"660 340 CURVE SMOOTH",
"685 430 LINE",
"692 459 OFFCURVE",
"706 475 OFFCURVE",
"725 480 CURVE",
"725 345 LINE",
"737 342 LINE SMOOTH",
"744 341 OFFCURVE",
"754 340 OFFCURVE",
"765 340 CURVE SMOOTH",
"810 340 OFFCURVE",
"840 369 OFFCURVE",
"840 420 CURVE SMOOTH",
"840 476 OFFCURVE",
"805 510 OFFCURVE",
"745 510 CURVE SMOOTH",
"700 510 OFFCURVE",
"670 481 OFFCURVE",
"655 430 CURVE SMOOTH",
"630 340 LINE",
"619 305 OFFCURVE",
"590 275 OFFCURVE",
"550 275 CURVE SMOOTH",
"520 275 LINE",
"520 470 LINE",
"580 485 LINE",
"580 500 LINE",
"300 500 LINE",
"300 485 LINE",
"360 470 LINE",
"360 275 LINE",
"325 275 LINE SMOOTH",
"285 275 OFFCURVE",
"261 305 OFFCURVE",
"250 340 CURVE",
"225 430 LINE SMOOTH",
"210 481 OFFCURVE",
"180 510 OFFCURVE",
"135 510 CURVE SMOOTH",
"75 510 OFFCURVE",
"40 476 OFFCURVE",
"40 420 CURVE SMOOTH",
"40 369 OFFCURVE",
"70 340 OFFCURVE",
"115 340 CURVE SMOOTH",
"126 340 OFFCURVE",
"134 341 OFFCURVE",
"142 342 CURVE SMOOTH",
"155 345 LINE",
"155 480 LINE",
"174 475 OFFCURVE",
"188 459 OFFCURVE",
"195 430 CURVE",
"220 340 LINE SMOOTH",
"227 312 OFFCURVE",
"241 295 OFFCURVE",
"253 284 CURVE SMOOTH",
"260 277 OFFCURVE",
"268 273 OFFCURVE",
"275 270 CURVE",
"245 270 LINE SMOOTH",
"160 270 OFFCURVE",
"121 230 OFFCURVE",
"105 185 CURVE",
"55 30 LINE",
"5 15 LINE",
"5 0 LINE"
);
}
);
width = 880;
}
);
unicode = 0436;
},
{
color = 4;
glyphname = "ze-cy";
lastChange = "2016-09-23 18:44:33 +0000";
layers = (
{
anchors = (
{
name = bottom;
position = "{245, 0}";
},
{
name = top;
position = "{255, 500}";
}
);
layerId = UUID0;
paths = (
{
closed = 1;
nodes = (
"436 -15 OFFCURVE",
"500 50 OFFCURVE",
"500 130 CURVE SMOOTH",
"500 195 OFFCURVE",
"448 228 OFFCURVE",
"397 244 CURVE SMOOTH",
"367 253 OFFCURVE",
"333 259 OFFCURVE",
"295 260 CURVE",
"295 265 LINE",
"330 266 OFFCURVE",
"360 271 OFFCURVE",
"387 280 CURVE SMOOTH",
"433 296 OFFCURVE",
"480 323 OFFCURVE",
"480 385 CURVE SMOOTH",
"480 450 OFFCURVE",
"415 515 OFFCURVE",
"240 515 CURVE SMOOTH",
"100 515 OFFCURVE",
"45 460 OFFCURVE",
"45 405 CURVE SMOOTH",
"45 360 OFFCURVE",
"75 330 OFFCURVE",
"120 330 CURVE SMOOTH",
"131 330 OFFCURVE",
"139 331 OFFCURVE",
"147 332 CURVE SMOOTH",
"160 335 LINE",
"160 485 LINE",
"177 490 LINE SMOOTH",
"188 493 OFFCURVE",
"201 495 OFFCURVE",
"220 495 CURVE SMOOTH",
"276 495 OFFCURVE",
"315 456 OFFCURVE",
"315 385 CURVE SMOOTH",
"315 314 OFFCURVE",
"276 275 OFFCURVE",
"220 275 CURVE SMOOTH",
"175 275 LINE",
"175 250 LINE",
"240 250 LINE SMOOTH",
"296 250 OFFCURVE",
"335 210 OFFCURVE",
"335 130 CURVE SMOOTH",
"335 50 OFFCURVE",
"297 10 OFFCURVE",
"220 10 CURVE SMOOTH",
"120 10 OFFCURVE",
"55 75 OFFCURVE",
"55 140 CURVE",
"30 140 LINE",
"30 60 OFFCURVE",
"105 -15 OFFCURVE",
"240 -15 CURVE SMOOTH"
);
}
);
width = 530;
}
);
unicode = 0437;
},
{
color = 4;
glyphname = "ii-cy";
lastChange = "2016-09-23 18:44:33 +0000";
layers = (
{
anchors = (
{
name = bottomright;
position = "{420, 0}";
},
{
name = top;
position = "{340, 500}";
}
);
layerId = UUID0;
paths = (
{
closed = 1;
nodes = (
"320 0 LINE",
"320 15 LINE",
"260 30 LINE",
"260 85 LINE",
"420 360 LINE",
"420 30 LINE",
"360 15 LINE",
"360 0 LINE",
"640 0 LINE",
"640 15 LINE",
"580 30 LINE",
"580 470 LINE",
"640 485 LINE",
"640 500 LINE",
"360 500 LINE",
"360 485 LINE",
"420 470 LINE",
"420 415 LINE",
"260 140 LINE",
"260 470 LINE",
"320 485 LINE",
"320 500 LINE",
"40 500 LINE",
"40 485 LINE",
"100 470 LINE",
"100 30 LINE",
"40 15 LINE",
"40 0 LINE"
);
}
);
width = 680;
}
);
unicode = 0438;
},
{
color = 4;
glyphname = "iishort-cy";
lastChange = "2016-09-23 18:44:33 +0000";
layers = (
{
layerId = UUID0;
paths = (
{
closed = 1;
nodes = (
"320 0 LINE",
"320 15 LINE",
"260 30 LINE",
"260 85 LINE",
"420 360 LINE",
"420 30 LINE",
"360 15 LINE",
"360 0 LINE",
"640 0 LINE",
"640 15 LINE",
"580 30 LINE",
"580 470 LINE",
"640 485 LINE",
"640 500 LINE",
"360 500 LINE",
"360 485 LINE",
"420 470 LINE",
"420 415 LINE",
"260 140 LINE",
"260 470 LINE",
"320 485 LINE",
"320 500 LINE",
"40 500 LINE",
"40 485 LINE",
"100 470 LINE",
"100 30 LINE",
"40 15 LINE",
"40 0 LINE"
);
},
{
closed = 1;
nodes = (
"449 570 OFFCURVE",
"490 610 OFFCURVE",
"490 655 CURVE SMOOTH",
"490 690 OFFCURVE",
"465 715 OFFCURVE",
"430 715 CURVE SMOOTH",
"422 715 OFFCURVE",
"414 713 OFFCURVE",
"407 712 CURVE SMOOTH",
"395 710 LINE",
"395 600 LINE",
"395 601 OFFCURVE",
"375 590 OFFCURVE",
"340 590 CURVE SMOOTH",
"305 590 OFFCURVE",
"285 601 OFFCURVE",
"285 600 CURVE",
"285 710 LINE",
"273 712 LINE SMOOTH",
"266 713 OFFCURVE",
"257 715 OFFCURVE",
"250 715 CURVE SMOOTH",
"215 715 OFFCURVE",
"190 690 OFFCURVE",
"190 655 CURVE SMOOTH",
"190 610 OFFCURVE",
"231 570 OFFCURVE",
"340 570 CURVE SMOOTH"
);
}
);
width = 680;
}
);
unicode = 0439;
},
{
color = 4;
glyphname = "ka-cy";
lastChange = "2016-09-23 18:44:33 +0000";
layers = (
{
anchors = (
{
name = bottomright;
position = "{374, 0}";
},
{
name = center;
position = "{303, 261}";
},
{
name = top;
position = "{353, 500}";
}
);
layerId = UUID0;
paths = (
{
closed = 1;
nodes = (
"320 0 LINE",
"320 15 LINE",
"260 30 LINE",
"260 250 LINE",
"330 250 LINE",
"385 85 LINE SMOOTH",
"400 40 OFFCURVE",
"440 0 OFFCURVE",
"515 0 CURVE SMOOTH",
"620 0 LINE",
"620 15 LINE",
"570 30 LINE",
"520 185 LINE",
"504 230 OFFCURVE",
"465 270 OFFCURVE",
"380 270 CURVE SMOOTH",
"350 270 LINE",
"357 273 OFFCURVE",
"365 277 OFFCURVE",
"372 284 CURVE SMOOTH",
"384 295 OFFCURVE",
"397 312 OFFCURVE",
"405 340 CURVE SMOOTH",
"430 430 LINE",
"437 459 OFFCURVE",
"451 475 OFFCURVE",
"470 480 CURVE",
"470 345 LINE",
"482 342 LINE SMOOTH",
"489 341 OFFCURVE",
"499 340 OFFCURVE",
"510 340 CURVE SMOOTH",
"555 340 OFFCURVE",
"585 369 OFFCURVE",
"585 420 CURVE SMOOTH",
"585 476 OFFCURVE",
"550 510 OFFCURVE",
"490 510 CURVE SMOOTH",
"445 510 OFFCURVE",
"415 481 OFFCURVE",
"400 430 CURVE SMOOTH",
"375 340 LINE",
"364 305 OFFCURVE",
"335 275 OFFCURVE",
"295 275 CURVE SMOOTH",
"260 275 LINE",
"260 470 LINE",
"320 485 LINE",
"320 500 LINE",
"40 500 LINE",
"40 485 LINE",
"100 470 LINE",
"100 30 LINE",
"40 15 LINE",
"40 0 LINE"
);
}
);
width = 625;
}
);
unicode = 043A;
},
{
color = 4;
glyphname = "el-cy";
lastChange = "2016-09-23 18:44:33 +0000";
layers = (
{
layerId = UUID0;
paths = (
{
closed = 1;
nodes = (
"139 -15 OFFCURVE",
"192 35 OFFCURVE",
"200 170 CURVE",
"220 475 LINE",
"365 475 LINE",
"365 30 LINE",
"305 15 LINE",
"305 0 LINE",
"585 0 LINE",
"585 15 LINE",
"525 30 LINE",
"525 470 LINE",
"585 485 LINE",
"585 500 LINE",
"120 500 LINE",
"120 485 LINE",
"190 465 LINE",
"170 170 LINE SMOOTH",
"162 54 OFFCURVE",
"130 26 OFFCURVE",
"105 15 CURVE",
"105 150 LINE",
"92 152 LINE SMOOTH",
"84 153 OFFCURVE",
"76 155 OFFCURVE",
"65 155 CURVE SMOOTH",
"25 155 OFFCURVE",
"-10 120 OFFCURVE",
"-10 75 CURVE SMOOTH",
"-10 19 OFFCURVE",
"25 -15 OFFCURVE",
"85 -15 CURVE SMOOTH"
);
}
);
width = 625;
}
);
unicode = 043B;
},
{
color = 4;
glyphname = "em-cy";
lastChange = "2016-09-23 18:44:33 +0000";
layers = (
{
layerId = UUID0;
paths = (
{
closed = 1;
nodes = (
"374 -10 LINE",
"550 380 LINE",
"550 30 LINE",
"490 15 LINE",
"490 0 LINE",
"770 0 LINE",
"770 15 LINE",
"710 30 LINE",
"710 470 LINE",
"770 485 LINE",
"770 500 LINE",
"670 500 LINE SMOOTH",
"595 500 OFFCURVE",
"563 469 OFFCURVE",
"540 420 CURVE SMOOTH",
"431 179 LINE",
"295 420 LINE SMOOTH",
"270 465 OFFCURVE",
"236 500 OFFCURVE",
"165 500 CURVE SMOOTH",
"30 500 LINE",
"30 485 LINE",
"100 470 LINE",
"100 45 LINE",
"20 15 LINE",
"20 0 LINE",
"210 0 LINE",
"210 15 LINE",
"130 45 LINE",
"130 380 LINE",
"350 -10 LINE"
);
}
);
width = 810;
}
);
unicode = 043C;
},
{
color = 4;
glyphname = "en-cy";
lastChange = "2016-09-23 18:44:33 +0000";
layers = (
{
anchors = (
{
name = bottomright;
position = "{410, 0}";
}
);
hints = (
{
horizontal = 1;
origin = "{0, 3}";
target = "{0, 18}";
},
{
origin = "{0, 24}";
target = "{0, 19}";
},
{
origin = "{0, 16}";
target = "{0, 11}";
}
);
layerId = UUID0;
paths = (
{
closed = 1;
nodes = (
"320 0 LINE",
"320 15 LINE",
"260 30 LINE",
"260 240 LINE",
"410 240 LINE",
"410 30 LINE",
"350 15 LINE",
"350 0 LINE",
"630 0 LINE",
"630 15 LINE",
"570 30 LINE",
"570 470 LINE",
"630 485 LINE",
"630 500 LINE",
"350 500 LINE",
"350 485 LINE",
"410 470 LINE",
"410 265 LINE",
"260 265 LINE",
"260 470 LINE",
"320 485 LINE",
"320 500 LINE",
"40 500 LINE",
"40 485 LINE",
"100 470 LINE",
"100 30 LINE",
"40 15 LINE",
"40 0 LINE"
);
}
);
width = 670;
}
);
unicode = 043D;
},
{
color = 4;
glyphname = "pe-cy";
lastChange = "2016-09-23 18:44:33 +0000";
layers = (
{
anchors = (
{
name = bottomright;
position = "{410, 0}";
}
);
layerId = UUID0;
paths = (
{
closed = 1;
nodes = (
"320 0 LINE",
"320 15 LINE",
"260 30 LINE",
"260 475 LINE",
"410 475 LINE",
"410 30 LINE",
"350 15 LINE",
"350 0 LINE",
"630 0 LINE",
"630 15 LINE",
"570 30 LINE",
"570 470 LINE",
"630 485 LINE",
"630 500 LINE",
"40 500 LINE",
"40 485 LINE",
"100 470 LINE",
"100 30 LINE",
"40 15 LINE",
"40 0 LINE"
);
}
);
width = 670;
}
);
unicode = 043F;
},
{
color = 4;
glyphname = "er-cy";
lastChange = "2016-09-23 18:44:33 +0000";
layers = (
{
layerId = UUID0;
paths = (
{
closed = 1;
nodes = (
"310 -200 LINE",
"310 -185 LINE",
"250 -170 LINE",
"250 25 LINE",
"259 18 OFFCURVE",
"269 11 OFFCURVE",
"281 5 CURVE SMOOTH",
"301 -6 OFFCURVE",
"330 -15 OFFCURVE",
"365 -15 CURVE SMOOTH",
"496 -15 OFFCURVE",
"585 75 OFFCURVE",
"585 250 CURVE SMOOTH",
"585 425 OFFCURVE",
"495 515 OFFCURVE",
"380 515 CURVE SMOOTH",
"327 515 OFFCURVE",
"291 493 OFFCURVE",
"268 470 CURVE SMOOTH",
"255 457 OFFCURVE",
"244 442 OFFCURVE",
"235 425 CURVE",
"230 438 OFFCURVE",
"223 451 OFFCURVE",
"213 462 CURVE SMOOTH",
"196 481 OFFCURVE",
"167 500 OFFCURVE",
"120 500 CURVE SMOOTH",
"30 500 LINE",
"30 485 LINE",
"90 470 LINE",
"90 -170 LINE",
"30 -185 LINE",
"30 -200 LINE"
);
},
{
closed = 1;
nodes = (
"305 15 OFFCURVE",
"287 24 OFFCURVE",
"272 35 CURVE SMOOTH",
"264 41 OFFCURVE",
"257 48 OFFCURVE",
"250 55 CURVE",
"250 400 LINE",
"256 415 OFFCURVE",
"263 428 OFFCURVE",
"272 440 CURVE SMOOTH",
"287 460 OFFCURVE",
"309 480 OFFCURVE",
"340 480 CURVE SMOOTH",
"375 480 OFFCURVE",
"415 440 OFFCURVE",
"415 250 CURVE SMOOTH",
"415 55 OFFCURVE",
"376 15 OFFCURVE",
"325 15 CURVE SMOOTH"
);
}
);
width = 625;
}
);
unicode = 0440;
},
{
color = 4;
glyphname = "te-cy";
lastChange = "2016-09-23 18:44:33 +0000";
layers = (
{
layerId = UUID0;
paths = (
{
closed = 1;
nodes = (
"415 0 LINE",
"415 15 LINE",
"355 30 LINE",
"355 475 LINE",
"430 475 LINE",
"430 427 OFFCURVE",
"446 391 OFFCURVE",
"462 364 CURVE SMOOTH",
"471 349 OFFCURVE",
"482 336 OFFCURVE",
"495 325 CURVE",
"525 325 LINE",
"525 500 LINE",
"25 500 LINE",
"25 325 LINE",
"55 325 LINE",
"67 336 OFFCURVE",
"78 349 OFFCURVE",
"87 364 CURVE SMOOTH",
"103 391 OFFCURVE",
"120 427 OFFCURVE",
"120 475 CURVE",
"195 475 LINE",
"195 30 LINE",
"135 15 LINE",
"135 0 LINE"
);
}
);
width = 550;
}
);
unicode = 0442;
},
{
color = 4;
glyphname = "ef-cy";
lastChange = "2016-09-23 18:44:33 +0000";
layers = (
{
layerId = UUID0;
paths = (
{
closed = 1;
nodes = (
"545 -200 LINE",
"545 -185 LINE",
"485 -170 LINE",
"485 -5 LINE",
"670 0 OFFCURVE",
"780 110 OFFCURVE",
"780 250 CURVE SMOOTH",
"780 390 OFFCURVE",
"670 500 OFFCURVE",
"485 505 CURVE",
"485 610 LINE SMOOTH",
"485 670 OFFCURVE",
"455 700 OFFCURVE",
"395 700 CURVE SMOOTH",
"265 700 LINE",
"265 685 LINE",
"325 670 LINE",
"325 505 LINE",
"140 500 OFFCURVE",
"30 390 OFFCURVE",
"30 250 CURVE SMOOTH",
"30 110 OFFCURVE",
"140 0 OFFCURVE",
"325 -5 CURVE",
"325 -170 LINE",
"265 -185 LINE",
"265 -200 LINE"
);
},
{
closed = 1;
nodes = (
"260 20 OFFCURVE",
"200 79 OFFCURVE",
"200 250 CURVE SMOOTH",
"200 421 OFFCURVE",
"260 480 OFFCURVE",
"325 485 CURVE",
"325 15 LINE"
);
},
{
closed = 1;
nodes = (
"485 485 LINE",
"550 480 OFFCURVE",
"610 421 OFFCURVE",
"610 250 CURVE SMOOTH",
"610 79 OFFCURVE",
"550 20 OFFCURVE",
"485 15 CURVE"
);
}
);
width = 810;
}
);
unicode = 0444;
},
{
color = 4;
glyphname = "ha-cy";
lastChange = "2016-09-23 18:44:33 +0000";
layers = (
{
layerId = UUID0;
paths = (
{
closed = 1;
nodes = (
"200 0 LINE",
"200 15 LINE",
"125 45 LINE",
"230 179 LINE",
"290 85 LINE SMOOTH",
"322 35 OFFCURVE",
"355 0 OFFCURVE",
"425 0 CURVE SMOOTH",
"560 0 LINE",
"560 15 LINE",
"510 30 LINE",
"331 310 LINE",
"445 455 LINE",
"525 485 LINE",
"525 500 LINE",
"335 500 LINE",
"335 485 LINE",
"410 455 LINE",
"316 334 LINE",
"265 415 LINE SMOOTH",
"233 465 OFFCURVE",
"199 500 OFFCURVE",
"130 500 CURVE SMOOTH",
"-5 500 LINE",
"-5 485 LINE",
"45 470 LINE",
"214 204 LINE",
"90 45 LINE",
"10 15 LINE",
"10 0 LINE"
);
}
);
width = 555;
}
);
unicode = 0445;
},
{
color = 4;
glyphname = "che-cy";
lastChange = "2016-09-23 18:44:33 +0000";
layers = (
{
anchors = (
{
name = bottomright;
position = "{375, 0}";
},
{
name = center;
position = "{318, 205}";
},
{
name = top;
position = "{305, 500}";
}
);
layerId = UUID0;
paths = (
{
closed = 1;
nodes = (
"595 0 LINE",
"595 15 LINE",
"535 30 LINE",
"535 470 LINE",
"595 485 LINE",
"595 500 LINE",
"315 500 LINE",
"315 485 LINE",
"375 470 LINE",
"375 230 LINE",
"358 213 OFFCURVE",
"338 205 OFFCURVE",
"310 205 CURVE SMOOTH",
"265 205 OFFCURVE",
"235 234 OFFCURVE",
"235 325 CURVE SMOOTH",
"235 470 LINE",
"295 485 LINE",
"295 500 LINE",
"15 500 LINE",
"15 485 LINE",
"75 470 LINE",
"75 325 LINE SMOOTH",
"75 240 OFFCURVE",
"135 180 OFFCURVE",
"270 180 CURVE SMOOTH",
"306 180 OFFCURVE",
"347 188 OFFCURVE",
"375 205 CURVE",
"375 30 LINE",
"315 15 LINE",
"315 0 LINE"
);
}
);
width = 635;
}
);
unicode = 0447;
},
{
color = 4;
glyphname = "tse-cy";
lastChange = "2016-09-23 18:44:33 +0000";
layers = (
{
layerId = UUID0;
paths = (
{
closed = 1;
nodes = (
"660 -165 LINE",
"660 25 LINE",
"570 25 LINE",
"570 470 LINE",
"630 485 LINE",
"630 500 LINE",
"350 500 LINE",
"350 485 LINE",
"410 470 LINE",
"410 25 LINE",
"260 25 LINE",
"260 470 LINE",
"320 485 LINE",
"320 500 LINE",
"40 500 LINE",
"40 485 LINE",
"100 470 LINE",
"100 30 LINE",
"40 15 LINE",
"40 0 LINE",
"545 0 LINE",
"545 -56 OFFCURVE",
"566 -97 OFFCURVE",
"587 -124 CURVE SMOOTH",
"599 -141 OFFCURVE",
"613 -154 OFFCURVE",
"630 -165 CURVE"
);
}
);
width = 675;
}
);
unicode = 0446;
},
{
color = 4;
glyphname = "sha-cy";
lastChange = "2016-09-23 18:44:33 +0000";
layers = (
{
layerId = UUID0;
paths = (
{
closed = 1;
nodes = (
"900 0 LINE",
"900 15 LINE",
"840 30 LINE",
"840 470 LINE",
"900 485 LINE",
"900 500 LINE",
"625 500 LINE",
"625 485 LINE",
"680 470 LINE",
"680 25 LINE",
"550 25 LINE",
"550 470 LINE",
"605 485 LINE",
"605 500 LINE",
"335 500 LINE",
"335 485 LINE",
"390 470 LINE",
"390 25 LINE",
"260 25 LINE",
"260 470 LINE",
"315 485 LINE",
"315 500 LINE",
"40 500 LINE",
"40 485 LINE",
"100 470 LINE",
"100 30 LINE",
"40 15 LINE",
"40 0 LINE"
);
}
);
width = 940;
}
);
unicode = 0448;
},
{
color = 4;
glyphname = "shcha-cy";
lastChange = "2016-09-23 18:44:33 +0000";
layers = (
{
layerId = UUID0;
paths = (
{
closed = 1;
nodes = (
"930 -165 LINE",
"930 25 LINE",
"840 25 LINE",
"840 470 LINE",
"900 485 LINE",
"900 500 LINE",
"625 500 LINE",
"625 485 LINE",
"680 470 LINE",
"680 25 LINE",
"550 25 LINE",
"550 470 LINE",
"605 485 LINE",
"605 500 LINE",
"335 500 LINE",
"335 485 LINE",
"390 470 LINE",
"390 25 LINE",
"260 25 LINE",
"260 470 LINE",
"315 485 LINE",
"315 500 LINE",
"40 500 LINE",
"40 485 LINE",
"100 470 LINE",
"100 30 LINE",
"40 15 LINE",
"40 0 LINE",
"815 0 LINE",
"815 -56 OFFCURVE",
"836 -97 OFFCURVE",
"857 -124 CURVE SMOOTH",
"869 -141 OFFCURVE",
"883 -154 OFFCURVE",
"900 -165 CURVE"
);
}
);
width = 945;
}
);
unicode = 0449;
},
{
color = 4;
glyphname = "dzhe-cy";
lastChange = "2016-09-23 18:44:33 +0000";
layers = (
{
layerId = UUID0;
paths = (
{
closed = 1;
nodes = (
"350 -160 LINE",
"356 -149 OFFCURVE",
"362 -135 OFFCURVE",
"367 -118 CURVE SMOOTH",
"376 -91 OFFCURVE",
"385 -51 OFFCURVE",
"385 0 CURVE",
"630 0 LINE",
"630 15 LINE",
"570 30 LINE",
"570 470 LINE",
"630 485 LINE",
"630 500 LINE",
"350 500 LINE",
"350 485 LINE",
"410 470 LINE",
"410 25 LINE",
"260 25 LINE",
"260 470 LINE",
"320 485 LINE",
"320 500 LINE",
"40 500 LINE",
"40 485 LINE",
"100 470 LINE",
"100 30 LINE",
"40 15 LINE",
"40 0 LINE",
"285 0 LINE",
"285 -51 OFFCURVE",
"293 -91 OFFCURVE",
"302 -118 CURVE SMOOTH",
"307 -135 OFFCURVE",
"313 -149 OFFCURVE",
"320 -160 CURVE"
);
}
);
width = 670;
}
);
unicode = 045F;
},
{
color = 4;
glyphname = "softsign-cy";
lastChange = "2016-09-23 18:44:33 +0000";
layers = (
{
layerId = UUID0;
paths = (
{
closed = 1;
nodes = (
"310 0 LINE SMOOTH",
"506 0 OFFCURVE",
"570 65 OFFCURVE",
"570 150 CURVE SMOOTH",
"570 235 OFFCURVE",
"506 300 OFFCURVE",
"310 300 CURVE SMOOTH",
"260 300 LINE",
"260 470 LINE",
"320 485 LINE",
"320 500 LINE",
"40 500 LINE",
"40 485 LINE",
"100 470 LINE",
"100 30 LINE",
"40 15 LINE",
"40 0 LINE"
);
},
{
closed = 1;
nodes = (
"260 275 LINE",
"310 275 LINE",
"366 275 OFFCURVE",
"405 235 OFFCURVE",
"405 150 CURVE SMOOTH",
"405 65 OFFCURVE",
"366 25 OFFCURVE",
"310 25 CURVE SMOOTH",
"260 25 LINE"
);
}
);
width = 590;
}
);
unicode = 044C;
},
{
color = 4;
glyphname = "hardsign-cy";
lastChange = "2016-09-23 18:44:33 +0000";
layers = (
{
layerId = UUID0;
paths = (
{
closed = 1;
nodes = (
"390 0 LINE SMOOTH",
"586 0 OFFCURVE",
"650 65 OFFCURVE",
"650 150 CURVE SMOOTH",
"650 235 OFFCURVE",
"586 300 OFFCURVE",
"390 300 CURVE SMOOTH",
"350 300 LINE",
"350 470 LINE",
"410 485 LINE",
"410 500 LINE",
"25 500 LINE",
"25 325 LINE",
"55 325 LINE",
"67 336 OFFCURVE",
"78 349 OFFCURVE",
"87 364 CURVE SMOOTH",
"103 391 OFFCURVE",
"120 427 OFFCURVE",
"120 475 CURVE",
"190 475 LINE",
"190 30 LINE",
"130 15 LINE",
"130 0 LINE"
);
},
{
closed = 1;
nodes = (
"350 275 LINE",
"390 275 LINE",
"446 275 OFFCURVE",
"485 235 OFFCURVE",
"485 150 CURVE SMOOTH",
"485 65 OFFCURVE",
"446 25 OFFCURVE",
"390 25 CURVE SMOOTH",
"350 25 LINE"
);
}
);
width = 670;
}
);
unicode = 044A;
},
{
color = 4;
glyphname = "yeru-cy";
lastChange = "2016-09-23 18:44:33 +0000";
layers = (
{
anchors = (
{
name = top;
position = "{455, 500}";
}
);
layerId = UUID0;
paths = (
{
closed = 1;
nodes = (
"310 0 LINE SMOOTH",
"506 0 OFFCURVE",
"570 65 OFFCURVE",
"570 150 CURVE SMOOTH",
"570 235 OFFCURVE",
"506 300 OFFCURVE",
"310 300 CURVE SMOOTH",
"260 300 LINE",
"260 470 LINE",
"320 485 LINE",
"320 500 LINE",
"40 500 LINE",
"40 485 LINE",
"100 470 LINE",
"100 30 LINE",
"40 15 LINE",
"40 0 LINE"
);
},
{
closed = 1;
nodes = (
"260 275 LINE",
"310 275 LINE",
"366 275 OFFCURVE",
"405 235 OFFCURVE",
"405 150 CURVE SMOOTH",
"405 65 OFFCURVE",
"366 25 OFFCURVE",
"310 25 CURVE SMOOTH",
"260 25 LINE"
);
},
{
closed = 1;
nodes = (
"870 0 LINE",
"870 15 LINE",
"810 30 LINE",
"810 470 LINE",
"870 485 LINE",
"870 500 LINE",
"590 500 LINE",
"590 485 LINE",
"650 470 LINE",
"650 30 LINE",
"590 15 LINE",
"590 0 LINE"
);
}
);
width = 910;
}
);
unicode = 044B;
},
{
color = 4;
glyphname = "lje-cy";
lastChange = "2016-09-23 18:44:33 +0000";
layers = (
{
layerId = UUID0;
paths = (
{
closed = 1;
nodes = (
"139 -15 OFFCURVE",
"192 35 OFFCURVE",
"200 170 CURVE",
"220 475 LINE",
"365 475 LINE",
"365 30 LINE",
"305 15 LINE",
"305 0 LINE",
"575 0 LINE SMOOTH",
"771 0 OFFCURVE",
"835 65 OFFCURVE",
"835 150 CURVE SMOOTH",
"835 235 OFFCURVE",
"771 300 OFFCURVE",
"575 300 CURVE SMOOTH",
"525 300 LINE",
"525 470 LINE",
"585 485 LINE",
"585 500 LINE",
"120 500 LINE",
"120 485 LINE",
"190 465 LINE",
"170 170 LINE SMOOTH",
"162 54 OFFCURVE",
"130 26 OFFCURVE",
"105 15 CURVE",
"105 150 LINE",
"92 152 LINE SMOOTH",
"84 153 OFFCURVE",
"76 155 OFFCURVE",
"65 155 CURVE SMOOTH",
"25 155 OFFCURVE",
"-10 120 OFFCURVE",
"-10 75 CURVE SMOOTH",
"-10 19 OFFCURVE",
"25 -15 OFFCURVE",
"85 -15 CURVE SMOOTH"
);
},
{
closed = 1;
nodes = (
"525 275 LINE",
"575 275 LINE",
"631 275 OFFCURVE",
"670 235 OFFCURVE",
"670 150 CURVE SMOOTH",
"670 65 OFFCURVE",
"631 25 OFFCURVE",
"575 25 CURVE SMOOTH",
"525 25 LINE"
);
}
);
width = 855;
}
);
unicode = 0459;
},
{
color = 4;
glyphname = "nje-cy";
lastChange = "2016-09-23 18:44:33 +0000";
layers = (
{
layerId = UUID0;
paths = (
{
closed = 1;
nodes = (
"320 0 LINE",
"320 15 LINE",
"260 30 LINE",
"260 260 LINE",
"410 260 LINE",
"410 30 LINE",
"350 15 LINE",
"350 0 LINE",
"620 0 LINE SMOOTH",
"816 0 OFFCURVE",
"880 65 OFFCURVE",
"880 145 CURVE SMOOTH",
"880 225 OFFCURVE",
"816 290 OFFCURVE",
"620 290 CURVE SMOOTH",
"570 290 LINE",
"570 470 LINE",
"630 485 LINE",
"630 500 LINE",
"350 500 LINE",
"350 485 LINE",
"410 470 LINE",
"410 285 LINE",
"260 285 LINE",
"260 470 LINE",
"320 485 LINE",
"320 500 LINE",
"40 500 LINE",
"40 485 LINE",
"100 470 LINE",
"100 30 LINE",
"40 15 LINE",
"40 0 LINE"
);
},
{
closed = 1;
nodes = (
"570 265 LINE",
"620 265 LINE",
"676 265 OFFCURVE",
"715 225 OFFCURVE",
"715 145 CURVE SMOOTH",
"715 65 OFFCURVE",
"676 25 OFFCURVE",
"620 25 CURVE SMOOTH",
"570 25 LINE"
);
}
);
width = 900;
}
);
unicode = 045A;
},
{
color = 4;
glyphname = "dze-cy";
lastChange = "2016-09-23 18:42:53 +0000";
layers = (
{
layerId = UUID0;
paths = (
{
closed = 1;
nodes = (
"446 -15 OFFCURVE",
"505 45 OFFCURVE",
"505 130 CURVE SMOOTH",
"505 290 OFFCURVE",
"215 300 OFFCURVE",
"215 420 CURVE SMOOTH",
"215 460 OFFCURVE",
"245 490 OFFCURVE",
"280 490 CURVE SMOOTH",
"336 490 OFFCURVE",
"374 451 OFFCURVE",
"399 412 CURVE SMOOTH",
"414 389 OFFCURVE",
"426 364 OFFCURVE",
"436 335 CURVE",
"476 335 LINE",
"476 505 LINE",
"451 505 LINE",
"444 502 OFFCURVE",
"438 498 OFFCURVE",
"431 494 CURVE SMOOTH",
"420 486 OFFCURVE",
"407 475 OFFCURVE",
"396 460 CURVE",
"385 470 OFFCURVE",
"372 479 OFFCURVE",
"358 487 CURVE SMOOTH",
"334 502 OFFCURVE",
"300 515 OFFCURVE",
"260 515 CURVE SMOOTH",
"110 515 OFFCURVE",
"50 455 OFFCURVE",
"50 380 CURVE SMOOTH",
"50 210 OFFCURVE",
"340 200 OFFCURVE",
"340 90 CURVE SMOOTH",
"340 39 OFFCURVE",
"311 10 OFFCURVE",
"255 10 CURVE SMOOTH",
"191 10 OFFCURVE",
"150 48 OFFCURVE",
"123 87 CURVE SMOOTH",
"107 110 OFFCURVE",
"94 136 OFFCURVE",
"85 165 CURVE",
"45 165 LINE",
"45 -5 LINE",
"70 -5 LINE",
"77 -2 OFFCURVE",
"83 1 OFFCURVE",
"90 6 CURVE SMOOTH",
"101 13 OFFCURVE",
"114 25 OFFCURVE",
"125 40 CURVE",
"136 29 OFFCURVE",
"149 20 OFFCURVE",
"164 12 CURVE SMOOTH",
"191 -3 OFFCURVE",
"227 -15 OFFCURVE",
"275 -15 CURVE SMOOTH"
);
}
);
width = 540;
}
);
unicode = 0455;
},
{
color = 4;
glyphname = "e-cy";
lastChange = "2016-09-23 18:44:33 +0000";
layers = (
{
layerId = UUID0;
paths = (
{
closed = 1;
nodes = (
"425 -15 OFFCURVE",
"500 60 OFFCURVE",
"500 140 CURVE",
"475 140 LINE",
"475 75 OFFCURVE",
"410 10 OFFCURVE",
"330 10 CURVE SMOOTH",
"265 10 OFFCURVE",
"215 55 OFFCURVE",
"210 230 CURVE",
"285 230 LINE",
"290 210 OFFCURVE",
"300 192 OFFCURVE",
"309 177 CURVE SMOOTH",
"314 169 OFFCURVE",
"320 162 OFFCURVE",
"325 155 CURVE",
"350 155 LINE",
"350 330 LINE",
"325 330 LINE",
"309 307 LINE",
"300 292 OFFCURVE",
"290 275 OFFCURVE",
"285 255 CURVE",
"210 255 LINE",
"210 444 OFFCURVE",
"261 495 OFFCURVE",
"330 495 CURVE SMOOTH",
"345 495 OFFCURVE",
"357 493 OFFCURVE",
"366 490 CURVE SMOOTH",
"380 485 LINE",
"380 335 LINE",
"392 332 LINE SMOOTH",
"399 331 OFFCURVE",
"409 330 OFFCURVE",
"420 330 CURVE SMOOTH",
"465 330 OFFCURVE",
"495 360 OFFCURVE",
"495 405 CURVE SMOOTH",
"495 460 OFFCURVE",
"441 515 OFFCURVE",
"310 515 CURVE SMOOTH",
"139 515 OFFCURVE",
"40 415 OFFCURVE",
"40 250 CURVE SMOOTH",
"40 85 OFFCURVE",
"139 -15 OFFCURVE",
"310 -15 CURVE SMOOTH"
);
}
);
width = 530;
}
);
unicode = 0454;
},
{
color = 4;
glyphname = "ereversed-cy";
lastChange = "2016-09-23 18:44:33 +0000";
layers = (
{
layerId = UUID0;
paths = (
{
closed = 1;
nodes = (
"390 -15 OFFCURVE",
"490 85 OFFCURVE",
"490 250 CURVE SMOOTH",
"490 415 OFFCURVE",
"390 515 OFFCURVE",
"220 515 CURVE SMOOTH",
"89 515 OFFCURVE",
"35 460 OFFCURVE",
"35 405 CURVE SMOOTH",
"35 360 OFFCURVE",
"65 330 OFFCURVE",
"110 330 CURVE SMOOTH",
"121 330 OFFCURVE",
"129 331 OFFCURVE",
"137 332 CURVE SMOOTH",
"150 335 LINE",
"150 485 LINE",
"164 490 LINE SMOOTH",
"173 493 OFFCURVE",
"185 495 OFFCURVE",
"200 495 CURVE SMOOTH",
"269 495 OFFCURVE",
"320 444 OFFCURVE",
"320 255 CURVE",
"245 255 LINE",
"240 275 OFFCURVE",
"230 292 OFFCURVE",
"221 307 CURVE",
"205 330 LINE",
"180 330 LINE",
"180 155 LINE",
"205 155 LINE",
"210 162 OFFCURVE",
"216 169 OFFCURVE",
"221 177 CURVE SMOOTH",
"230 192 OFFCURVE",
"240 210 OFFCURVE",
"245 230 CURVE",
"320 230 LINE",
"315 55 OFFCURVE",
"265 10 OFFCURVE",
"200 10 CURVE SMOOTH",
"120 10 OFFCURVE",
"55 75 OFFCURVE",
"55 140 CURVE",
"30 140 LINE",
"30 60 OFFCURVE",
"105 -15 OFFCURVE",
"220 -15 CURVE SMOOTH"
);
}
);
width = 530;
}
);
unicode = 044D;
},
{
color = 4;
glyphname = "i-cy";
lastChange = "2016-09-23 18:44:33 +0000";
layers = (
{
layerId = UUID0;
paths = (
{
closed = 1;
nodes = (
"320 0 LINE",
"320 15 LINE",
"260 30 LINE",
"260 410 LINE SMOOTH",
"260 470 OFFCURVE",
"230 500 OFFCURVE",
"170 500 CURVE SMOOTH",
"40 500 LINE",
"40 485 LINE",
"100 470 LINE",
"100 30 LINE",
"40 15 LINE",
"40 0 LINE"
);
},
{
closed = 1;
nodes = (
"225 540 OFFCURVE",
"265 580 OFFCURVE",
"265 625 CURVE SMOOTH",
"265 670 OFFCURVE",
"225 710 OFFCURVE",
"180 710 CURVE SMOOTH",
"135 710 OFFCURVE",
"95 670 OFFCURVE",
"95 625 CURVE SMOOTH",
"95 580 OFFCURVE",
"135 540 OFFCURVE",
"180 540 CURVE SMOOTH"
);
}
);
width = 340;
}
);
unicode = 0456;
},
{
color = 4;
glyphname = "je-cy";
lastChange = "2016-09-23 18:44:33 +0000";
layers = (
{
layerId = UUID0;
paths = (
{
closed = 1;
nodes = (
"175 -215 OFFCURVE",
"255 -135 OFFCURVE",
"255 -30 CURVE SMOOTH",
"255 410 LINE SMOOTH",
"255 470 OFFCURVE",
"225 500 OFFCURVE",
"165 500 CURVE SMOOTH",
"35 500 LINE",
"35 485 LINE",
"95 470 LINE",
"95 -30 LINE SMOOTH",
"95 -161 OFFCURVE",
"60 -195 OFFCURVE",
"25 -195 CURVE SMOOTH",
"21 -195 OFFCURVE",
"16 -194 OFFCURVE",
"11 -193 CURVE",
"5 -190 LINE",
"5 -50 LINE",
"-8 -48 LINE SMOOTH",
"-16 -47 OFFCURVE",
"-24 -45 OFFCURVE",
"-35 -45 CURVE SMOOTH",
"-80 -45 OFFCURVE",
"-110 -75 OFFCURVE",
"-110 -120 CURVE SMOOTH",
"-110 -176 OFFCURVE",
"-70 -215 OFFCURVE",
"35 -215 CURVE SMOOTH"
);
},
{
closed = 1;
nodes = (
"220 540 OFFCURVE",
"260 580 OFFCURVE",
"260 625 CURVE SMOOTH",
"260 670 OFFCURVE",
"220 710 OFFCURVE",
"175 710 CURVE SMOOTH",
"130 710 OFFCURVE",
"90 670 OFFCURVE",
"90 625 CURVE SMOOTH",
"90 580 OFFCURVE",
"130 540 OFFCURVE",
"175 540 CURVE SMOOTH"
);
}
);
width = 330;
}
);
unicode = 0458;
},
{
color = 4;
glyphname = "tshe-cy";
lastChange = "2016-09-23 18:44:33 +0000";
layers = (
{
layerId = UUID0;
paths = (
{
closed = 1;
nodes = (
"320 0 LINE",
"320 15 LINE",
"260 30 LINE",
"260 370 LINE",
"266 385 OFFCURVE",
"273 398 OFFCURVE",
"282 410 CURVE SMOOTH",
"297 430 OFFCURVE",
"319 450 OFFCURVE",
"350 450 CURVE SMOOTH",
"385 450 OFFCURVE",
"425 411 OFFCURVE",
"425 320 CURVE SMOOTH",
"425 90 LINE SMOOTH",
"425 30 OFFCURVE",
"455 0 OFFCURVE",
"515 0 CURVE SMOOTH",
"645 0 LINE",
"645 15 LINE",
"585 30 LINE",
"585 320 LINE SMOOTH",
"585 404 OFFCURVE",
"505 485 OFFCURVE",
"390 485 CURVE SMOOTH",
"345 485 OFFCURVE",
"312 468 OFFCURVE",
"291 452 CURVE SMOOTH",
"279 443 OFFCURVE",
"269 432 OFFCURVE",
"260 420 CURVE",
"260 545 LINE",
"385 545 LINE",
"385 570 LINE",
"260 570 LINE",
"260 610 LINE SMOOTH",
"260 670 OFFCURVE",
"230 700 OFFCURVE",
"170 700 CURVE SMOOTH",
"40 700 LINE",
"40 685 LINE",
"100 670 LINE",
"100 570 LINE",
"35 570 LINE",
"35 545 LINE",
"100 545 LINE",
"100 30 LINE",
"40 15 LINE",
"40 0 LINE"
);
}
);
width = 665;
}
);
unicode = 045B;
},
{
color = 4;
glyphname = "iu-cy";
lastChange = "2016-09-23 18:42:53 +0000";
layers = (
{
layerId = UUID0;
paths = (
{
closed = 1;
nodes = (
"745 -15 OFFCURVE",
"845 85 OFFCURVE",
"845 250 CURVE SMOOTH",
"845 415 OFFCURVE",
"745 515 OFFCURVE",
"590 515 CURVE SMOOTH",
"440 515 OFFCURVE",
"340 420 OFFCURVE",
"335 265 CURVE",
"260 265 LINE",
"260 470 LINE",
"320 485 LINE",
"320 500 LINE",
"40 500 LINE",
"40 485 LINE",
"100 470 LINE",
"100 30 LINE",
"40 15 LINE",
"40 0 LINE",
"320 0 LINE",
"320 15 LINE",
"260 30 LINE",
"260 240 LINE",
"335 240 LINE",
"340 80 OFFCURVE",
"440 -15 OFFCURVE",
"590 -15 CURVE SMOOTH"
);
},
{
closed = 1;
nodes = (
"550 5 OFFCURVE",
"505 50 OFFCURVE",
"505 250 CURVE SMOOTH",
"505 450 OFFCURVE",
"550 495 OFFCURVE",
"590 495 CURVE SMOOTH",
"630 495 OFFCURVE",
"675 450 OFFCURVE",
"675 250 CURVE SMOOTH",
"675 50 OFFCURVE",
"630 5 OFFCURVE",
"590 5 CURVE SMOOTH"
);
}
);
width = 885;
}
);
unicode = 044E;
},
{
color = 4;
glyphname = "ia-cy";
lastChange = "2016-09-23 18:44:33 +0000";
layers = (
{
layerId = UUID0;
paths = (
{
closed = 1;
nodes = (
"125 0 LINE SMOOTH",
"190 0 OFFCURVE",
"232 40 OFFCURVE",
"245 80 CURVE SMOOTH",
"290 220 LINE",
"370 220 LINE",
"370 30 LINE",
"310 15 LINE",
"310 0 LINE",
"590 0 LINE",
"590 15 LINE",
"530 30 LINE",
"530 470 LINE",
"590 485 LINE",
"590 500 LINE",
"325 500 LINE SMOOTH",
"129 500 OFFCURVE",
"65 435 OFFCURVE",
"65 360 CURVE SMOOTH",
"65 297 OFFCURVE",
"110 267 OFFCURVE",
"155 251 CURVE SMOOTH",
"182 242 OFFCURVE",
"212 236 OFFCURVE",
"245 235 CURVE",
"245 230 LINE",
"222 229 OFFCURVE",
"200 226 OFFCURVE",
"180 220 CURVE SMOOTH",
"145 209 OFFCURVE",
"108 190 OFFCURVE",
"95 150 CURVE SMOOTH",
"55 30 LINE",
"5 15 LINE",
"5 0 LINE"
);
},
{
closed = 1;
nodes = (
"269 245 OFFCURVE",
"230 284 OFFCURVE",
"230 360 CURVE SMOOTH",
"230 436 OFFCURVE",
"269 475 OFFCURVE",
"325 475 CURVE SMOOTH",
"370 475 LINE",
"370 245 LINE",
"325 245 LINE"
);
}
);
width = 630;
}
);
unicode = 044F;
},
{
color = 4;
glyphname = "dje-cy";
lastChange = "2016-09-23 18:44:33 +0000";
layers = (
{
layerId = UUID0;
paths = (
{
closed = 1;
nodes = (
"535 -30 OFFCURVE",
"585 21 OFFCURVE",
"585 90 CURVE SMOOTH",
"585 320 LINE SMOOTH",
"585 404 OFFCURVE",
"505 485 OFFCURVE",
"390 485 CURVE SMOOTH",
"345 485 OFFCURVE",
"312 468 OFFCURVE",
"291 452 CURVE SMOOTH",
"279 443 OFFCURVE",
"269 432 OFFCURVE",
"260 420 CURVE",
"260 545 LINE",
"385 545 LINE",
"385 570 LINE",
"260 570 LINE",
"260 610 LINE SMOOTH",
"260 670 OFFCURVE",
"230 700 OFFCURVE",
"170 700 CURVE SMOOTH",
"40 700 LINE",
"40 685 LINE",
"100 670 LINE",
"100 570 LINE",
"35 570 LINE",
"35 545 LINE",
"100 545 LINE",
"100 30 LINE",
"40 15 LINE",
"40 0 LINE",
"320 0 LINE",
"320 15 LINE",
"260 30 LINE",
"260 370 LINE",
"266 385 OFFCURVE",
"273 398 OFFCURVE",
"282 410 CURVE SMOOTH",
"297 430 OFFCURVE",
"319 450 OFFCURVE",
"350 450 CURVE SMOOTH",
"385 450 OFFCURVE",
"425 411 OFFCURVE",
"425 320 CURVE SMOOTH",
"425 90 LINE SMOOTH",
"425 19 OFFCURVE",
"396 -10 OFFCURVE",
"365 -10 CURVE",
"365 -30 LINE"
);
}
);
width = 655;
}
);
unicode = 0452;
},
{
color = 4;
glyphname = "yat-cy";
lastChange = "2016-09-23 18:44:33 +0000";
layers = (
{
background = {
paths = (
{
closed = 1;
nodes = (
"430 500 LINE",
"430 460 OFFCURVE",
"465 415 OFFCURVE",
"495 390 CURVE",
"525 390 LINE",
"525 525 LINE",
"25 525 LINE",
"25 390 LINE",
"55 390 LINE",
"84 416 OFFCURVE",
"120 460 OFFCURVE",
"120 500 CURVE",
"195 500 LINE",
"355 500 LINE"
);
}
);
};
layerId = UUID0;
paths = (
{
closed = 1;
nodes = (
"405 0 LINE SMOOTH",
"601 0 OFFCURVE",
"665 65 OFFCURVE",
"665 150 CURVE SMOOTH",
"665 235 OFFCURVE",
"601 300 OFFCURVE",
"405 300 CURVE SMOOTH",
"355 300 LINE",
"355 610 LINE SMOOTH",
"355 670 OFFCURVE",
"325 700 OFFCURVE",
"265 700 CURVE SMOOTH",
"135 700 LINE",
"135 685 LINE",
"195 670 LINE",
"195 30 LINE",
"135 15 LINE",
"135 0 LINE"
);
},
{
closed = 1;
nodes = (
"355 275 LINE",
"405 275 LINE SMOOTH",
"461 275 OFFCURVE",
"500 235 OFFCURVE",
"500 150 CURVE SMOOTH",
"500 65 OFFCURVE",
"461 25 OFFCURVE",
"405 25 CURVE SMOOTH",
"355 25 LINE"
);
},
{
closed = 1;
nodes = (
"55 390 LINE",
"84 416 OFFCURVE",
"120 460 OFFCURVE",
"120 500 CURVE",
"195 500 LINE",
"355 500 LINE",
"430 500 LINE",
"430 460 OFFCURVE",
"465 415 OFFCURVE",
"495 390 CURVE",
"525 390 LINE",
"525 525 LINE",
"25 525 LINE",
"25 390 LINE"
);
}
);
width = 685;
}
);
leftMetricsKey = "te-cy";
rightMetricsKey = "softsign-cy";
unicode = 0463;
},
{
color = 4;
glyphname = "yusbig-cy";
lastChange = "2016-09-23 18:44:33 +0000";
layers = (
{
background = {
paths = (
{
closed = 1;
nodes = (
"650 475 LINE",
"650 500 LINE",
"220 500 LINE",
"220 475 LINE"
);
}
);
};
layerId = UUID0;
paths = (
{
closed = 1;
nodes = (
"110 0 LINE SMOOTH",
"185 0 OFFCURVE",
"225 40 OFFCURVE",
"240 85 CURVE SMOOTH",
"295 250 LINE",
"360 250 LINE",
"360 30 LINE",
"300 15 LINE",
"300 0 LINE",
"580 0 LINE",
"580 15 LINE",
"520 30 LINE",
"520 250 LINE",
"585 250 LINE",
"640 85 LINE SMOOTH",
"655 40 OFFCURVE",
"695 0 OFFCURVE",
"770 0 CURVE SMOOTH",
"875 0 LINE",
"875 15 LINE",
"825 30 LINE",
"775 185 LINE SMOOTH",
"759 230 OFFCURVE",
"720 270 OFFCURVE",
"635 270 CURVE SMOOTH",
"529 270 LINE",
"660 455 LINE",
"740 485 LINE",
"740 500 LINE",
"130 500 LINE",
"130 485 LINE",
"180 470 LINE",
"350 270 LINE",
"245 270 LINE SMOOTH",
"160 270 OFFCURVE",
"121 230 OFFCURVE",
"105 185 CURVE SMOOTH",
"55 30 LINE",
"5 15 LINE",
"5 0 LINE"
);
},
{
closed = 1;
nodes = (
"380 415 LINE SMOOTH",
"363 438 OFFCURVE",
"349 460 OFFCURVE",
"329 475 CURVE",
"635 475 LINE",
"491 270 LINE",
"485 270 LINE"
);
}
);
width = 880;
}
);
rightMetricsKey = "ka-cy";
unicode = 046B;
},
{
color = 4;
glyphname = "izhitsa-cy";
lastChange = "2016-09-23 18:44:33 +0000";
layers = (
{
layerId = UUID0;
paths = (
{
closed = 1;
nodes = (
"310 -10 LINE",
"453 364 LINE SMOOTH",
"483 443 OFFCURVE",
"511 480 OFFCURVE",
"560 480 CURVE",
"559 372 LINE",
"569 368 OFFCURVE",
"580 366 OFFCURVE",
"591 366 CURVE SMOOTH",
"624 366 OFFCURVE",
"662 388 OFFCURVE",
"662 431 CURVE SMOOTH",
"662 488 OFFCURVE",
"621 505 OFFCURVE",
"569 505 CURVE SMOOTH",
"492 505 OFFCURVE",
"453 451 OFFCURVE",
"422 364 CURVE SMOOTH",
"358 186 LINE",
"240 415 LINE SMOOTH",
"214 465 OFFCURVE",
"180 500 OFFCURVE",
"105 500 CURVE SMOOTH",
"-20 500 LINE",
"-20 485 LINE",
"30 470 LINE",
"280 -10 LINE"
);
}
);
width = 652;
}
);
leftMetricsKey = v;
unicode = 0475;
},
{
color = 4;
glyphname = "ghemiddlehook-cy";
lastChange = "2016-09-23 18:44:33 +0000";
layers = (
{
components = (
{
name = "ge-cy";
}
);
layerId = UUID0;
paths = (
{
closed = 1;
nodes = (
"484 -170 OFFCURVE",
"565 -79 OFFCURVE",
"565 50 CURVE SMOOTH",
"565 120 LINE SMOOTH",
"565 233 OFFCURVE",
"485 281 OFFCURVE",
"383 281 CURVE SMOOTH",
"338 281 OFFCURVE",
"289 272 OFFCURVE",
"240 255 CURVE",
"240 227 LINE",
"266 235 OFFCURVE",
"289 239 OFFCURVE",
"309 239 CURVE SMOOTH",
"371 239 OFFCURVE",
"405 199 OFFCURVE",
"405 110 CURVE SMOOTH",
"405 50 LINE SMOOTH",
"405 -81 OFFCURVE",
"386 -150 OFFCURVE",
"325 -150 CURVE",
"325 -170 LINE"
);
}
);
width = 585;
}
);
unicode = 0495;
},
{
color = 4;
glyphname = "zhedescender-cy";
lastChange = "2016-09-23 18:44:33 +0000";
layers = (
{
components = (
{
name = "zhe-cy";
}
);
layerId = UUID0;
paths = (
{
closed = 1;
nodes = (
"875 -165 LINE",
"875 25 LINE",
"760 37 LINE",
"760 0 LINE",
"760 -56 OFFCURVE",
"780 -97 OFFCURVE",
"802 -124 CURVE SMOOTH",
"815 -140 OFFCURVE",
"828 -154 OFFCURVE",
"845 -165 CURVE"
);
}
);
width = 880;
}
);
unicode = 0497;
},
{
color = 4;
glyphname = "zedescender-cy";
lastChange = "2016-09-23 18:44:33 +0000";
layers = (
{
components = (
{
name = "ze-cy";
}
);
layerId = UUID0;
paths = (
{
closed = 1;
nodes = (
"279 -165 LINE",
"309 0 LINE",
"204 0 LINE",
"204 -67 OFFCURVE",
"219 -117 OFFCURVE",
"249 -165 CURVE"
);
}
);
width = 530;
}
);
unicode = 0499;
},
{
color = 4;
glyphname = "kadescender-cy";
lastChange = "2016-09-23 18:44:33 +0000";
layers = (
{
components = (
{
name = "ka-cy";
}
);
layerId = UUID0;
paths = (
{
closed = 1;
nodes = (
"620 -165 LINE",
"620 25 LINE",
"505 37 LINE",
"505 0 LINE",
"505 -56 OFFCURVE",
"525 -97 OFFCURVE",
"547 -124 CURVE SMOOTH",
"560 -140 OFFCURVE",
"573 -154 OFFCURVE",
"590 -165 CURVE"
);
}
);
width = 625;
}
);
unicode = 049B;
},
{
color = 4;
glyphname = "kaverticalstroke-cy";
lastChange = "2016-09-23 18:44:33 +0000";
layers = (
{
components = (
{
name = "verticalbar-cy";
transform = "{1, 0, 0, 1, 18, -6}";
}
);
layerId = UUID0;
paths = (
{
closed = 1;
nodes = (
"320 0 LINE",
"320 15 LINE",
"260 30 LINE",
"260 250 LINE",
"350 250 LINE",
"405 85 LINE SMOOTH",
"420 40 OFFCURVE",
"460 0 OFFCURVE",
"535 0 CURVE SMOOTH",
"640 0 LINE",
"640 15 LINE",
"590 30 LINE",
"540 185 LINE",
"524 230 OFFCURVE",
"485 270 OFFCURVE",
"400 270 CURVE SMOOTH",
"370 270 LINE",
"377 273 OFFCURVE",
"385 277 OFFCURVE",
"392 284 CURVE SMOOTH",
"404 295 OFFCURVE",
"417 312 OFFCURVE",
"425 340 CURVE SMOOTH",
"450 430 LINE",
"457 459 OFFCURVE",
"471 475 OFFCURVE",
"490 480 CURVE",
"490 345 LINE",
"502 342 LINE SMOOTH",
"509 341 OFFCURVE",
"519 340 OFFCURVE",
"530 340 CURVE SMOOTH",
"575 340 OFFCURVE",
"605 369 OFFCURVE",
"605 420 CURVE SMOOTH",
"605 476 OFFCURVE",
"570 510 OFFCURVE",
"510 510 CURVE SMOOTH",
"465 510 OFFCURVE",
"435 481 OFFCURVE",
"420 430 CURVE SMOOTH",
"395 340 LINE",
"384 305 OFFCURVE",
"355 275 OFFCURVE",
"315 275 CURVE SMOOTH",
"260 275 LINE",
"260 470 LINE",
"320 485 LINE",
"320 500 LINE",
"40 500 LINE",
"40 485 LINE",
"100 470 LINE",
"100 30 LINE",
"40 15 LINE",
"40 0 LINE"
);
}
);
width = 645;
}
);
leftMetricsKey = "en-cy";
unicode = 049D;
},
{
color = 4;
glyphname = "kabashkir-cy";
lastChange = "2016-09-23 18:44:33 +0000";
layers = (
{
layerId = UUID0;
paths = (
{
closed = 1;
nodes = (
"415 0 LINE",
"415 15 LINE",
"355 30 LINE",
"355 250 LINE",
"425 250 LINE",
"480 85 LINE SMOOTH",
"495 40 OFFCURVE",
"535 0 OFFCURVE",
"610 0 CURVE SMOOTH",
"715 0 LINE",
"715 15 LINE",
"665 30 LINE",
"615 185 LINE SMOOTH",
"599 230 OFFCURVE",
"560 270 OFFCURVE",
"475 270 CURVE SMOOTH",
"445 270 LINE",
"452 273 OFFCURVE",
"460 277 OFFCURVE",
"467 284 CURVE",
"479 295 OFFCURVE",
"492 312 OFFCURVE",
"500 340 CURVE SMOOTH",
"525 430 LINE SMOOTH",
"532 459 OFFCURVE",
"546 475 OFFCURVE",
"565 480 CURVE",
"565 345 LINE",
"577 342 LINE",
"584 341 OFFCURVE",
"594 340 OFFCURVE",
"605 340 CURVE SMOOTH",
"650 340 OFFCURVE",
"680 369 OFFCURVE",
"680 420 CURVE SMOOTH",
"680 476 OFFCURVE",
"645 510 OFFCURVE",
"585 510 CURVE SMOOTH",
"540 510 OFFCURVE",
"510 481 OFFCURVE",
"495 430 CURVE SMOOTH",
"470 340 LINE SMOOTH",
"459 305 OFFCURVE",
"430 275 OFFCURVE",
"390 275 CURVE SMOOTH",
"355 275 LINE",
"355 470 LINE",
"415 485 LINE",
"415 500 LINE",
"25 500 LINE",
"25 325 LINE",
"55 325 LINE",
"67 336 OFFCURVE",
"78 349 OFFCURVE",
"87 364 CURVE SMOOTH",
"103 391 OFFCURVE",
"120 427 OFFCURVE",
"120 475 CURVE",
"195 475 LINE",
"195 30 LINE",
"135 15 LINE",
"135 0 LINE"
);
}
);
width = 720;
}
);
leftMetricsKey = "te-cy";
rightMetricsKey = "ka-cy";
unicode = 04A1;
},
{
color = 4;
glyphname = "esdescender-cy";
lastChange = "2016-09-23 18:44:33 +0000";
layers = (
{
components = (
{
name = "es-cy";
}
);
layerId = UUID0;
paths = (
{
closed = 1;
nodes = (
"323 -165 LINE",
"353 0 LINE",
"248 0 LINE",
"248 -67 OFFCURVE",
"263 -117 OFFCURVE",
"293 -165 CURVE"
);
}
);
width = 530;
}
);
unicode = 04AB;
},
{
color = 4;
glyphname = "ustrait-cy";
lastChange = "2016-09-23 18:44:33 +0000";
layers = (
{
anchors = (
{
name = center;
position = "{290, 20}";
}
);
components = (
{
name = v;
}
);
layerId = UUID0;
paths = (
{
closed = 1;
nodes = (
"428 -200 LINE",
"428 -185 LINE",
"368 -170 LINE",
"368 153 LINE",
"208 153 LINE",
"208 -170 LINE",
"148 -185 LINE",
"148 -200 LINE"
);
}
);
width = 560;
}
);
leftMetricsKey = v;
rightMetricsKey = v;
unicode = 04AF;
},
{
color = 4;
glyphname = "chedescender-cy";
lastChange = "2016-09-23 18:44:33 +0000";
layers = (
{
components = (
{
name = "che-cy";
}
);
layerId = UUID0;
paths = (
{
closed = 1;
nodes = (
"315 -165 LINE",
"332 -154 OFFCURVE",
"345 -140 OFFCURVE",
"358 -124 CURVE SMOOTH",
"380 -97 OFFCURVE",
"400 -56 OFFCURVE",
"400 0 CURVE",
"535 0 LINE",
"535 39 LINE",
"285 25 LINE",
"285 -165 LINE"
);
}
);
width = 635;
}
);
leftMetricsKey = "che-cy";
rightMetricsKey = "en-cy";
unicode = 04B7;
},
{
color = 4;
glyphname = "cheverticalstroke-cy";
lastChange = "2016-09-23 18:44:33 +0000";
layers = (
{
components = (
{
name = "verticalbar-cy";
transform = "{1, 0, 0, 1, 24, -62}";
}
);
layerId = UUID0;
paths = (
{
closed = 1;
nodes = (
"615 0 LINE",
"615 15 LINE",
"555 30 LINE",
"555 470 LINE",
"615 485 LINE",
"615 500 LINE",
"335 500 LINE",
"335 485 LINE",
"395 470 LINE",
"395 230 LINE",
"373 213 OFFCURVE",
"347 205 OFFCURVE",
"310 205 CURVE SMOOTH",
"265 205 OFFCURVE",
"235 234 OFFCURVE",
"235 325 CURVE SMOOTH",
"235 470 LINE",
"295 485 LINE",
"295 500 LINE",
"15 500 LINE",
"15 485 LINE",
"75 470 LINE",
"75 325 LINE SMOOTH",
"75 240 OFFCURVE",
"135 180 OFFCURVE",
"270 180 CURVE SMOOTH",
"313 180 OFFCURVE",
"362 188 OFFCURVE",
"395 205 CURVE",
"395 30 LINE",
"335 15 LINE",
"335 0 LINE"
);
}
);
width = 655;
}
);
leftMetricsKey = "che-cy";
rightMetricsKey = "en-cy";
unicode = 04B9;
},
{
color = 4;
glyphname = "schwa-cy";
lastChange = "2016-09-23 18:44:33 +0000";
layers = (
{
layerId = UUID0;
paths = (
{
closed = 1;
nodes = (
"413 -15 OFFCURVE",
"513 85 OFFCURVE",
"513 250 CURVE SMOOTH",
"513 415 OFFCURVE",
"414 515 OFFCURVE",
"243 515 CURVE SMOOTH",
"105 515 OFFCURVE",
"48 460 OFFCURVE",
"48 405 CURVE SMOOTH",
"48 360 OFFCURVE",
"78 330 OFFCURVE",
"123 330 CURVE SMOOTH",
"135 330 OFFCURVE",
"148 331 OFFCURVE",
"163 335 CURVE",
"163 485 LINE",
"184 492 OFFCURVE",
"205 495 OFFCURVE",
"226 495 CURVE SMOOTH",
"307 495 OFFCURVE",
"339 415 OFFCURVE",
"343 275 CURVE",
"256 275 OFFCURVE",
"127 262 OFFCURVE",
"45 245 CURVE",
"38 220 OFFCURVE",
"35 208 OFFCURVE",
"35 185 CURVE SMOOTH",
"35 76 OFFCURVE",
"125 -15 OFFCURVE",
"268 -15 CURVE SMOOTH"
);
},
{
closed = 1;
nodes = (
"233 5 OFFCURVE",
"193 45 OFFCURVE",
"193 165 CURVE SMOOTH",
"193 189 OFFCURVE",
"195 210 OFFCURVE",
"203 240 CURVE",
"253 250 OFFCURVE",
"289 250 OFFCURVE",
"343 250 CURVE",
"343 45 OFFCURVE",
"303 5 OFFCURVE",
"268 5 CURVE SMOOTH"
);
}
);
width = 553;
}
);
rightMetricsKey = o;
unicode = 04D9;
},
{
color = 4;
glyphname = "Enghe-cy";
lastChange = "2016-09-23 18:44:33 +0000";
layers = (
{
layerId = UUID0;
paths = (
{
closed = 1;
nodes = (
"335 0 LINE",
"335 15 LINE",
"275 30 LINE",
"275 335 LINE",
"490 335 LINE",
"490 30 LINE",
"430 15 LINE",
"430 0 LINE",
"715 0 LINE",
"715 15 LINE",
"655 30 LINE",
"655 675 LINE",
"870 675 LINE",
"870 616 OFFCURVE",
"894 552 OFFCURVE",
"935 520 CURVE",
"965 520 LINE",
"965 700 LINE",
"430 700 LINE",
"430 685 LINE",
"490 670 LINE",
"490 360 LINE",
"275 360 LINE",
"275 670 LINE",
"335 685 LINE",
"335 700 LINE",
"50 700 LINE",
"50 685 LINE",
"110 670 LINE",
"110 30 LINE",
"50 15 LINE",
"50 0 LINE"
);
}
);
width = 990;
}
);
leftMetricsKey = "En-cy";
rightMetricsKey = "Ge-cy";
unicode = 04A4;
},
{
color = 4;
glyphname = "enghe-cy";
lastChange = "2016-09-23 18:44:33 +0000";
layers = (
{
hints = (
{
horizontal = 1;
origin = "{0, 3}";
target = "{0, 22}";
},
{
origin = "{0, 28}";
target = "{0, 23}";
},
{
origin = "{0, 20}";
target = "{0, 11}";
}
);
layerId = UUID0;
paths = (
{
closed = 1;
nodes = (
"320 0 LINE",
"320 15 LINE",
"260 30 LINE",
"260 240 LINE",
"410 240 LINE",
"410 30 LINE",
"350 15 LINE",
"350 0 LINE",
"630 0 LINE",
"630 15 LINE",
"570 30 LINE",
"570 475 LINE",
"720 475 LINE",
"720 420 OFFCURVE",
"745 359 OFFCURVE",
"785 325 CURVE",
"815 325 LINE",
"815 500 LINE",
"350 500 LINE",
"350 485 LINE",
"410 470 LINE",
"410 265 LINE",
"260 265 LINE",
"260 470 LINE",
"320 485 LINE",
"320 500 LINE",
"40 500 LINE",
"40 485 LINE",
"100 470 LINE",
"100 30 LINE",
"40 15 LINE",
"40 0 LINE"
);
}
);
width = 840;
}
);
leftMetricsKey = "en-cy";
rightMetricsKey = "ge-cy";
unicode = 04A5;
},
{
glyphname = zero;
lastChange = "2016-09-23 18:42:53 +0000";
layers = (
{
layerId = UUID0;
paths = (
{
closed = 1;
nodes = (
"495 -15 OFFCURVE",
"625 115 OFFCURVE",
"625 350 CURVE SMOOTH",
"625 585 OFFCURVE",
"495 715 OFFCURVE",
"335 715 CURVE SMOOTH",
"175 715 OFFCURVE",
"45 585 OFFCURVE",
"45 350 CURVE SMOOTH",
"45 115 OFFCURVE",
"175 -15 OFFCURVE",
"335 -15 CURVE SMOOTH"
);
},
{
closed = 1;
nodes = (
"279 5 OFFCURVE",
"220 66 OFFCURVE",
"220 350 CURVE SMOOTH",
"220 634 OFFCURVE",
"279 695 OFFCURVE",
"335 695 CURVE SMOOTH",
"391 695 OFFCURVE",
"450 634 OFFCURVE",
"450 350 CURVE SMOOTH",
"450 66 OFFCURVE",
"391 5 OFFCURVE",
"335 5 CURVE SMOOTH"
);
}
);
width = 670;
}
);
unicode = 0030;
},
{
glyphname = one;
lastChange = "2016-09-23 18:44:33 +0000";
layers = (
{
layerId = UUID0;
paths = (
{
closed = 1;
nodes = (
"375 0 LINE",
"375 15 LINE",
"305 35 LINE",
"305 700 LINE",
"197 700 LINE",
"15 535 LINE",
"35 510 LINE",
"140 584 LINE",
"140 35 LINE",
"70 15 LINE",
"70 0 LINE"
);
}
);
width = 415;
}
);
unicode = 0031;
},
{
glyphname = two;
lastChange = "2016-09-23 18:44:33 +0000";
layers = (
{
layerId = UUID0;
paths = (
{
closed = 1;
nodes = (
"525 0 LINE",
"525 200 LINE",
"495 200 LINE",
"486 192 OFFCURVE",
"477 182 OFFCURVE",
"469 170 CURVE SMOOTH",
"454 150 OFFCURVE",
"440 120 OFFCURVE",
"435 80 CURVE",
"65 80 LINE",
"133 281 OFFCURVE",
"519 269 OFFCURVE",
"519 510 CURVE SMOOTH",
"519 635 OFFCURVE",
"439 715 OFFCURVE",
"254 715 CURVE SMOOTH",
"109 715 OFFCURVE",
"39 645 OFFCURVE",
"39 585 CURVE SMOOTH",
"39 540 OFFCURVE",
"69 510 OFFCURVE",
"114 510 CURVE SMOOTH",
"125 510 OFFCURVE",
"133 511 OFFCURVE",
"141 512 CURVE SMOOTH",
"154 515 LINE",
"154 675 LINE",
"175 682 LINE SMOOTH",
"190 686 OFFCURVE",
"209 690 OFFCURVE",
"234 690 CURVE SMOOTH",
"299 690 OFFCURVE",
"349 641 OFFCURVE",
"349 550 CURVE SMOOTH",
"349 346 OFFCURVE",
"30 289 OFFCURVE",
"30 45 CURVE SMOOTH",
"30 0 LINE"
);
}
);
width = 575;
}
);
unicode = 0032;
},
{
glyphname = three;
lastChange = "2016-09-23 18:44:33 +0000";
layers = (
{
layerId = UUID0;
paths = (
{
closed = 1;
nodes = (
"451 -15 OFFCURVE",
"535 70 OFFCURVE",
"535 180 CURVE SMOOTH",
"535 272 OFFCURVE",
"475 318 OFFCURVE",
"415 342 CURVE SMOOTH",
"380 355 OFFCURVE",
"340 363 OFFCURVE",
"295 365 CURVE",
"295 370 LINE",
"334 372 OFFCURVE",
"369 379 OFFCURVE",
"400 391 CURVE",
"451 413 OFFCURVE",
"505 451 OFFCURVE",
"505 535 CURVE SMOOTH",
"505 630 OFFCURVE",
"420 715 OFFCURVE",
"245 715 CURVE SMOOTH",
"110 715 OFFCURVE",
"40 645 OFFCURVE",
"40 585 CURVE SMOOTH",
"40 540 OFFCURVE",
"70 510 OFFCURVE",
"115 510 CURVE SMOOTH",
"126 510 OFFCURVE",
"134 511 OFFCURVE",
"142 512 CURVE SMOOTH",
"155 515 LINE",
"155 675 LINE",
"161 677 OFFCURVE",
"168 679 OFFCURVE",
"175 682 CURVE SMOOTH",
"187 686 OFFCURVE",
"205 690 OFFCURVE",
"225 690 CURVE SMOOTH",
"285 690 OFFCURVE",
"335 640 OFFCURVE",
"335 535 CURVE SMOOTH",
"335 430 OFFCURVE",
"286 380 OFFCURVE",
"230 380 CURVE SMOOTH",
"180 380 LINE",
"180 355 LINE",
"230 355 LINE SMOOTH",
"310 355 OFFCURVE",
"365 300 OFFCURVE",
"365 180 CURVE SMOOTH",
"365 64 OFFCURVE",
"311 10 OFFCURVE",
"220 10 CURVE SMOOTH",
"195 10 OFFCURVE",
"176 13 OFFCURVE",
"161 17 CURVE SMOOTH",
"153 20 OFFCURVE",
"146 22 OFFCURVE",
"140 25 CURVE",
"140 185 LINE",
"127 187 LINE SMOOTH",
"119 188 OFFCURVE",
"111 190 OFFCURVE",
"100 190 CURVE SMOOTH",
"55 190 OFFCURVE",
"25 160 OFFCURVE",
"25 115 CURVE SMOOTH",
"25 55 OFFCURVE",
"95 -15 OFFCURVE",
"240 -15 CURVE SMOOTH"
);
}
);
width = 585;
}
);
unicode = 0033;
},
{
glyphname = four;
lastChange = "2016-09-23 18:44:33 +0000";
layers = (
{
layerId = UUID0;
paths = (
{
closed = 1;
nodes = (
"540 0 LINE",
"540 15 LINE",
"470 35 LINE",
"470 185 LINE",
"575 185 LINE",
"575 230 LINE",
"470 230 LINE",
"470 710 LINE",
"375 710 LINE",
"0 215 LINE",
"20 185 LINE",
"305 185 LINE",
"305 35 LINE",
"235 15 LINE",
"235 0 LINE"
);
},
{
closed = 1;
nodes = (
"305 560 LINE",
"305 230 LINE",
"55 230 LINE"
);
}
);
width = 600;
}
);
unicode = 0034;
},
{
glyphname = five;
lastChange = "2016-09-23 18:44:33 +0000";
layers = (
{
layerId = UUID0;
paths = (
{
closed = 1;
nodes = (
"439 -15 OFFCURVE",
"530 75 OFFCURVE",
"530 215 CURVE SMOOTH",
"530 351 OFFCURVE",
"440 440 OFFCURVE",
"240 440 CURVE SMOOTH",
"197 440 OFFCURVE",
"163 428 OFFCURVE",
"136 417 CURVE SMOOTH",
"121 410 OFFCURVE",
"107 403 OFFCURVE",
"95 395 CURVE",
"122 625 LINE",
"485 625 LINE",
"485 820 LINE",
"455 820 LINE",
"446 812 OFFCURVE",
"437 802 OFFCURVE",
"429 790 CURVE SMOOTH",
"414 770 OFFCURVE",
"400 740 OFFCURVE",
"395 700 CURVE",
"100 700 LINE",
"60 365 LINE",
"80 350 LINE",
"93 362 OFFCURVE",
"107 373 OFFCURVE",
"122 382 CURVE SMOOTH",
"149 398 OFFCURVE",
"181 415 OFFCURVE",
"220 415 CURVE SMOOTH",
"307 415 OFFCURVE",
"360 360 OFFCURVE",
"360 215 CURVE SMOOTH",
"360 66 OFFCURVE",
"305 10 OFFCURVE",
"230 10 CURVE SMOOTH",
"205 10 OFFCURVE",
"186 13 OFFCURVE",
"171 17 CURVE SMOOTH",
"163 20 OFFCURVE",
"156 22 OFFCURVE",
"150 25 CURVE",
"150 185 LINE",
"137 187 LINE SMOOTH",
"129 188 OFFCURVE",
"121 190 OFFCURVE",
"110 190 CURVE SMOOTH",
"65 190 OFFCURVE",
"35 160 OFFCURVE",
"35 115 CURVE SMOOTH",
"35 55 OFFCURVE",
"105 -15 OFFCURVE",
"250 -15 CURVE SMOOTH"
);
}
);
width = 570;
}
);
unicode = 0035;
},
{
glyphname = six;
lastChange = "2016-09-23 18:44:33 +0000";
layers = (
{
layerId = UUID0;
paths = (
{
closed = 1;
nodes = (
"485 -15 OFFCURVE",
"575 75 OFFCURVE",
"575 215 CURVE SMOOTH",
"575 340 OFFCURVE",
"484 430 OFFCURVE",
"335 430 CURVE SMOOTH",
"295 430 OFFCURVE",
"266 415 OFFCURVE",
"247 400 CURVE SMOOTH",
"236 391 OFFCURVE",
"227 381 OFFCURVE",
"220 370 CURVE",
"220 635 OFFCURVE",
"274 690 OFFCURVE",
"365 690 CURVE SMOOTH",
"380 690 OFFCURVE",
"395 686 OFFCURVE",
"406 682 CURVE SMOOTH",
"425 675 LINE",
"425 515 LINE",
"437 512 LINE SMOOTH",
"444 511 OFFCURVE",
"454 510 OFFCURVE",
"465 510 CURVE SMOOTH",
"510 510 OFFCURVE",
"540 540 OFFCURVE",
"540 585 CURVE SMOOTH",
"540 645 OFFCURVE",
"470 715 OFFCURVE",
"345 715 CURVE SMOOTH",
"165 715 OFFCURVE",
"50 595 OFFCURVE",
"50 350 CURVE SMOOTH",
"50 94 OFFCURVE",
"160 -15 OFFCURVE",
"320 -15 CURVE SMOOTH"
);
},
{
closed = 1;
nodes = (
"275 5 OFFCURVE",
"225 55 OFFCURVE",
"225 240 CURVE SMOOTH",
"225 360 OFFCURVE",
"264 405 OFFCURVE",
"315 405 CURVE SMOOTH",
"355 405 OFFCURVE",
"405 355 OFFCURVE",
"405 205 CURVE SMOOTH",
"405 55 OFFCURVE",
"355 5 OFFCURVE",
"320 5 CURVE SMOOTH"
);
}
);
width = 620;
}
);
unicode = 0036;
},
{
glyphname = seven;
lastChange = "2016-09-23 18:44:33 +0000";
layers = (
{
layerId = UUID0;
paths = (
{
closed = 1;
nodes = (
"320 0 LINE",
"320 351 OFFCURVE",
"505 460 OFFCURVE",
"505 655 CURVE SMOOTH",
"505 700 LINE",
"30 700 LINE",
"30 505 LINE",
"60 505 LINE",
"69 513 OFFCURVE",
"78 523 OFFCURVE",
"86 535 CURVE SMOOTH",
"101 555 OFFCURVE",
"115 585 OFFCURVE",
"120 625 CURVE",
"475 625 LINE",
"411 429 OFFCURVE",
"145 341 OFFCURVE",
"145 0 CURVE"
);
}
);
width = 530;
}
);
unicode = 0037;
},
{
glyphname = eight;
lastChange = "2016-09-23 18:44:33 +0000";
layers = (
{
layerId = UUID0;
paths = (
{
closed = 1;
nodes = (
"495 -15 OFFCURVE",
"585 75 OFFCURVE",
"585 175 CURVE SMOOTH",
"585 286 OFFCURVE",
"516 354 OFFCURVE",
"400 405 CURVE",
"470 424 OFFCURVE",
"535 491 OFFCURVE",
"535 555 CURVE SMOOTH",
"535 634 OFFCURVE",
"456 715 OFFCURVE",
"325 715 CURVE SMOOTH",
"149 715 OFFCURVE",
"70 635 OFFCURVE",
"70 535 CURVE SMOOTH",
"70 444 OFFCURVE",
"125 390 OFFCURVE",
"205 345 CURVE",
"114 316 OFFCURVE",
"40 240 OFFCURVE",
"40 165 CURVE SMOOTH",
"40 65 OFFCURVE",
"119 -15 OFFCURVE",
"295 -15 CURVE SMOOTH"
);
},
{
closed = 1;
nodes = (
"195 10 OFFCURVE",
"125 81 OFFCURVE",
"125 165 CURVE SMOOTH",
"125 250 OFFCURVE",
"174 300 OFFCURVE",
"245 325 CURVE",
"350 280 OFFCURVE",
"420 210 OFFCURVE",
"420 145 CURVE SMOOTH",
"420 60 OFFCURVE",
"370 10 OFFCURVE",
"285 10 CURVE SMOOTH"
);
},
{
closed = 1;
nodes = (
"280 465 OFFCURVE",
"235 512 OFFCURVE",
"235 565 CURVE SMOOTH",
"235 645 OFFCURVE",
"279 690 OFFCURVE",
"335 690 CURVE SMOOTH",
"395 690 OFFCURVE",
"455 630 OFFCURVE",
"455 555 CURVE SMOOTH",
"455 484 OFFCURVE",
"415 445 OFFCURVE",
"370 425 CURVE"
);
}
);
width = 615;
}
);
unicode = 0038;
},
{
glyphname = nine;
lastChange = "2016-09-23 18:44:33 +0000";
layers = (
{
layerId = UUID0;
paths = (
{
closed = 1;
nodes = (
"455 -15 OFFCURVE",
"570 105 OFFCURVE",
"570 350 CURVE SMOOTH",
"570 606 OFFCURVE",
"460 715 OFFCURVE",
"300 715 CURVE SMOOTH",
"135 715 OFFCURVE",
"45 625 OFFCURVE",
"45 485 CURVE SMOOTH",
"45 360 OFFCURVE",
"136 270 OFFCURVE",
"285 270 CURVE SMOOTH",
"325 270 OFFCURVE",
"353 285 OFFCURVE",
"372 300 CURVE SMOOTH",
"383 309 OFFCURVE",
"393 319 OFFCURVE",
"400 330 CURVE",
"400 65 OFFCURVE",
"345 10 OFFCURVE",
"255 10 CURVE SMOOTH",
"240 10 OFFCURVE",
"227 12 OFFCURVE",
"214 17 CURVE SMOOTH",
"195 25 LINE",
"195 185 LINE",
"182 187 LINE SMOOTH",
"174 188 OFFCURVE",
"166 190 OFFCURVE",
"155 190 CURVE SMOOTH",
"110 190 OFFCURVE",
"80 160 OFFCURVE",
"80 115 CURVE SMOOTH",
"80 55 OFFCURVE",
"150 -15 OFFCURVE",
"275 -15 CURVE SMOOTH"
);
},
{
closed = 1;
nodes = (
"265 295 OFFCURVE",
"215 345 OFFCURVE",
"215 495 CURVE SMOOTH",
"215 645 OFFCURVE",
"265 695 OFFCURVE",
"300 695 CURVE SMOOTH",
"345 695 OFFCURVE",
"395 645 OFFCURVE",
"395 460 CURVE SMOOTH",
"395 340 OFFCURVE",
"356 295 OFFCURVE",
"305 295 CURVE SMOOTH"
);
}
);
width = 620;
}
);
unicode = 0039;
},
{
glyphname = onesuperior;
lastChange = "2016-09-23 18:44:33 +0000";
layers = (
{
layerId = UUID0;
paths = (
{
closed = 1;
nodes = (
"255 370 LINE",
"255 385 LINE",
"215 395 LINE",
"215 700 LINE",
"140 700 LINE",
"30 590 LINE",
"45 575 LINE",
"105 620 LINE",
"105 395 LINE",
"65 385 LINE",
"65 370 LINE"
);
}
);
width = 285;
}
);
unicode = 00B9;
},
{
glyphname = twosuperior;
lastChange = "2016-09-23 18:44:33 +0000";
layers = (
{
layerId = UUID0;
paths = (
{
closed = 1;
nodes = (
"310 370 LINE",
"310 495 LINE",
"290 495 LINE",
"283 488 OFFCURVE",
"277 480 OFFCURVE",
"272 472 CURVE SMOOTH",
"263 457 OFFCURVE",
"253 438 OFFCURVE",
"250 415 CURVE",
"60 415 LINE",
"120 491 OFFCURVE",
"315 489 OFFCURVE",
"315 610 CURVE SMOOTH",
"315 665 OFFCURVE",
"270 710 OFFCURVE",
"175 710 CURVE SMOOTH",
"70 710 OFFCURVE",
"30 670 OFFCURVE",
"30 630 CURVE SMOOTH",
"30 599 OFFCURVE",
"49 580 OFFCURVE",
"80 580 CURVE SMOOTH",
"91 580 OFFCURVE",
"98 581 OFFCURVE",
"105 582 CURVE",
"115 585 LINE",
"115 685 LINE",
"128 687 LINE SMOOTH",
"136 688 OFFCURVE",
"144 690 OFFCURVE",
"155 690 CURVE SMOOTH",
"180 690 OFFCURVE",
"205 665 OFFCURVE",
"205 630 CURVE SMOOTH",
"205 520 OFFCURVE",
"30 520 OFFCURVE",
"30 400 CURVE SMOOTH",
"30 370 LINE"
);
}
);
width = 345;
}
);
unicode = 00B2;
},
{
glyphname = threesuperior;
lastChange = "2016-09-23 18:42:53 +0000";
layers = (
{
layerId = UUID0;
paths = (
{
closed = 1;
nodes = (
"284 360 OFFCURVE",
"330 404 OFFCURVE",
"330 455 CURVE SMOOTH",
"330 495 OFFCURVE",
"298 516 OFFCURVE",
"267 527 CURVE SMOOTH",
"249 534 OFFCURVE",
"228 538 OFFCURVE",
"205 540 CURVE",
"225 541 OFFCURVE",
"243 545 OFFCURVE",
"260 552 CURVE SMOOTH",
"287 563 OFFCURVE",
"315 581 OFFCURVE",
"315 620 CURVE SMOOTH",
"315 665 OFFCURVE",
"270 710 OFFCURVE",
"180 710 CURVE SMOOTH",
"75 710 OFFCURVE",
"35 670 OFFCURVE",
"35 630 CURVE SMOOTH",
"35 599 OFFCURVE",
"54 580 OFFCURVE",
"85 580 CURVE SMOOTH",
"96 580 OFFCURVE",
"103 581 OFFCURVE",
"110 582 CURVE",
"120 585 LINE",
"120 685 LINE",
"133 687 LINE SMOOTH",
"141 688 OFFCURVE",
"149 690 OFFCURVE",
"160 690 CURVE SMOOTH",
"180 690 OFFCURVE",
"205 665 OFFCURVE",
"205 620 CURVE SMOOTH",
"205 575 OFFCURVE",
"180 550 OFFCURVE",
"160 550 CURVE SMOOTH",
"134 550 LINE",
"134 530 LINE",
"160 530 LINE SMOOTH",
"195 530 OFFCURVE",
"220 506 OFFCURVE",
"220 455 CURVE SMOOTH",
"220 406 OFFCURVE",
"195 380 OFFCURVE",
"155 380 CURVE SMOOTH",
"144 380 OFFCURVE",
"136 381 OFFCURVE",
"128 382 CURVE SMOOTH",
"115 385 LINE",
"115 485 LINE",
"105 487 LINE SMOOTH",
"98 488 OFFCURVE",
"91 490 OFFCURVE",
"80 490 CURVE SMOOTH",
"49 490 OFFCURVE",
"30 471 OFFCURVE",
"30 440 CURVE SMOOTH",
"30 400 OFFCURVE",
"70 360 OFFCURVE",
"175 360 CURVE SMOOTH"
);
}
);
width = 360;
}
);
unicode = 00B3;
},
{
glyphname = foursuperior;
lastChange = "2016-09-23 18:44:33 +0000";
layers = (
{
layerId = UUID0;
paths = (
{
closed = 1;
nodes = (
"330 370 LINE",
"330 385 LINE",
"290 395 LINE",
"290 445 LINE",
"352 445 LINE",
"352 475 LINE",
"290 475 LINE",
"290 700 LINE",
"230 700 LINE",
"20 470 LINE",
"35 445 LINE",
"180 445 LINE",
"180 395 LINE",
"140 385 LINE",
"140 370 LINE"
);
},
{
closed = 1;
nodes = (
"180 605 LINE",
"180 475 LINE",
"60 475 LINE"
);
}
);
width = 412;
}
);
unicode = 2074;
},
{
glyphname = fraction;
lastChange = "2016-09-23 19:06:12 +0000";
layers = (
{
layerId = UUID0;
paths = (
{
closed = 1;
nodes = (
"5 0 LINE",
"520 700 LINE",
"465 700 LINE",
"-50 0 LINE"
);
}
);
width = 470;
}
);
unicode = 2044;
},
{
glyphname = onehalf;
lastChange = "2016-09-23 18:44:33 +0000";
layers = (
{
layerId = UUID0;
paths = (
{
closed = 1;
nodes = (
"120 0 LINE",
"635 700 LINE",
"580 700 LINE",
"65 0 LINE"
);
},
{
closed = 1;
nodes = (
"245 370 LINE",
"245 385 LINE",
"205 395 LINE",
"205 700 LINE",
"130 700 LINE",
"20 590 LINE",
"35 575 LINE",
"95 620 LINE",
"95 395 LINE",
"55 385 LINE",
"55 370 LINE"
);
},
{
closed = 1;
nodes = (
"670 0 LINE",
"670 125 LINE",
"650 125 LINE",
"643 118 OFFCURVE",
"637 110 OFFCURVE",
"632 102 CURVE SMOOTH",
"623 87 OFFCURVE",
"613 68 OFFCURVE",
"610 45 CURVE",
"420 45 LINE",
"480 121 OFFCURVE",
"675 119 OFFCURVE",
"675 240 CURVE SMOOTH",
"675 295 OFFCURVE",
"630 340 OFFCURVE",
"535 340 CURVE SMOOTH",
"430 340 OFFCURVE",
"390 300 OFFCURVE",
"390 260 CURVE SMOOTH",
"390 229 OFFCURVE",
"409 210 OFFCURVE",
"440 210 CURVE SMOOTH",
"451 210 OFFCURVE",
"458 211 OFFCURVE",
"465 212 CURVE",
"475 215 LINE",
"475 315 LINE",
"488 317 LINE SMOOTH",
"496 318 OFFCURVE",
"504 320 OFFCURVE",
"515 320 CURVE SMOOTH",
"540 320 OFFCURVE",
"565 295 OFFCURVE",
"565 260 CURVE SMOOTH",
"565 150 OFFCURVE",
"390 150 OFFCURVE",
"390 30 CURVE SMOOTH",
"390 0 LINE"
);
}
);
width = 705;
}
);
unicode = 00BD;
},
{
glyphname = onequarter;
lastChange = "2016-09-23 18:44:33 +0000";
layers = (
{
layerId = UUID0;
paths = (
{
closed = 1;
nodes = (
"130 0 LINE",
"645 700 LINE",
"590 700 LINE",
"75 0 LINE"
);
},
{
closed = 1;
nodes = (
"485 235 LINE",
"485 105 LINE",
"365 105 LINE"
);
},
{
closed = 1;
nodes = (
"635 0 LINE",
"635 15 LINE",
"595 25 LINE",
"595 75 LINE",
"657 75 LINE",
"657 105 LINE",
"595 105 LINE",
"595 330 LINE",
"535 330 LINE",
"325 100 LINE",
"340 75 LINE",
"485 75 LINE",
"485 25 LINE",
"445 15 LINE",
"445 0 LINE"
);
},
{
closed = 1;
nodes = (
"245 370 LINE",
"245 385 LINE",
"205 395 LINE",
"205 700 LINE",
"130 700 LINE",
"20 590 LINE",
"35 575 LINE",
"95 620 LINE",
"95 395 LINE",
"55 385 LINE",
"55 370 LINE"
);
}
);
width = 687;
}
);
unicode = 00BC;
},
